<?xml version="1.0" encoding="UTF-8" standalone="no"?>
<svg
   xmlns:dc="http://purl.org/dc/elements/1.1/"
   xmlns:cc="http://creativecommons.org/ns#"
   xmlns:rdf="http://www.w3.org/1999/02/22-rdf-syntax-ns#"
   xmlns:svg="http://www.w3.org/2000/svg"
   xmlns="http://www.w3.org/2000/svg"
   xmlns:sodipodi="http://sodipodi.sourceforge.net/DTD/sodipodi-0.dtd"
   xmlns:inkscape="http://www.inkscape.org/namespaces/inkscape"
   width="900pt"
   height="900pt"
   viewBox="0 0 900 900"
   version="1.1"
   id="svg2"
   inkscape:version="0.91 r13725"
   sodipodi:docname="zorg.svg">
  <metadata
     id="metadata1082">
    <rdf:RDF>
      <cc:Work
         rdf:about="">
        <dc:format>image/svg+xml</dc:format>
        <dc:type
           rdf:resource="http://purl.org/dc/dcmitype/StillImage" />
      </cc:Work>
    </rdf:RDF>
  </metadata>
  <defs
     id="defs1080" />
  <sodipodi:namedview
     pagecolor="#ffffff"
     bordercolor="#666666"
     borderopacity="1"
     objecttolerance="10"
     gridtolerance="10"
     guidetolerance="10"
     inkscape:pageopacity="0"
     inkscape:pageshadow="2"
     inkscape:window-width="1839"
     inkscape:window-height="1056"
     id="namedview1078"
     showgrid="false"
     inkscape:zoom="0.50000003"
     inkscape:cx="427.96025"
     inkscape:cy="820.61578"
     inkscape:window-x="81"
     inkscape:window-y="24"
     inkscape:window-maximized="1"
     inkscape:current-layer="svg2"
     showguides="true"
     inkscape:guide-bbox="true" />
  <path
     id="path146"
     d="m 439.38745,14.974928 c -90.88542,1.07519 -180.56232,66.44775 -197.85,203.900002 -24.33492,-19.60738 -60.49665,-57.61862 -80.55,-50.675 9.86268,33.68097 71.74607,87.04322 68.525,94.27193 -0.64608,143.68528 -8.24131,396.19665 -29.29705,529.5598 l 79.02945,43.93535 c 132.89308,69.03552 213.88309,63.7184 339.96123,0.47016 0,0 43.11027,-25.7358 60.1402,-42.26353 0.47766,-176.8735 -2.22017,-379.05469 -13.58383,-528.32185 14.98885,-33.49728 75.78442,-82.22196 82.05004,-112.02993 -21.94442,-9.24928 -74.71097,44.0755 -95.5,65.375 C 646.86228,112.21826 547.37817,16.602368 439.38745,14.974928 Z"
     inkscape:connector-curvature="0"
     sodipodi:nodetypes="cccccccccccc" />
  <path
     style="fill:#ff0000"
     d="m 174.76375,178.02363 c 100.85441,82.97183 282.69636,243.35935 282.69636,243.35935 0,0 169.51162,-164.20475 276.96241,-259.64336 0,0 -282.69201,317.10767 -283.08553,317.21424 0,0 -176.59335,-187.49175 -276.57324,-300.93023 z"
     id="path4369"
     inkscape:connector-curvature="0"
     sodipodi:nodetypes="ccccc" />
  <path
     style="fill:#e6e6e6;fill-opacity:1"
     d="m 356.52893,315.68613 c -55.53182,-47.6579 -101.11972,-86.79466 -101.30648,-86.97056 7.51289,-49.98117 31.13241,-104.33832 59.84005,-138.200752 4.47816,-5.18208 15.46852,-16.03635 20.29949,-20.04815 15.26214,-12.67414 31.78769,-22.22759 49.6,-28.67384 27.15643,-9.82786 57.41395,-12.23581 85.8,-6.82812 32.20091,6.13444 63.23812,21.36253 91.77402,45.02797 6.65554,5.5196 20.78207,19.56473 26.47467,26.322142 29.58875,35.12338 46.57999,75.10946 50.15406,118.02928 l 0.25225,3.02927 -90.66708,87.37073 c -49.86689,48.0539 -90.79915,87.42069 -90.96056,87.48175 -0.16142,0.0611 -45.7286,-38.88181 -101.26042,-86.53972 z"
     id="path2983"
     inkscape:connector-curvature="0"
     sodipodi:nodetypes="sccsssssscsss" />
  <path
     style="fill:#e6e6e6;fill-opacity:1"
     d="M 596.80903,614.91924 C 502.94054,430.9989 292.1041,506.68794 286.88365,689.22811 c -6.7039,39.80951 -7.52488,97.62533 -7.11558,136.38722 -23.05416,-10.60432 -67.6713,-37.60088 -67.6713,-37.60088 18.80268,-170.12357 26.10843,-342.90555 32.0048,-511.2882 0,0 128.26762,131.99357 208.78571,227.43815 0,0 163.95092,-192.7123 195.88178,-227.63545 18.94432,174.24226 21.60968,363.13246 19.66653,512.42949 -12.54906,13.40187 -31.19286,26.99257 -47.71984,36.46049 10.0908,-73.37797 -2.08956,-148.64713 -23.90672,-210.49969 z"
     id="path2991"
     inkscape:connector-curvature="0"
     sodipodi:nodetypes="cccccccccc" />
  <path
     style="fill:#666666;fill-opacity:1"
     d="m 291.13776,828.85773 4.16093,-57.12504 c 5.22398,-71.71969 6.55004,-104.85469 17.32632,-142.94061 3.9483,-13.95424 10.28898,-27.88749 9.90463,-15.23235 -0.18497,6.09002 -3.51151,62.76159 -4.62677,110.37463 -1.11525,47.61303 -4.29722,90.44448 -4.46865,92.96345 l -1.5107,22.19784 c -5.66966,-4.52584 -14.3305,-7.08072 -20.78576,-10.23792 z"
     id="path3041"
     inkscape:connector-curvature="0"
     sodipodi:nodetypes="cssssscc" />
  <path
     style="fill:#666666;fill-opacity:1"
     d="m 318.89682,843.22693 c 8.20887,-90.42495 8.79005,-153.70429 15.06747,-252.49907 1.25796,-1.93086 13.27632,-32.97579 15.89186,-23.80157 0.1881,1.38721 -8.64998,288.0068 -10.40128,284.02688 -5.33246,0.32736 -3.83058,-1.88288 -20.55805,-7.72624 z"
     id="path3043"
     inkscape:connector-curvature="0"
     sodipodi:nodetypes="ccccc" />
  <path
     style="fill:#666666;fill-opacity:1"
     d="m 351.10242,852.84173 c 6.23189,-104.01805 10.56291,-200.7457 10.74577,-299.63453 3.2988,-4.68796 10.10391,-10.1805 15.30456,-11.61539 -6.63237,110.15826 1.66552,227.74631 -1.29897,319.22888 -6.62007,-1.60336 -24.53147,-3.52016 -24.75136,-7.97896 z"
     id="path3045"
     inkscape:connector-curvature="0"
     sodipodi:nodetypes="ccccc" />
  <path
     style="fill:#666666;fill-opacity:1"
     d="m 393.22197,862.67757 c -0.58293,-0.58288 -5.22883,-327.65497 -4.66806,-328.02955 0.89902,-0.60052 16.86714,-5.21657 17.13138,-4.95233 1.6217,106.96056 3.26756,220.45606 6.12076,335.50236 -4.47359,2.17672 -14.03471,-0.6652 -18.58408,-2.52048 z"
     id="path3047"
     inkscape:connector-curvature="0"
     sodipodi:nodetypes="csccc" />
  <path
     style="fill:#666666;fill-opacity:1"
     d="m 430.79671,869.44069 c -0.64615,2.65432 -2.61363,-341.77914 -2.53596,-341.90747 0.18793,-0.31048 25.93223,-0.80721 26.20434,-0.5351 -2.89928,117.37147 5.96101,237.6237 1.02925,343.06345 -7.22524,-0.0456 -17.11091,2.27872 -24.69763,-0.62088 z"
     id="path3049"
     inkscape:connector-curvature="0"
     sodipodi:nodetypes="ccccc" />
  <path
     style="fill:#666666;fill-opacity:1"
     d="m 472.09178,530.36653 c 5.79304,0.99189 11.67313,1.65281 17.42279,2.83111 0.95227,110.62088 7.53269,221.69334 7.53269,332.26225 -6.17283,0.57816 -12.84033,1.07008 -18.10194,1.45616 -2.87807,-118.68838 -3.67204,-233.23835 -6.85354,-336.54952 z"
     id="path3051"
     inkscape:connector-curvature="0"
     sodipodi:nodetypes="ccccc" />
  <path
     style="fill:#666666;fill-opacity:1"
     d="m 513.26747,542.13542 c 6.36164,2.70161 13.38741,4.12086 19.5656,7.22012 0.43872,0.40814 8.43403,306.74235 8.01685,307.15955 -9.80281,3.14 -18.70072,4.89016 -26.8321,7.48648 -0.36145,-117.71473 0.38192,-215.58007 -0.75035,-321.86615 z"
     id="path3053"
     inkscape:connector-curvature="0"
     sodipodi:nodetypes="ccccc" />
  <path
     style="fill:#666666;fill-opacity:1"
     d="m 548.24179,563.88003 15.54201,24.1879 14.832,257.80684 c -6.11426,2.85168 -14.22682,5.21776 -20.2065,7.77136 z"
     id="path3055"
     inkscape:connector-curvature="0"
     sodipodi:nodetypes="ccccc" />
  <path
     style="fill:#666666;fill-opacity:1"
     d="m 581.91207,616.4379 c 25.44775,67.68574 32.3731,150.34041 25.86846,212.79287 -4.02035,1.91056 -7.93786,4.10544 -12.02797,5.84456 -6.20721,-76.394 -8.4112,-152.68417 -13.84049,-218.63743 z"
     id="path3059"
     inkscape:connector-curvature="0"
     sodipodi:nodetypes="cccc" />
</svg>
