<?xml version="1.0" encoding="UTF-8" standalone="no"?>
<svg
   xmlns:dc="http://purl.org/dc/elements/1.1/"
   xmlns:cc="http://creativecommons.org/ns#"
   xmlns:rdf="http://www.w3.org/1999/02/22-rdf-syntax-ns#"
   xmlns:svg="http://www.w3.org/2000/svg"
   xmlns="http://www.w3.org/2000/svg"
   xmlns:sodipodi="http://sodipodi.sourceforge.net/DTD/sodipodi-0.dtd"
   xmlns:inkscape="http://www.inkscape.org/namespaces/inkscape"
   width="861pt"
   height="861pt"
   viewBox="0 0 861 861"
   version="1.1"
   id="svg2"
   inkscape:version="0.91 r13725"
   sodipodi:docname="head.svg">
  <metadata
     id="metadata304">
    <rdf:RDF>
      <cc:Work
         rdf:about="">
        <dc:format>image/svg+xml</dc:format>
        <dc:type
           rdf:resource="http://purl.org/dc/dcmitype/StillImage" />
      </cc:Work>
    </rdf:RDF>
  </metadata>
  <defs
     id="defs302" />
  <sodipodi:namedview
     pagecolor="#ffffff"
     bordercolor="#666666"
     borderopacity="1"
     objecttolerance="10"
     gridtolerance="10"
     guidetolerance="10"
     inkscape:pageopacity="0"
     inkscape:pageshadow="2"
     inkscape:window-width="1839"
     inkscape:window-height="1056"
     id="namedview300"
     showgrid="false"
     inkscape:zoom="2.480869"
     inkscape:cx="316.60665"
     inkscape:cy="613.32657"
     inkscape:window-x="81"
     inkscape:window-y="24"
     inkscape:window-maximized="1"
     inkscape:current-layer="svg2" />
  <path
     fill="transparent"
     d=" M 0.00 0.00 L 861.00 0.00 L 861.00 861.00 L 0.00 861.00 L 0.00 0.00 Z"
     id="path4" />
  <path
     style="fill:#767273"
     d="M 543.125 5.5625 C 531.08154 5.5775153 519.2442 6.1266584 507.8125 7.28125 C 497.78145 19.29343 493.74385 26.81758 490.75 36.15625 C 492.8625 39.11875 496.1625 41.0625 499.875 40.6875 C 614.85534 44.17528 770.26149 136.19553 845.625 228.6875 C 858.0125 221.175 829.60625 152.1125 843.46875 151.375 C 804.36107 101.00588 752.18849 52.675116 691.375 32.53125 C 651.07121 15.696732 595.31334 5.4974338 543.125 5.5625 z "
     id="path8"
     transform="scale(0.8,0.8)" />
  <path
     d="m 391.05,8.99 c 4.65,-1.86 10.03,-2.94 15.19,-3.16 2.95094,0.1760229 -12.1907,20.133553 -13.64,23.09 -1.75,7.67 -10.52,5.14 -16.46,4.04 4.43656,-9.817706 8.23371,-16.61261 14.91,-23.97 z"
     id="path10"
     inkscape:connector-curvature="0"
     style="fill:#302f32"
     sodipodi:nodetypes="ccccc" />
  <path
     d="m 391.05,8.99 c -2.37,2.61 -3.92193,5.810048 -6.17193,8.510048 -10.09,4.95 -21.19807,9.069952 -32.55807,9.819952 18.89668,23.539884 30.91961,23.388204 38.8,34.56 21.74117,15.469622 31.65984,47.20079 2.23884,80.89833 C 376.78468,62.354197 285.78677,92.241428 255.25,109.38 c -12.70573,1.31877 -20.83642,-2.67227 -23.2,-7.62 3.74841,-22.145037 37.79123,-27.545236 38.84,-41.93 22.56886,-18.007941 80.80465,-46.869366 120.16,-50.84 z"
     id="path12"
     inkscape:connector-curvature="0"
     style="fill:#656268"
     sodipodi:nodetypes="ccccccccc" />
  <path
     d="m 352.32,27.32 c 11.36,-0.75 22.69609,-5.44 32.78609,-10.39 -2.36,5.49 -6.30609,10.69 -8.96609,16.03 5.94,1.1 14.71,3.63 16.46,-4.04 1.69,2.37 4.34,3.92 7.31,3.62 76.78261,0.689068 42.3176,113.08506 76.0287,181.18931 -33.87216,5.24351 -62.76449,23.98701 -93.59416,38.69099 -4.00392,-16.17702 -20.03214,-32.0052 -24.49922,-43.13251 10.34459,-1.62471 28.25677,-8.99308 29.66325,-9.02195 14.4141,-9.01556 7.74949,-11.94125 13.20389,-24.52065 C 372.24598,146.59204 428.04162,69.051227 389.37,75.84 383.74,71.08 399.96,66.96 391.12,61.88 372.22903,43.359781 339.95858,33.43107 352.32,27.32 Z"
     id="path14"
     inkscape:connector-curvature="0"
     style="fill:#534f52"
     sodipodi:nodetypes="ccccccccccccc" />
  <path
     d="M 401.1787,32.477042 C 515.23854,36.902898 629.14926,124.15494 676.84,182.86 c 3.3257,-10.43501 -12.86384,-62.55086 -2.9,-63.18 4.56,12.24 21.02,5.39 27.95,7.16 -8.78,4.49 -25.73,-4.05 -22.68,11.98 4.72,15.73 5.19,32.07 3.49,48.26 7.01205,72.77742 25.79164,133.04846 13.84133,129.13299 C 690.14428,320.39727 598.09853,288.71994 592.87,282.99 556.38212,248.04197 491.12003,215.04889 458.72039,216.93922 449.47456,151.70488 432.03101,62.733182 401.1787,32.477042 Z"
     id="path20"
     inkscape:connector-curvature="0"
     style="fill:#423f3e"
     sodipodi:nodetypes="cccccccccc" />
  <path
     d="m 408.73,173.82 c -2.42,4.22 -6.46,8.52 -4.58,13.71 2.86,6.4 -3.42,9.25 -8.29,10.28 -29.73222,17.49281 -41.77887,13.80316 -52.05,13.54 -18.70062,6.25455 -27.07831,10.76617 -50.34,20.11 0.33,-4.67 -2.1,-7.51 4.04,-9 9.30014,-7.40396 33.76071,-18.19767 46.33,-19.63 4.7,-11.65 20.36,-3.94 29.21,-0.87 55.72631,-17.81836 -17.8469,-81.3874 -32.17,-107.86 -7.00287,-9.228484 13.21757,-12.596886 19.74,-18.49 13.11316,-29.356505 60.26835,80.53614 48.11,98.21 z"
     id="path26"
     inkscape:connector-curvature="0"
     style="fill:#77747a"
     sodipodi:nodetypes="ccccccccccc" />
  <path
     d="m 182.68,154.65 c 23.96,-35.7 49.37,-73.51 88.21,-94.82 0,0 1.94308,2.633294 -3.09886,8.481266 C 256.13511,76.38358 235.75,91.31 232.05,101.76 279.10427,96.409855 333.90114,81.220754 354.67,63.71 c 4.67,-7.85 12.68,9.57 5.95,11.9 -7.18426,7.045154 -25.03859,9.681677 -19.74,18.49 37.83394,-0.830162 53.90753,60.60633 53.20727,91.27766 -1.25,9.38 -10.95493,17.64715 -21.03727,16.58234 -8.85,-3.07 -24.51,-10.78 -29.21,0.87 -18.76528,13.40379 -28.61765,7.10626 -46.33,19.63 -6.14,1.49 -3.71,4.33 -4.04,9 -3.88,2.22 -8.24,3.23 -12.69,2.8 -0.93,-8.17 -9.01,0.31 -14.57,0.65 -1.56,-2.53 -2.95,-5.15 -4.36,-7.75 3.91,-1.12 7.97,-3.13 12.09,-1.9 0,0 -16.32542,-73.66156 -47.66,-105.45 -0.42,-9.15 -11.88,-2.58 -13.58,2.76 -0.75065,7.87777 11.71603,37.99159 -7.52,43.69 -6.27731,3.86738 -16.2411,1.72263 -23.64977,-0.73023 C 177.13105,164.74276 180.79,157.41 182.68,154.65 Z"
     id="path28"
     inkscape:connector-curvature="0"
     style="fill:#8a878e"
     sodipodi:nodetypes="ccccccccccccccccccccc" />
  <path
     d="M 329.4174,99.276497 C 338.62547,119.3052 308.86946,258.04662 273.94,225.26 c 5.93884,-5.93342 3.81,-8.51 3.75,-13.82 22.99689,-68.11263 -111.4261,-0.4871 -106.1,18.9 -2.34,6.74 -12.94,8.46 -14.58,16.11 -1,0.56 -2.01,1.12 -3.02,1.67 3.88,-22.76 6.14,-46.02 13.14,-68.09 4.3,-6.3 7.64,-13.39 12.59,-19.18 4.39211,3.73164 19.59914,9.1179 25.46,5.41 6.28513,-2.97753 5.87806,-27.48774 7.52,-43.69 1.7,-5.34 13.16,-11.91 13.58,-2.76 49.60874,9.22945 94.21723,-45.882106 103.1374,-20.533503 z"
     id="path30"
     inkscape:connector-curvature="0"
     style="fill:#9a9aa6"
     sodipodi:nodetypes="cccccccccccc" />
  <path
     d="m 623.7,149.32 c 13.65169,22.53947 51.17115,51.34513 52.33,68.62 14.40961,19.69529 -3.41548,57.35946 2.75,71.26 5.85,2.28 11.88,5.14 11.22,12.84 -3.11,19.93 7.43,39.62 -2.63,58.18 -0.8,9.52 5.09,22.66 -4.47,29.71 -27.89966,48.70624 -53.17976,113.02056 -110.79767,165.60702 -16.85838,-2.34401 -57.27508,11.90167 -64.4543,-1.43687 C 475.25227,513.89224 496.67171,376.61644 483.98,318.98 c 11.985,-9.8994 67.42636,-70.5593 142.1,-143.91 -6.75,-9.36 -23.18,-9.97 -21.06,-24.88 3.08686,-9.91101 5.57368,-22.15207 18.68,-0.87 z"
     id="path46"
     inkscape:connector-curvature="0"
     style="fill:#303031"
     sodipodi:nodetypes="cccccccccccc" />
  <path
     fill="#232223"
     d=" M 679.21 138.82 C 676.16 122.79 693.11 131.33 701.89 126.84 C 703.66 126.79 705.68 126.81 707.06 128.13 C 703.59 138.34 711.76 140.23 720.84 137.94 C 725.88 146.89 714.41 146.44 709.04 149.20 C 709.15 158.20 712.96 166.90 712.83 175.86 C 703.79 187.32 699.75 169.29 689.88 170.45 C 682.43 172.63 687.92 182.96 682.70 187.08 C 684.40 170.89 683.93 154.55 679.21 138.82 Z"
     id="path40" />
  <path
     fill="#5e5d5c"
     d=" M 707.06 128.13 C 713.95 127.13 722.23 129.79 720.84 137.94 C 711.76 140.23 703.59 138.34 707.06 128.13 Z"
     id="path42" />
  <path
     d="m 268.65,132.14 c -11.18142,27.66399 27.64626,50.20907 33.43,49.77 -2.69,13.27 -14.28,21.06 -24.39,29.53 0.06,5.31 4.07,12.96 -3.75,13.82 -4.12,-1.23 -8.18,0.78 -12.09,1.9 -5.73,-9.07 -9.22,-19.87 -16.2,-27.94 -5.95,-0.37 -11.68212,7.53811 -17.18212,9.41811 -7.94167,7.0994 -11.59789,7.30336 -25.25788,17.51189 -5.59,7.02 -19.45,7.75 -14.62,19.53 8.81303,15.98923 25.7823,14.09629 12.33,30.21 -3.04,6.67 8.83,11.92 4.33,18.22 -2.18,5.62 -2.7,11.63 -2.66,17.6 -2.16,7.27 -16.02,5.57 -13.64,15.24 3.33,7.69 24.07,-4.88 18.35,6.97 11.57,2.37 4.21,13.27 -3.22,16.18 -6.21,3.31 -12.82,9.95 -7.72,16.9 -0.57,0.32 -1.7,0.98 -2.27,1.31 -0.65,-0.89 -1.34,-1.74 -2.06,-2.56 -2.39,-0.48 -4.78,-0.68 -7.14,-1.2 7.21,-4.91 4.8,-15.32 2.78,-21.82 7.51,-3.79 5.26,-13.32 -3.95,-12.59 -9.59,-12.87 -1.56,-30.21 -2.01,-44.82 -1.75,-5.93 -10.78,-5.16 -11.58,-11.58 -2.53,-5.99 2.02,-10.98 4.73,-15.83 -2.94,-5.47 -9.09,-10.06 -7.29,-17.09 -3.53,1.86 -6.78,4.28 -10.56,5.63 1.64,-7.65 12.24,-9.37 14.58,-16.11 -6.65,-17.72 1.13,-36.16 10,-51.74 12.61237,-3.27268 19.07634,-6.77347 30.39,-12.59 5.3077,-32.46926 33.36712,-26.95428 56.67,-33.87 z"
     id="path44"
     inkscape:connector-curvature="0"
     style="fill:#a5b0c3"
     sodipodi:nodetypes="cccccccccccccccccccccccccccccc" />
  <path
     d="m 617.46,242.45 c 7.663,11.34616 10.03975,28.4943 13.97,26.15 4.5937,5.88899 6.74475,15.29333 5.25,21.74 0.57,15.3 6.91,29.21 5.21,44.79 -7.78,-4.86 -6.93,-16.21 -13.78,-22.15 -13.48946,-14.13661 -14.89038,-22.07754 -18.45,-27.75 -74.34091,-157.82868 32.81215,-89.58445 7.8,-42.78 z"
     id="path52"
     inkscape:connector-curvature="0"
     style="fill:#666d6e"
     sodipodi:nodetypes="ccccccc" />
  <path
     d="m 682.7,187.08 c 5.22,-4.12 -0.27,-14.45 7.18,-16.63 9.87,-1.16 13.91,16.87 22.95,5.41 13.68247,100.42211 12.19129,206.98865 13.15,300.14 0.78,4.93 -1.87,11.08 1.71,15.29 2.19,7.02 4.51,14.18 5.31,21.58 -2.67,0.01 -5.32,0.09 -7.95,0.24 -0.17,19.97 -0.01,39.94 0,59.92 0.82,6.16 -7.96,4.52 -11.67,6.42 -7.89,2.97 -7.12,-9.08 -8.47,-14.33 -0.66,-6.36 2.14,-17.03 -7.78,-16.78 19.92539,-111.68386 2.30356,-220.0108 -15.45,-328.12 -3.96,-9.31 2.72,-21.54 -0.35,-29.37 0.35,-1.29 0.85,-2.53 1.37,-3.77 z"
     id="path60"
     inkscape:connector-curvature="0"
     style="fill:#0e0e0e"
     sodipodi:nodetypes="cccccccccccccc" />
  <path
     d="m 125.87,258.83 c 9.01,-28.08 17.33,-59.72 41.26,-78.8 -7,22.07 -9.26,45.33 -13.14,68.09 -6.1,3.49 -11.99,7.32 -17.99,10.96 -7.62938,3.76637 -2.57406,11.3634 -10.91,12.07 0.07,-4.12 0.42,-8.22 0.78,-12.32 z"
     id="path66"
     inkscape:connector-curvature="0"
     style="fill:#26252c"
     sodipodi:nodetypes="cccccc" />
  <path
     d="m 245.65,199.22 c 8.95874,11.94144 13.49592,24.17246 20.56,35.69 5.56,-0.34 13.64,-8.82 14.57,-0.65 22.1,6.84 65.26261,14.39584 82.32832,19.86766 -1.93904,11.48601 7.43853,9.0823 6.50259,15.56545 33.82594,9.9411 -58.44625,176.30153 -45.43091,200.16689 25.90923,16.86511 49.26472,11.48454 68.12,23.89 3.95,3.66 -4.58,7.97 0.62,11.55 -10.83484,3.85946 -3.50732,23.06547 2.78,23.74 l 0.6,0.55 c -0.36272,3.96531 7.34434,17.10251 -1.88,17.01 -4.50176,-5.89803 -9.70527,-12.1911 -13.38,-17.72 -11.68,-1.2 1.71,-3.45 3.96,-7.11 -22.29567,-5.71555 -70.89249,-41.97266 -85.68912,-75.95766 C 295.3027,449.80637 298.79,459.22 294.29,464.33 c -4.88,2.89 -8.22,-4.41 -11.39,-7.37 -6.53,-14.67 -14.43,-29.38 -20.09,-43.77 1.89416,-72.13808 18.21849,-89.41698 68.36,-120.22 -20.79529,6.06168 -15.29691,-27.17893 -28.63,-35.58 -7.35,-9.26 -14.73,-22.9 -28.48,-21.55 4.74354,28.42329 -1.75241,12.84569 24.01,62.25 -4.35,5.91 -12.28,7.55 -17.99,11.87 -0.46,-15.5 -13.57,-26.36 -19.04,-40.19 -7.94,-17.37 -19.55,-33.21 -25.47,-51.37 -2.72,-3.07 -5.16,-6.37 -7.8,-9.51 5.79856,-3.17267 13.03391,-10.88494 17.88,-9.67 z"
     id="path72"
     inkscape:connector-curvature="0"
     style="fill:#2d3237"
     sodipodi:nodetypes="cccccccccccccccccccccccccc" />
  <path
     d="m 227.77,208.89 c -3.86,21.69 22.35,32.61 22.31,53.03 -9.87,-2.42 -6.88,-16.66 -18.29,-15.98 6.62,5.02 11.26,15.59 8.34,21.96 -2.92,-7.27 -9.42,-7.52 -13.19,-0.95 -0.02,13.16 -6.21,25.35 -7.59,38.4 -7.22,6 -14.87,11.96 -20.55,19.67 6.11,5.8 15.01,-1.78 22.31,-2.88 -1.81,5.4 -0.91,8.47 5.89,7.11 -1.08,15.15 -20.62,18.17 -28.24,29.77 6.83,1.93 1.65,5.6 -2.4,7.98 -5.1,-6.95 1.51,-13.59 7.72,-16.9 7.43,-2.91 14.79,-13.81 3.22,-16.18 5.72,-11.85 -15.02,0.72 -18.35,-6.97 -2.38,-9.67 11.48,-7.97 13.64,-15.24 -0.04,-5.97 0.48,-11.98 2.66,-17.6 4.5,-6.3 -7.37,-11.55 -4.33,-18.22 9.11031,-21.79526 -10.20066,-17.03622 -12.33,-30.21 -4.83,-11.78 9.03,-12.51 14.62,-19.53 11.12427,-8.03964 23.16821,-16.11569 24.56,-17.26 z"
     id="path74"
     inkscape:connector-curvature="0"
     style="fill:#98a5af"
     sodipodi:nodetypes="cccccccccccccccccccc" />
  <path
     d="m 250.08,261.92 c 0.04,-20.42 -26.17,-31.34 -22.31,-53.03 2.64,3.14 5.08,6.44 7.8,9.51 5.92,18.16 17.53,34 25.47,51.37 1.98,12.2 10.63,22.67 15.44,33.85 0.91,9.53 -12.55,11.85 -18.43,16.47 -7.56,4.15 -14.08,9.88 -20.9,15.1 -3.02,2.03 -6.16,3.86 -9.37,5.55 -5.33,2.71 -9.69,7.01 -15.28,9.35 6.51645,19.49352 -5.6429,14.89317 -17.12,20.41 -0.32,-0.55 -0.96,-1.64 -1.29,-2.19 0.57,-0.33 1.7,-0.99 2.27,-1.31 4.05,-2.38 9.23,-6.05 2.4,-7.98 7.62,-11.6 27.16,-14.62 28.24,-29.77 -6.8,1.36 -7.7,-1.71 -5.89,-7.11 -7.3,1.1 -16.2,8.68 -22.31,2.88 5.68,-7.71 13.33,-13.67 20.55,-19.67 1.38,-13.05 7.57,-25.24 7.59,-38.4 3.77,-6.57 10.27,-6.32 13.19,0.95 2.92,-6.37 -1.72,-16.94 -8.34,-21.96 11.41,-0.68 8.42,13.56 18.29,15.98 z"
     id="path76"
     inkscape:connector-curvature="0"
     style="fill:#8c98a0"
     sodipodi:nodetypes="ccccccccccccccccccccc" />
  <path
     d="m 380.52107,204.96547 c -18.07922,11.83501 19.63168,31.28589 0.2248,42.65012 -47.58031,24.1678 -86.19233,-8.81589 -99.96587,-13.35559 58.94541,-26.25245 79.31332,-27.11133 99.74107,-29.29453 z"
     id="path78"
     inkscape:connector-curvature="0"
     style="fill:#57555a"
     sodipodi:nodetypes="cccc" />
  <path
     d="m 458.9,217.15818 c 10.71041,8.93142 8.2071,74.37564 6.2,82.82182 -7.71303,1.80729 -70.07205,-25.44675 -96.97,-25.81 3.04,-2.53 1.95,-11.74 6.96,-8.27 3.44,4.13 -4.76079,6.20455 -9.13079,-0.33545 -19.38833,-13.59357 16.65933,-17.16096 31.87079,-22.62455 5.6774,-1.09503 34.92483,-22.63334 61.07,-25.78182 z"
     id="path80"
     inkscape:connector-curvature="0"
     style="fill:#2c2d32"
     sodipodi:nodetypes="ccccccc" />
  <path
     d="M 459.54494,216.83571 C 484.37433,210.12905 572.6402,257.8658 592.87,282.99 c 3.02,8.11 8.06,15.6 7.81,24.7 -3.38,6.18 -9.24,-3.29 -12.01,-6.37 -8.26,-3.06 -15.81,12.59 -24.43,7.62 -8.98587,4.06831 -16.0654,-0.34961 -28.72,-9.15 0.29,10.28 -12.25,10.95 -19.54,12.16 -15.10689,23.1776 -15.95386,9.15311 -32,7.03 -0.12,6.67 7.07,10.38 10.85,15.24 8.46,5.89 13.88,13.88 23.13,19 -0.4,6.94 -3.9,13.27 -8.08,18.67 -3.02,3.9 -4.47,13.78 2.13,15.1 -10.13796,13.97474 6.85891,21.98199 5.56,29.6 -1.5,5.26 -2.56,10.63 -2.65,16.13 -3.24,2.05 -6.97,4.17 -8.05,8.15 -0.7,2.25 -1.01,4.62 -0.79,6.97 2.56801,13.93265 -37.37685,57.50908 -59.53,68.64 -16.31,-0.08 -23.82,15.22 -35.06,24.05 -4.93,2.59 -0.66,-6.44 -1.9,-8.17 -1.54,-5.8 -9.84,-2.21 -13.89,-3.32 -22.96702,9.69402 -47.50623,-144.05568 -41.50059,-210.83797 2.91531,-0.20784 6.26407,-39.09535 8.77111,-40.32365 14.86567,-24.35987 79.69263,19.88235 102.12948,22.10162 3.13813,-32.95169 0.21028,-47.26085 -5.55506,-83.14429 z"
     id="path82"
     inkscape:connector-curvature="0"
     style="fill:#1e1d1e"
     sodipodi:nodetypes="cccccccccccccccccccccccc" />
  <path
     d="m 352.34,224.33 c 3.18,-7.6 14.39,-6.84 19.83,-2.34 3.64145,7.36711 3.38504,6.5676 2.84,12.1 -1.57,3.49 -3.84,6.71 -6.8,9.14 -10.82,4.47 -21.73,-9.21 -15.87,-18.9 z"
     id="path84"
     inkscape:connector-curvature="0"
     style="fill:#afb3af"
     sodipodi:nodetypes="ccccc" />
  <path
     fill="#5f5e5b"
     d=" M 359.38 222.24 C 362.36 220.23 367.95 222.79 366.86 226.59 C 360.52 227.23 361.36 235.89 366.95 237.29 C 359.34 246.43 346.97 226.33 359.38 222.24 Z"
     id="path86" />
  <path
     d="m 268.23,242.73 c 0.99823,-22.1879 30.13721,1.03783 34.31,14.66 16.87806,9.68265 5.81577,32.12141 28.63,35.58 -15.62068,12.86716 -33.63382,43.38828 -51.18565,49.48591 1.05,-5.19 4.78617,-9.30954 3.02565,-11.67591 -9.93,4.49 -15.77,-15.98 -21.8,-5.57 -2.37,0.62 -4.89,0.81 -7.55,0.59 8.8,-5.28 17.97,-9.98 26.42,-15.84 5.71,-4.32 13.64,-5.96 17.99,-11.87 -14.19164,-16.67922 -17.67806,-41.53525 -29.84,-55.36 z"
     id="path88"
     inkscape:connector-curvature="0"
     style="fill:#1a1b1d"
     sodipodi:nodetypes="cccccccccc" />
  <path
     fill="#b4c8dd"
     d=" M 157.01 246.45 C 160.79 245.10 164.04 242.68 167.57 240.82 C 165.77 247.85 171.92 252.44 174.86 257.91 C 172.15 262.76 167.60 267.75 170.13 273.74 C 170.93 280.16 179.96 279.39 181.71 285.32 C 182.16 299.93 174.13 317.27 183.72 330.14 C 192.93 329.41 195.18 338.94 187.67 342.73 C 189.69 349.23 192.10 359.64 184.89 364.55 C 168.22 348.11 160.75 324.20 148.73 304.28 C 142.78 293.13 136.64 281.93 131.61 270.34 C 130.03 266.12 130.71 259.82 136.00 259.08 C 142.00 255.44 147.89 251.61 153.99 248.12 C 155.00 247.57 156.01 247.01 157.01 246.45 Z"
     id="path90" />
  <path
     d="m 136,259.08 c -5.29,0.74 -5.97,7.04 -4.39,11.26 17.98628,30.9126 29.48379,62.72008 53.28,94.21 2.36,0.52 -0.73195,-5.08442 7.14,1.2 8.3913,14.51104 -10.64187,14.16541 -14.06434,6.73632 C 168.126,357.78104 156.97177,346.17848 151.95,340.89 141.52463,291.68054 94.755582,272.69608 136,259.08 Z"
     id="path94"
     inkscape:connector-curvature="0"
     style="fill:#396b63"
     sodipodi:nodetypes="ccccccc" />
  <path
     fill="#707976"
     d=" M 261.04 269.77 C 266.51 283.60 279.62 294.46 280.08 309.96 C 271.63 315.82 262.46 320.52 253.66 325.80 C 248.33 329.24 242.90 332.52 237.15 335.19 C 243.97 329.97 250.49 324.24 258.05 320.09 C 263.93 315.47 277.39 313.15 276.48 303.62 C 271.67 292.44 263.02 281.97 261.04 269.77 Z"
     id="path96" />
  <path
     d="m 451.88,338.18 c 10.71,10.82 12.43,28.96 20.05,43.11 2.38,-3.3 8.73,-5.9 6.47,-10.66 -4.79,-6.36 -0.83,-11.52 5.78,-13.64 10.05,18.14 15.86,39.97 11.41,60.55 -6.88353,41.26049 -20.3144,2.52532 -22.83,6.2 -15.12231,102.37737 -99.00811,80.95287 -148.58,46.12 C 292.33,440.01 285.3,389.12 307.8,351.8 347.36538,293.14944 416.59893,318.42619 451.88,338.18 z"
     id="path98"
     inkscape:connector-curvature="0"
     style="fill:#24262c"
     sodipodi:nodetypes="ccccccccc" />
  <path
     d="m 122.69802,283.16179 c 23.95673,24.99295 30.00596,56.46127 29.25198,57.72821 -1.58,0.28 -3.79,-0.38 -4.9,1.03 -5.42,9.48 -9.76,19.57 -13.11,29.97 -3.69,5.81 -10.97,1.7 -10.45,-4.3 -3.59028,-27.3243 -3.56,-61.23441 -0.79198,-84.42821 z"
     id="path100"
     inkscape:connector-curvature="0"
     style="fill:#22252c"
     sodipodi:nodetypes="cccccc" />
  <path
     d="m 655.78,286.26 c 4.67,5.05 -11.37,8.3 -4.51,14.42 -2.34881,12.64066 16.17381,33.21465 13.14,40.54 -21.58041,12.14883 10.39113,12.70964 10.32,17.93 -9.58214,17.58644 -12.91966,40.20935 -20.95,46.47 -1.30789,-36.05513 -26.42296,-74.89985 -54.54169,-97.19051 1.13,-3.62 -8.45624,-29.14053 -5.15624,-23.62053 52.72173,51.97939 25.94437,13.28392 61.69793,1.45104 z"
     id="path102"
     inkscape:connector-curvature="0"
     style="fill:#414449"
     sodipodi:nodetypes="cccccccc" />
  <path
     id="path106"
     transform="scale(0.8,0.8)"
     style="fill:#4d4d4d"
     d="m 862.5,377.55078 c -3.8875,24.9125 9.28789,49.52461 -3.28711,72.72461 -1,11.9 6.36211,28.32422 -5.58789,37.13672 -37.87103,65.64052 -67.89265,137.36358 -111.49023,169.11914 -16.10562,-18.94014 -25.60204,-10.44173 -38.64649,-24.36914 -7.975,1.7625 -16.16328,2.77461 -24.30078,1.47461 -12.89575,13.73327 43.76429,51.22536 -11.59961,99.85156 -0.47746,0.353 101.13924,134.90286 48.69922,254.125 58.94547,-64.0439 138.08789,-167.52732 151.92578,-268.375 4.52343,-28.5735 10.56043,-73.04563 15.86779,-130.36328 5.80928,-54.32311 -5.696,-101.69345 -7.01892,-154.09267 9.1,-24.775 -8.41176,-33.24405 -14.56176,-57.23155 z"
     inkscape:connector-curvature="0"
     sodipodi:nodetypes="cccccccccccc" />
  <path
     d="m 589.02,311.97 c 3.99763,39.01953 23.70535,123.86183 12.08539,130.81462 -12.38732,2.08621 -31.77942,10.75911 -51.83955,5.081 C 529.8402,430.6161 529.5905,339.36248 521.65545,320.37818 526.6602,315.40726 583.13924,307.97278 589.02,311.97 Z"
     id="path108"
     inkscape:connector-curvature="0"
     style="fill:#426853"
     sodipodi:nodetypes="ccccc" />
  <path
     d="m 533.89012,471.89949 c -31.18762,42.30663 -88.48284,93.7588 -139.53996,74.75148 -10.04395,-3.73912 1.86124,-13.1471 1.34984,-17.61097 4.05,1.11 12.35,-2.48 13.89,3.32 1.24,1.73 -3.03,10.76 1.9,8.17 11.24,-8.83 18.75,-24.13 35.06,-24.05 19.62813,-13.79638 61.17885,-49.68418 59.53,-68.64 1.54,2.15 3.17,4.25 5.02,6.16 14.81,10.25 24.08,-25.37 3.82,-21.28 0.09,-5.5 1.15,-10.87 2.65,-16.13 -15.74934,-10.75026 -8.94175,-28.73181 -5.56,-29.6 22.50398,6.59663 19.81974,-4.48779 7.81,-15.91 9.07569,-9.76507 -1.01495,-15.87459 7.27805,-26.56012 7.17115,81.93298 11.5394,75.90195 6.79207,127.37961 z"
     id="path110"
     inkscape:connector-curvature="0"
     style="fill:#404744"
     sodipodi:nodetypes="cscccccccccccc" />
  <path
     d="m 400.38,321.45208 c 68.8525,24.76652 90.21378,81.86268 40.35,146.25792 -11.14,-0.85 -6.63727,-7.71188 -5.27072,-8.3698 50.18934,-70.39804 13.23457,-114.47766 -36.92117,-130.15319 -0.96,-2.1 0.44189,-7.04493 1.84189,-7.73493 z"
     id="path112"
     inkscape:connector-curvature="0"
     style="fill:#393d46"
     sodipodi:nodetypes="ccccc" />
  <path
     d="m 261.21,325.21 c 6.03,-10.41 11.87,10.06 21.8,5.57 2.08,2.78 -1.19,5.65 -2,8.24 -10.35,23.41 -17.56,48.41 -18.2,74.17 -10.96729,-3.56702 -28.27142,-19.11373 -35.6,-9 1.51,-5.04 0.83,-10.54 3.46,-15.26 -4.18,-10.82 -14.44,-15.02 -25.09,-16.99 13.28,-2.15 24.83,10.94 38.14,6.83 4.13,-5.79 8.06,-16.9 0.26,-21.68 -6.44,-1.38 -8.8,-7.85 -12.14,-12.74 4.57,0.69 10.98,-0.16 12.26,-5.4 3.43,-4.23 5.7,8.84 8.52,3.61 1.59,-5.51 0.19,-11.21 1.04,-16.76 2.66,0.22 5.18,0.03 7.55,-0.59 z"
     id="path114"
     inkscape:connector-curvature="0"
     style="fill:#5b5351"
     sodipodi:nodetypes="cccccccccccccc" />
  <path
     fill="#272121"
     d=" M 237.15 335.19 C 242.90 332.52 248.33 329.24 253.66 325.80 C 252.81 331.35 254.21 337.05 252.62 342.56 C 249.80 347.79 247.53 334.72 244.10 338.95 C 242.82 344.19 236.41 345.04 231.84 344.35 C 229.10 344.18 225.74 344.25 227.78 340.74 C 230.99 339.05 234.13 337.22 237.15 335.19 Z"
     id="path116" />
  <path
     d="M 352.61666,336.8027 C 380.4115,325.61157 411.0576,332.07155 433.6,350.41 c 29.48,24.3 25.32,70.84 3.34,98.56 -32.81834,38.70573 -85.08711,32.0792 -113.26597,3.04542 -32.65298,-49.9636 -13.06928,-96.89514 28.94263,-115.21272 z"
     id="path118"
     inkscape:connector-curvature="0"
     style="fill:#101011"
     sodipodi:nodetypes="ccccc" />
  <path
     d="m 151.95,340.89 c 21.70347,11.17306 14.97262,20.79559 27.61179,31.48232 -1.58,1.32 -0.58179,-1.03209 -2.01179,0.45768 -2.64,-1.4 -5.26,0.56 -7.99,0.34 1.73238,-12.55701 -6.65829,-8.32228 -15.79,-23.32 -4.53,9.95 0.95,21.02 3.43,30.3 -4.89,10.85 2.67,25.7 -6.11,34.42 -4.02,-0.79 -6.16,3.53 -9.28,5.28 -6.06,5.48 -3.10382,15.99981 3.11,21.26 3.78,1.28 7.15,5.37 11.1,2.26 9.85,15.68 4.52,35.28 8.37,53.04 -0.37,2.53 2.64,6.35 -0.38,7.76 -7.79,-11.21 -15.45,-23.11 -19.9,-36.2 -16.9,-39.44 -11.98,-85.69 7.56,-123.27 1.9,-3.54 -2.39,-2.63 -4.62,-2.78 1.11,-1.41 3.32,-0.75 4.9,-1.03 z"
     id="path120"
     inkscape:connector-curvature="0"
     style="fill:#5b626f"
     sodipodi:nodetypes="cccccccccccccccc" />
  <path
     d="m 212.5,350.09 c 5.59,-2.34 9.95,-6.64 15.28,-9.35 -2.04,3.51 1.32,3.44 4.06,3.61 3.34,4.89 5.7,11.36 12.14,12.74 7.8,4.78 3.87,15.89 -0.26,21.68 -13.31,4.11 -24.86,-8.98 -38.14,-6.83 -1.39,0.28 -2.61,1 -3.85,1.64 -3.63,-0.21 -7.24,-0.64 -10.87,-0.66 1.6,-0.63 3.13,-1.42 4.52,-2.42 5.32973,-3.06899 21.38934,-6.68495 17.12,-20.41 z"
     id="path122"
     inkscape:connector-curvature="0"
     style="fill:#826772"
     sodipodi:nodetypes="cccccccccc" />
  <path
     fill="#b2b2bc"
     d=" M 147.05 341.92 C 149.28 342.07 153.57 341.16 151.67 344.70 C 132.13 382.28 127.21 428.53 144.11 467.97 L 144.07 468.91 C 142.17 469.08 139.35 469.56 139.00 466.98 C 134.96 448.43 126.89 430.43 127.23 411.26 C 128.36 397.97 129.72 384.63 133.94 371.89 C 137.29 361.49 141.63 351.40 147.05 341.92 Z"
     id="path124" />
  <path
     fill="#5a5a5b"
     d=" M 366.01 347.05 C 388.10 338.70 414.71 346.74 428.79 365.59 C 426.20 367.48 427.84 369.83 429.27 371.89 C 413.85 363.35 398.63 349.33 379.30 352.44 C 358.76 355.33 334.71 367.33 332.01 390.14 C 328.84 398.39 328.79 407.30 328.96 416.02 C 322.21 389.62 338.21 356.14 366.01 347.05 Z"
     id="path126" />
  <path
     d="m 157.2,380.15 c -2.48,-9.28 -7.96,-20.35 -3.43,-30.3 8.14431,12.25642 21.56568,14.08729 15.79,23.32 -5.99,5.76 -2.3,19.75 -1.39,28.69 -1.57,11.87 16.19,10.26 14.7,22.31 -10.72,3.59 -4.6,-9.48 -13.67,-8.94 -6.26,-2.13 -6.86,6.48 -12.85,2.47 -2.76,-1.19 -4.1,-0.72 -2.34,2.12 -4.05,-0.52 -8.22,-1.25 -12.2,0.03 3.12,-1.75 5.26,-6.07 9.28,-5.28 8.78,-8.72 1.22,-23.57 6.11,-34.42 z"
     id="path128"
     inkscape:connector-curvature="0"
     style="fill:#8a93a4"
     sodipodi:nodetypes="ccccccccccc" />
  <path
     d="m 332.01,390.14 c 2.7,-22.81 26.75,-34.81 47.29,-37.7 19.33,-3.11 34.55,10.91 49.97,19.45 3.95,5.67 14.60416,25.51117 5.85273,40.16286 -1.42,12.03 -20.56221,-4.94623 -18.23273,-23.06286 -8.92,-30.39 -53.27,-34.38 -70.68,-10.15 -6.08,-4.67 -11.91,6.04 -14.2,11.3 z"
     id="path130"
     inkscape:connector-curvature="0"
     style="fill:#8a8c83"
     sodipodi:nodetypes="ccccccc" />
  <path
     d="m 416.89,388.99 c -0.51,9.14 3.47,22.14 13.15,25.08 9.03,-3.41 10.02,-15.1 7.34,-23.3 -1.89,-6.59 -4.16,-13.21 -8.11,-18.88 -1.43,-2.06 -3.07,-4.41 -0.48,-6.3 12.26,14 16.65,38.08 10.25,54.2 -0.1,-0.49 -0.3,-1.47 -0.41,-1.96 -3.51,8.55 -6.96,17.8 -13.76,24.17 -17.08808,-3.33917 -36.29191,3.01762 -50.54,1.1 -21.05266,-3.29695 -38.27205,-20.43677 -34.03,-49.88 10.38716,-45.43359 68.82168,-35.59354 76.59,-4.23 z"
     id="path134"
     inkscape:connector-curvature="0"
     style="fill:#2a2b2e"
     sodipodi:nodetypes="ccccccccccc" />
  <path
     d="m 628.05,366.5 c 5.15,6.2 17.16,13.39 4.82,20.48 -0.58,-1.36 -1.13,-2.73 -1.83,-4.02 -5.68223,-9.07868 -14.60951,-15.56292 -22.91,-8.88 -0.75,-10.2 13.7,-3.72 19.92,-7.58 z"
     id="path138"
     inkscape:connector-curvature="0"
     style="fill:#494f5a"
     sodipodi:nodetypes="ccccc" />
  <path
     fill="#4a4b5c"
     d=" M 123.49 367.59 C 122.97 373.59 130.25 377.70 133.94 371.89 C 129.72 384.63 128.36 397.97 127.23 411.26 C 124.81 396.91 123.40 382.05 123.49 367.59 Z"
     id="path140" />
  <path
     d="m 373.33,369.43 c 36.92725,7.19492 27.38025,64.92483 -0.2,65.31 -40.44111,-6.22382 -31.83671,-65.30546 0.2,-65.31 z"
     id="path142"
     inkscape:connector-curvature="0"
     style="fill:#101010"
     sodipodi:nodetypes="ccc" />
  <path
     d="m 519.82,371.08 c 21.48365,14.60927 13.4699,23.6137 -7.81,15.91 -10.83687,-8.88424 -1.1611,-15.55281 7.81,-15.91 z"
     id="path144"
     inkscape:connector-curvature="0"
     style="fill:#7d8184"
     sodipodi:nodetypes="ccc" />
  <path
     d="m 169.56,373.17 c 2.73,0.22 5.35,-1.74 7.99,-0.34 3.95,3.03 9.05,1.64 13.31,0.09 3.63,0.02 7.24,0.45 10.87,0.66 15.39,7.15 16.52,29.67 3.12,39.46 3.23,2.2 8.77,2.48 12.1,-0.26 6.85,-1.24 3.11,7.45 2.39,11.59 -1.21,7.47 -20.32,4.07 -8.69,8.57 12.68,9.48 11.05,31.65 -3.91,38.02 5.25,0.05 11.1,-0.34 15.18,-4.05 8.44,-3.93 3.93,6.37 0.64,9.69 -4.71,2.79 -10.54,1.48 -15.49,3.59 6.02,11.17 -10.76,16.88 -9.22,26.96 104.30907,105.15658 185.79954,270.44135 94.39973,221.59195 C 242.30728,709.74445 187.0886,583.42726 177.45,551.32 c -2.32,-10 -2.02,-21.71 -7.48,-30.55 9.1,-17.57 -7.08,-37.64 -2.71,-56.45 0.18,-12.34 6.79,-26.01 16.39,-30.98 1.167,-3.30527 -0.49966,-6.7834 -0.78,-9.17 1.49,-12.05 -16.27,-10.44 -14.7,-22.31 -0.91,-8.94 -4.6,-22.93 1.39,-28.69 z"
     id="path146"
     inkscape:connector-curvature="0"
     style="fill:#b1b4c1"
     sodipodi:nodetypes="ccccccccccccccccccccc" />
  <path
     fill="#332e2f"
     d=" M 201.73 373.58 C 202.97 372.94 204.19 372.22 205.58 371.94 C 216.23 373.91 226.49 378.11 230.67 388.93 C 228.04 393.65 228.72 399.15 227.21 404.19 C 224.18 407.48 220.33 409.87 216.95 412.78 C 213.62 415.52 208.08 415.24 204.85 413.04 C 218.25 403.25 217.12 380.73 201.73 373.58 Z"
     id="path148" />
  <path
     d="m 608.13,374.08 c 12.82298,-5.93658 16.69123,-0.17393 22.91,8.88 -4.41,1.78 -6.98,-3.8 -11.2,-4.07 4.36,5.03 -0.46,19.46 7.15,19.16 -4.35,4.36 -8.92,8.95 -14.91,10.93 -21.1393,-6.86275 -15.09151,-26.4838 -3.95,-34.9 z"
     id="path150"
     inkscape:connector-curvature="0"
     style="fill:#72848d"
     sodipodi:nodetypes="cccccc" />
  <path
     d="m 189.41,376.34 c 20.51,-5.83 30.37,27.71 10.52,34.61 -22.75131,3.42391 -27.95718,-29.15383 -10.52,-34.61 z"
     id="path152"
     inkscape:connector-curvature="0"
     style="fill:#383334"
     sodipodi:nodetypes="ccc" />
  <path
     fill="#96a3b4"
     d=" M 332.01 390.14 C 334.30 384.88 340.13 374.17 346.21 378.84 C 343.68 383.38 341.53 388.16 340.30 393.22 C 339.98 391.97 340.40 388.32 338.69 390.84 C 331.82 400.29 330.08 413.18 335.04 423.98 C 336.31 426.67 337.55 429.65 335.09 432.09 C 331.97 427.75 330.03 421.51 328.96 416.02 C 328.79 407.30 328.84 398.39 332.01 390.14 Z"
     id="path154" />
  <path
     d="m 619.84,378.89 c 4.22,0.27 6.79,5.85 11.2,4.07 1.82618,3.08 1.92821,1.61962 1.64821,4.71962 -0.49,2.21 -4.13821,8.75038 -5.69821,10.37038 -7.61,0.3 -2.79,-14.13 -7.15,-19.16 z"
     id="path156"
     inkscape:connector-curvature="0"
     style="fill:#bbc6d1"
     sodipodi:nodetypes="ccccc" />
  <path
     fill="#b0c6d3"
     d=" M 609.32 381.29 C 610.81 382.85 605.08 395.59 612.90 399.99 C 603.16 407.04 601.62 385.68 609.32 381.29 Z"
     id="path158" />
  <path
     fill="#3f4350"
     d=" M 486.31 382.23 C 495.79 388.67 496.00 407.06 491.73 417.70 C 487.92 423.82 483.01 414.36 482.30 410.82 C 479.53 401.76 475.99 387.34 486.31 382.23 Z"
     id="path160" />
  <path
     fill="#4e535e"
     d=" M 630.18 392.24 C 630.65 390.51 631.34 388.83 632.79 387.69 C 630.33 393.53 631.64 400.57 638.13 393.95 C 644.88 397.36 637.70 401.82 635.07 405.11 C 631.33 414.24 620.65 410.48 613.50 410.19 C 613.14 409.89 612.44 409.28 612.08 408.98 C 618.07 407.00 622.64 402.41 626.99 398.05 C 628.55 396.43 629.69 394.45 630.18 392.24 Z"
     id="path164" />
  <path
     d="m 338.69,390.84 c 1.71,-2.52 1.29,1.13 1.61,2.38 -3.0874,16.06025 5.43994,35.79037 18.71,44 4.63,3.05 10.11,4.21 15.32,5.88 -3.74,7.64 -13.46,6.8 -20.52,7.18 5.87,5.05 13.18,7.48 20.53,9.46 -1.8,0.15 -3.59,0.26 -5.38,0.33 -14.61,-3.91 -27.51,-14.16 -33.87,-27.98 2.46,-2.44 1.22,-5.42 -0.05,-8.11 -4.96,-10.8 -3.22,-23.69 3.65,-33.14 z"
     id="path168"
     inkscape:connector-curvature="0"
     style="fill:#c3d8eb"
     sodipodi:nodetypes="cccccccccc" />
  <path
     d="m 262.81,413.19 c 5.66,14.39 13.56,29.1 20.09,43.77 7.50394,6.29648 -3.59203,61.74044 -39.79,51.16 25.16292,4.6864 35.98426,-0.60909 31.72617,19.71617 -8.06595,41.3484 -21.85997,8.03822 -37.17617,25.50383 3.58,8.89 14.48,13.09 16.33,22.77 -6.09,-5.47 -11.51,-11.6 -17.14,-17.51 1.24,-8.52 -10.04,-8.73 -8.96,-16.7 4.28,-6.11 -6.99,-8.61 -10.85,-12 -5.22,-9.21 -9.55,-19.06 -13.11,-29.02 10.34,7.76 24.58,-3.81 34.63,4.68 3.47,-7.84 16.35,0.44 20.48,-6.6 -3.34,-7.97 -10.99,-14.19 -11.28,-23.65 -0.14,-11.47 -12.5,-13.96 -21.71,-12.3 8.69,-3.46 3.09,-16.37 11.81,-17.58 3.04,-12.9 -12.45,-7.12 -17.78,-13.47 -2.82,-3.33 -7,-1.83 -9.43,0.98 -11.63,-4.5 7.48,-1.1 8.69,-8.57 0.72,-4.14 4.46,-12.83 -2.39,-11.59 3.38,-2.91 7.23,-5.3 10.26,-8.59 6.6636,-10.46233 25.29551,5.46303 35.6,9 z"
     id="path170"
     inkscape:connector-curvature="0"
     style="fill:#6d656f"
     sodipodi:nodetypes="ccccccccccccccccccccc" />
  <path
     d="m 156.35,417.7 c 5.99,4.01 6.59,-4.6 12.85,-2.47 9.07,-0.54 2.95,12.53 13.67,8.94 1.90998,4.49624 1.32554,5.48603 0.78,9.17 -5.87567,-11.72666 -21.31688,12.31646 -30.11702,5.26193 4.95397,-2.57377 6.32494,-12.17773 0.47702,-18.78193 -1.76,-2.84 -0.42,-3.31 2.34,-2.12 z"
     id="path176"
     inkscape:connector-curvature="0"
     style="fill:#727584"
     sodipodi:nodetypes="ccccccc" />
  <path
     d="m 256.15666,418.03419 c 11.78205,3.37206 8.37627,19.20456 -0.49666,20.41792 -9.61253,-2.45225 -8.08666,-19.37542 0.49666,-20.41792 z"
     id="path178"
     inkscape:connector-curvature="0"
     style="fill:#c0c9d2"
     sodipodi:nodetypes="ccc" />
  <path
     d="m 424.87,442 c 6.8,-6.37 10.25,-15.62 13.76,-24.17 0.11,0.49 0.31,1.47 0.41,1.96 -2.84,11.91 -10.23,25.22 -21.12,31.21 0.63,-1.13 0.6,-2.41 0.6,-2.41 -7.33656,7.93383 -24.17,10.33 -37.15,11.51 0.26,-4.86 -2.58,-15.62 6.43,-13.08 2.76,2.34 6.24,4.76 7.22,-0.99 3.93,-5.69 -7.35714,-2.66383 -10.77714,-4.01383 11.29,0.42 22.09714,-11.90617 33.62714,-11.27617 8.95,-3.15 -1.65,13.21 7,11.26 z"
     id="path180"
     inkscape:connector-curvature="0"
     style="fill:#555250"
     sodipodi:nodetypes="ccccccccccc" />
  <path
     d="m 154.01,419.82 c 10.26087,12.78818 3.75414,19.88863 -9.09,21.29 -12.76657,-12.18647 -7.61028,-26.82109 9.09,-21.29 z"
     id="path182"
     inkscape:connector-curvature="0"
     style="fill:#c2d2e2"
     sodipodi:nodetypes="ccc" />
  <path
     d="m 505.53,496.63 c -337.02,242.91333 -168.51,121.45667 0,0 z"
     id="path184"
     inkscape:connector-curvature="0"
     style="fill:#54625e"
     sodipodi:nodetypes="cc" />
  <path
     d="m 144.11,421.96 c 8.73,-2.92 17.38,11.24 6.89,15.02 -9.26,4.89 -13.29401,-14.22637 -6.89,-15.02 z"
     id="path188"
     inkscape:connector-curvature="0"
     style="fill:#718298"
     sodipodi:nodetypes="ccc" />
  <path
     d="m 183.65,433.34 c -9.6,4.80877 -16.21,18.64 -16.39,30.98 -4.37,18.81 11.81,38.88 2.71,56.45 -9.09,-10.12 -16.65,-21.58 -22.98,-33.6 -1.47988,-1.59309 -7.36547,-15.3382 -2.92,-18.26 l 0.04,-0.94 c 4.45,13.09 12.11,24.99 19.9,36.2 3.02,-1.41 0.01,-5.23 0.38,-7.76 -3.85,-17.76 1.48,-37.36 -8.37,-53.04 -3.95,3.11 -7.32,-0.98 -11.1,-2.26 3.42,-0.37 5.7099,-1.60806 9.0299,-2.50806 17.31612,0.66856 23.42297,-17.12404 29.7001,-5.26194 z"
     id="path192"
     inkscape:connector-curvature="0"
     style="fill:#9397a9"
     sodipodi:nodetypes="cccccccccccc" />
  <path
     fill="#4e403f"
     d=" M 210.65 432.94 C 213.08 430.13 217.26 428.63 220.08 431.96 C 225.41 438.31 240.90 432.53 237.86 445.43 C 229.14 446.64 234.74 459.55 226.05 463.01 C 224.69 464.32 223.32 465.63 221.92 466.91 C 217.84 470.62 211.99 471.01 206.74 470.96 C 221.70 464.59 223.33 442.42 210.65 432.94 Z"
     id="path194" />
  <path
     d="m 192.2,434.07 c 17.44,-8.97 34.49,20.27 17.11,31.24 -24.59412,7.0599 -30.99547,-21.721 -17.11,-31.24 z"
     id="path196"
     inkscape:connector-curvature="0"
     style="fill:#2a282a"
     sodipodi:nodetypes="ccc" />
  <path
     fill="#5d6266"
     d=" M 506.87 440.87 C 507.95 436.89 511.68 434.77 514.92 432.72 C 535.18 428.63 525.91 464.25 511.10 454.00 C 513.87 455.86 523.19 452.04 517.94 450.17 C 508.28 455.27 513.07 437.95 506.87 440.87 Z"
     id="path198" />
  <path
     d="m 374.33,443.1 c 7.62795,-0.22395 25.08991,-3.85228 20.69,2.93 -0.98,5.75 -4.46,3.33 -7.22,0.99 -9.01,-2.54 -6.17,8.22 -6.43,13.08 12.98,-1.18 26.75,-2.77 37.15,-11.51 2.8,-2.13 0.03,1.28 -0.6,2.41 -13.36,10.79 -33.65,13.62 -48.96,9.07 -14.93892,-4.88406 -15.61338,-6.92879 -19.50331,-10.11247 7.06,-0.38 21.13331,0.78247 24.87331,-6.85753 z"
     id="path202"
     inkscape:connector-curvature="0"
     style="fill:#939aa1"
     sodipodi:nodetypes="ccccccccc" />
  <path
     fill="#a5b0b4"
     d=" M 506.87 440.87 C 513.07 437.95 508.28 455.27 517.94 450.17 C 523.19 452.04 513.87 455.86 511.10 454.00 C 509.25 452.09 507.62 449.99 506.08 447.84 C 505.86 445.49 506.17 443.12 506.87 440.87 Z"
     id="path204" />
  <path
     d="m 294.29,464.33 c 4.5,-5.11 -5.51727,-25.08445 5.26273,-19.40445 7.91,19.36 23.39766,30.8526 39.48766,42.8526 8.33,5.66 24.75961,6.73185 30.91961,14.33185 -6.79,12.42 10.75,11.12 15.04,19.66 -2.25,3.66 -15.64,5.91 -3.96,7.11 -0.69,0.03 14.23336,18.09351 13.54336,18.12351 -7.42,-2.65 -19.95723,-7.35936 -29.19336,-13.32351 -29.26315,-12.16712 -74.45497,-39.8325 -82.49,-76.72 3.17,2.96 6.51,10.26 11.39,7.37 z"
     id="path208"
     inkscape:connector-curvature="0"
     style="fill:#4a4e5b"
     sodipodi:nodetypes="cccccccccc" />
  <path
     d="m 577.4,460.33 c 6.84187,14.10125 -3.4484,31.11681 -17.4,18.73 -12.84859,-12.658 14.6833,-22.77945 17.4,-18.73 z"
     id="path212"
     inkscape:connector-curvature="0"
     style="fill:#81878f"
     sodipodi:nodetypes="ccc" />
  <path
     d="m 284.26,473.87 c -4.03316,32.61267 18.95983,60.0252 28.83,71.94 -1.25,23.21 4.12,45.91 11.1,67.17 -2.91925,1.47516 -5.98247,2.9549 -8.64,4.39 -25.03698,-10.90555 -35.02146,-9.63102 -53.83,-25.88 3.34,-6.06 -4.76,-10.57 -7.73,-15.38 -1.85,-9.68 -12.75,-13.88 -16.33,-22.77 0.32,-4.99 -3.59,-12.41 3.11,-14.62 17.54491,9.74109 31.58384,4.7339 33.26,-11.69 5.42559,-24.82166 -27.56188,-10.94975 -30.92,-18.91 4.08,-4.68 11.2,0.07 16.36,-2.47 12.15,-2.87 -0.42,-19.99 7.91,-26.2 6.05,1.68 12.62,-5.67 8.11,-10.61 -4.22445,-5.0512 17.45126,-7.71319 8.77,5.03 z"
     id="path214"
     inkscape:connector-curvature="0"
     style="fill:#4c4a53"
     sodipodi:nodetypes="cccccccccccccc" />
  <path
     d="m 226.05,463.01 c 9.21,-1.66 21.57,0.83 21.71,12.3 0.29,9.46 7.94,15.68 11.28,23.65 -4.13,7.04 -17.01,-1.24 -20.48,6.6 -10.05,-8.49 -24.29,3.08 -34.63,-4.68 3.56,9.96 7.89,19.81 13.11,29.02 3.86,3.39 15.13,5.89 10.85,12 -1.08,7.97 10.2,8.18 8.96,16.7 -1.88,3.54 -7.31406,6.99283 -9.27406,3.19283 C 217.91213,538.87791 209.72181,525.28545 197.85,507.15 c -1.54,-10.08 15.24,-15.79 9.22,-26.96 4.95,-2.11 10.78,-0.8 15.49,-3.59 3.29,-3.32 7.8,-13.62 -0.64,-9.69 1.4,-1.28 2.77,-2.59 4.13,-3.9 z"
     id="path216"
     inkscape:connector-curvature="0"
     style="fill:#a68b98"
     sodipodi:nodetypes="cccccccccccccc" />
  <path
     fill="#333238"
     d=" M 145.88 487.95 C 145.95 485.90 146.32 485.64 146.99 487.17 C 153.32 499.19 160.88 510.65 169.97 520.77 C 175.43 529.61 175.13 541.32 177.45 551.32 C 166.57 530.41 155.81 509.30 145.88 487.95 Z"
     id="path226" />
  <path
     d="m 727.69,491.29 c 4.8,0.54 14.02038,-0.65821 14.17,2.98 0.09,8.51 4.26,23.01 -8.86,18.6 -0.8,-7.4 -3.12,-14.56 -5.31,-21.58 z"
     id="path230"
     inkscape:connector-curvature="0"
     style="fill:#545454"
     sodipodi:nodetypes="cccc" />
  <path
     d="m 543.35,506.91 c 1.73025,23.62708 31.02672,31.14863 21.39,52.77 -20.52721,24.90651 -49.31315,39.9803 -73.46,57.63 -4.911,1.78915 -8.21729,6.48002 -19.91,9.27 -11.2943,-18.12828 -19.92774,-21.70101 -44.32,-34.67 -8.0942,0.73208 -7.31,-0.40558 -8.04,-4.90558 80.66454,3.9131 79.75435,-97.9511 124.34,-80.09442 z"
     id="path232"
     inkscape:connector-curvature="0"
     style="fill:#473e3f"
     sodipodi:nodetypes="ccccccc" />
  <path
     d="m 193.04,518.27 c 3.19,-2.87 4.84,4.92 6.91,6.68 5.72,13.8 17.31,23.43 25.73,35.07 -1.82,5.92 0.58,10.2 6.39,11.98 8.89,8.03 19.28,13.72 29.65,19.49 36.61438,23.05181 56.41805,23.86833 53.98352,26.46611 -12.28396,-1.34783 -33.34822,-9.66536 -44.81832,-16.15753 -33.83847,-19.12598 -63.68666,-43.94317 -94.08735,-67.94039 -3.90501,-4.00587 -3.62565,-1.95096 -6.71126,-13.04353 C 181.23451,534.41316 208.02,556.31 220.09,564.19 c 5.16,-2.74 -1.7,-9.03 -5.8,-7.54 -8.76,-11.36 -20,-22.79 -21.25,-38.38 z"
     id="path242"
     inkscape:connector-curvature="0"
     style="fill:#9090a1"
     sodipodi:nodetypes="cccccccccccc" />
  <path
     d="m 392.2,587.46 c -13.70369,15.8242 -44.88583,20.55055 -68.01,25.52 -6.98,-21.26 -12.35,-43.96 -11.1,-67.17 29.72446,2.14012 70.42525,43.2648 79.11,41.65 z"
     id="path250"
     inkscape:connector-curvature="0"
     style="fill:#7a6163"
     sodipodi:nodetypes="cccc" />
  <path
     d="m 420.43512,586.15942 c 0.73,4.5 0.91488,5.57058 6.61488,5.75058 16.56,4.44 33.02,11.79 50.51,10.77 10.492,-8.79219 64.11542,-57.93161 70.67299,-52.48819 -2.25632,20.48952 -81.51157,65.54616 -76.86299,76.38819 3.59566,25.58162 35.97142,63.58005 22.83,82.63 86.21889,24.14626 56.35717,91.70223 59.94835,96.92492 C 501.95742,864.32169 435.48,861.06 422.64,856.06 c -21.95687,-28.4809 68.30046,-207.97866 -8.43,-258.35 1.76,7.1 7.61,15.01 2.65,22.11 -6.08,1.93 -14.02,12.09 -18.98,9.39 5.83,-3.26 -1.68038,-10.91 1.61962,-15.91 -1.39,-5.71 -25.00472,-1.39754 -14.17472,-4.42754 22.50416,-26.65083 -1.66632,-10.36743 -0.95886,-24.87623 15.23282,2.24791 21.67135,2.82952 36.06908,2.16319 z"
     id="path254"
     inkscape:connector-curvature="0"
     style="fill:#808080"
     sodipodi:nodetypes="ccccccccccccccc" />
  <path
     d="m 232.07,572 c -6.75298,-1.66363 -8.04184,-8.44995 -6.70845,-11.82189 1.96,3.8 9.60845,1.96189 11.48845,-1.57811 5.63,5.91 11.05,12.04 17.14,17.51 2.97,4.81 11.07,9.32 7.73,15.38 -10.37,-5.77 -20.76,-11.46 -29.65,-19.49 z"
     id="path256"
     inkscape:connector-curvature="0"
     style="fill:#c1cce2"
     sodipodi:nodetypes="cccccc" />
  <path
     d="m 471.93194,626.66156 c 13.88,-10.08 118.23742,-102.15532 133.51742,-110.77532 15.75837,42.68848 30.81141,95.81932 31.44534,96.41385 10.7053,-0.3893 42.66568,8.96556 44.99338,10.86261 -35.70339,96.54587 -103.05497,165.91668 -143.71135,198.28357 31.17747,-61.20145 24.5547,-53.81142 -45.8235,-107.16213 4.95913,-54.87965 -17.79104,-50.69131 -20.42129,-87.62258 z"
     id="path264"
     inkscape:connector-curvature="0"
     style="fill:#666666"
     sodipodi:nodetypes="ccccccc" />
  <path
     d="m 354.7,595.69 c 21.21828,-13.03119 49.48656,-10.08494 48.51057,-1.37811 7.18,6.85 -26.36057,14.74811 -8.07057,14.45811 -6.01566,-2.9 -17.92,6.62 -14.13,16.06 -10.37056,1.68881 -47.12822,-11.26196 -47.2,-17.02 6.88,-4.2 13.78,-8.4 20.89,-12.12 z"
     id="path268"
     inkscape:connector-curvature="0"
     style="fill:#a3a0a9"
     sodipodi:nodetypes="cccccc" />
  <path
     d="m 412.9559,595.08778 c 13.0887,5.14827 47.59705,22.55956 44.09961,33.33885 -13.19259,3.40132 -22.92838,9.14966 -47.93551,10.63831 l -21.29538,-0.16785 C 344.78477,643.14117 330.90568,621.61436 320.84,614.66 c 4.41047,-2.15707 9.05252,-4.768 12.97,-6.85 6.53431,4.05232 21.38271,14.00192 47.2,17.02 3.08,6.29 11.04,7.28 16.87,4.38 4.96,2.7 12.9,-7.46 18.98,-9.39 4.96,-7.1 -2.1441,-17.63222 -3.9041,-24.73222 z"
     id="path270"
     inkscape:connector-curvature="0"
     style="fill:#88858f"
     sodipodi:nodetypes="cccccccccc" />
  <path
     d="m 381.01,624.83 c -3.79,-9.44 4.01,-18.96 14.13,-16.06 10.63462,2.63107 8.87626,16.63561 2.74,20.44 -5.83,2.9 -13.79,1.91 -16.87,-4.38 z"
     id="path276"
     inkscape:connector-curvature="0"
     style="fill:#c3d0df"
     sodipodi:nodetypes="cccc" />
  <path
     d="m 388.23,611.1 c 19.88962,0.79939 6.10705,29.09769 -4.65,12.26 -2.78,-4.96 1.47,-9.15 4.65,-12.26 z"
     id="path278"
     inkscape:connector-curvature="0"
     style="fill:#788697"
     sodipodi:nodetypes="ccc" />
  <path
     d="m 315.55,617.37 c 1.74,-0.94 3.49,-1.88 5.29,-2.71 31.74898,17.93006 52.49581,20.55989 87.66,24.54 5.72,-2.4 23.00572,-4.30896 18.39572,-4.38896 21.02561,52.61724 12.25747,196.37647 -2.33338,220.91508 -0.27,4.24 -48.86819,-8.49871 -51.82819,-9.92871 C 359.85257,841.2271 367.71883,811.49821 358.63,806.13 360.13835,766.9727 331.87607,682.25976 365.14247,639.67682 342.61775,631.98012 336.91835,630.40059 315.55,617.37 Z"
     id="path280"
     inkscape:connector-curvature="0"
     style="fill:#b0acb0"
     sodipodi:nodetypes="ccccccccc" />
  <path
     d="m 422.84,636.34 c 11.22,-2.98 22.95,-7.81 34.45,-6.67 2.15492,1.74558 21.71994,38.80535 14.72,50.07 -3.02,5.53 -3.81,17.99 -12.74,16.57 19.45995,35.12873 -19.88421,74.78321 -23.87,111.25 -8.25,8.64 -5.95831,37.30858 -19.94831,37.00858 0.43787,1.63177 -15.47954,-16.58889 -14.16169,-18.34858 70.38404,-39.35514 -16.24708,-158.44106 21.55,-189.88 z"
     id="path286"
     inkscape:connector-curvature="0"
     style="fill:#999999"
     sodipodi:nodetypes="cccccccc" />
  <path
     id="path288"
     style="fill:#d1d0d6"
     d="m 260.23034,596.02482 c 34.84312,18.10164 51.85259,23.2206 55.34725,19.91354 25.09999,18.29827 44.42867,19.02095 53.08253,23.99838 -28.70899,38.55658 11.21467,133.57078 21.38768,168.19274 -3.9,-0.69 -30.0978,-6.87948 -31.4178,-1.99948 -38.12888,24.76713 -37.90251,-35.88273 -42.80101,-74.25447 -14.91513,-19.11945 -60.16426,-134.20085 -55.59865,-135.85071 z"
     inkscape:connector-curvature="0"
     sodipodi:nodetypes="ccccccc" />
  <path
     d="m 227.99595,659.21383 c 37.97411,32.80591 74.48948,44.07164 88.67703,62.25761 33.72284,53.22914 -13.30984,44.53314 20.17676,80.55193 8.4,7.81 16.1463,9.45644 21.78026,4.10663 13.00845,-0.55183 22.58403,11.27763 30.55,13.87 -8.63491,-1.89926 -8.91418,25.67469 -17.75547,25.69723 C 297.56343,813.60174 255.7981,722.59069 227.99595,659.21383 Z"
     id="path292"
     inkscape:connector-curvature="0"
     style="fill:#9fa6bb"
     sodipodi:nodetypes="ccccccc" />
  <path
     d="M 505.53419,82.866473 C 522.16466,86.990149 599.83,136.69 605.02,150.19 c -2.12,14.91 14.31,15.52 21.06,24.88 -11.13724,36.62505 15.95762,107.71387 9.27604,109.36453 C 624.3933,267.4918 622.78429,264.2928 617.46,242.45 c 1.48082,-26.41673 -16.94127,-38.0055 -27.37,-56.61 -2.49,-3.31 2.59,-6.06 3.71,-8.94 4.25022,-11.01301 -13.28721,-29.46879 -15.8,-29.89 -8.6,1.01 3.98,9.8 -6.21,8.33 -8.89277,-2.55009 -52.53596,-36.85681 -56.67796,-37.61398 -9.30609,3.26746 -11.94828,-34.658987 -9.57785,-34.859547 z"
     id="path36"
     inkscape:connector-curvature="0"
     style="fill:#4b4d4f"
     sodipodi:nodetypes="ccccccccccc" />
  <path
     d="m 529.15871,507.8693 c -14.83468,34.05862 -64.40145,94.24422 -136.37627,76.52707 -0.91947,-16.97149 0.0813,-22.26002 2.32223,-37.08377 44.1447,9.27662 97.86913,-33.0365 98.66383,-64.68978 17.75233,4.97384 21.17882,11.89154 35.39021,25.24648 z"
     id="path228"
     inkscape:connector-curvature="0"
     style="fill:#8d7e77"
     sodipodi:nodetypes="ccccc" />
  <path
     fill="#7e454c"
     d=" M 605.01 480.76 C 605.22 471.23 619.72 482.35 613.10 488.11 C 607.20 502.06 590.12 498.34 578.28 503.31 C 576.28 504.14 576.62 506.41 576.52 508.15 C 572.10 506.23 568.05 502.90 562.79 505.73 C 556.41 507.14 549.86 507.95 543.35 506.91 C 535.90 504.28 522.68 510.86 521.16 499.16 C 524.38 489.62 538.00 500.63 545.48 498.26 C 550.96 501.99 558.63 500.37 564.60 498.27 C 572.81 496.24 580.67 492.94 588.95 491.16 C 595.58 490.61 615.47 489.61 605.01 480.76 Z"
     id="path222" />
  <path
     id="path3098"
     style="fill:#b3a6a6;fill-opacity:1"
     d="m 356.48996,580.06504 c 27.30894,51.65147 73.95766,73.27529 136.53504,103.18496 0.21245,16.08816 -1.78578,35.6535 1.97647,48.81542 -81.0019,-9.21532 -156.27341,-81.486 -138.51151,-152.00038 z"
     inkscape:connector-curvature="0"
     sodipodi:nodetypes="cccc"
     transform="scale(0.8,0.8)" />
</svg>
