<?xml version="1.0" encoding="UTF-8" standalone="no"?>
<svg
   xmlns:dc="http://purl.org/dc/elements/1.1/"
   xmlns:cc="http://creativecommons.org/ns#"
   xmlns:rdf="http://www.w3.org/1999/02/22-rdf-syntax-ns#"
   xmlns:svg="http://www.w3.org/2000/svg"
   xmlns="http://www.w3.org/2000/svg"
   xmlns:sodipodi="http://sodipodi.sourceforge.net/DTD/sodipodi-0.dtd"
   xmlns:inkscape="http://www.inkscape.org/namespaces/inkscape"
   width="861pt"
   height="861pt"
   viewBox="0 0 861 861"
   version="1.1"
   id="svg2"
   inkscape:version="0.48.5 r10040"
   sodipodi:docname="head.svg">
  <metadata
     id="metadata304">
    <rdf:RDF>
      <cc:Work
         rdf:about="">
        <dc:format>image/svg+xml</dc:format>
        <dc:type
           rdf:resource="http://purl.org/dc/dcmitype/StillImage" />
      </cc:Work>
    </rdf:RDF>
  </metadata>
  <defs
     id="defs302" />
  <sodipodi:namedview
     pagecolor="#ffffff"
     bordercolor="#666666"
     borderopacity="1"
     objecttolerance="10"
     gridtolerance="10"
     guidetolerance="10"
     inkscape:pageopacity="0"
     inkscape:pageshadow="2"
     inkscape:window-width="1839"
     inkscape:window-height="1056"
     id="namedview300"
     showgrid="false"
     inkscape:zoom="2.480869"
     inkscape:cx="653.27232"
     inkscape:cy="574.69936"
     inkscape:window-x="81"
     inkscape:window-y="24"
     inkscape:window-maximized="1"
     inkscape:current-layer="svg2" />
  <path
     fill="transparent"
     d=" M 0.00 0.00 L 861.00 0.00 L 861.00 861.00 L 0.00 861.00 L 0.00 0.00 Z"
     id="path4" />
  <path
     d="m 406.24,5.83 c 48.77527,-4.92625755 107.16627,3.6244746 146.85,20.2 -6.2,1.65 -12.13,2.17 -18.15,-0.08 0.51,4.17 7.58,9.19 1,12.04 -9.04,-5.04 -21.17,-8.34 -21.79,-20.32 -6.25498,15.54199 -52.46123,3.260791 -66.27,13.28 -5.06,-1.13 -11.88,-2.31 -14.52,-7.39 -5.15,1.98 -17.92,5.63 -19.77,-3.32 -4.78,1.64 -9.08,8.51 -13.68,12.3 -2.97,0.3 -5.62,-1.25 -7.31,-3.62 2.39508,-7.470936 5.61516,-13.480256 13.64,-23.09 z"
     id="path8"
     inkscape:connector-curvature="0"
     style="fill:#767273"
     sodipodi:nodetypes="ccccccccccc" />
  <path
     d="m 391.05,8.99 c 4.65,-1.86 10.03,-2.94 15.19,-3.16 2.95094,0.1760229 -12.1907,20.133553 -13.64,23.09 -1.75,7.67 -10.52,5.14 -16.46,4.04 4.43656,-9.817706 8.23371,-16.61261 14.91,-23.97 z"
     id="path10"
     inkscape:connector-curvature="0"
     style="fill:#302f32"
     sodipodi:nodetypes="ccccc" />
  <path
     d="m 391.05,8.99 c -2.37,2.61 -3.92193,5.810048 -6.17193,8.510048 -10.09,4.95 -21.19807,9.069952 -32.55807,9.819952 18.89668,23.539884 30.91961,23.388204 38.8,34.56 8.84,5.08 -7.38,9.2 -1.75,13.96 7.52,-1.45 16.71,0.14 19.61,8.25 -1.32,8.76 -16.98,8.1 -16.99,16.89 -2.64,-4.27 -7.37,-3.11 -10.24,0.2 -6.94,-8.11 -0.95,-16.31 1.71,-23.7 2.87,-3.35 8.91,-12.28 0.58,-12.38 -5.51,-1.08 -19.52,8.19 -16.37,-4.44 -2.16,-5.21 -11.14,-16.5 -13.99,-4.89 -8.65129,22.705366 -64.38629,7.946221 -73.75,22.19 5.87,5.04 -4.05,10.72 -3.91,17.37 -3.29,-0.6 -5.92,-4.57 -9.37,-1.73 -3.4,0.26 -0.36,8.63 -3.85,5.62 -4.02,-2.53 1.42,-15.34 -4.53,-10.95 -9.63,2.16 -2.93,14.9 -3.02,21.11 -4.14,0.22 -7.81,-6.85 -9.85,-10.83 -3.81,-1.67 -9.37,6.91 -13.35,3.21 3.74841,-22.145037 37.79123,-27.545236 38.84,-41.93 22.56886,-18.007941 80.80465,-46.869366 120.16,-50.84 z"
     id="path12"
     inkscape:connector-curvature="0"
     style="fill:#656268"
     sodipodi:nodetypes="cccccccccccccccccccccc" />
  <path
     d="m 352.32,27.32 c 11.36,-0.75 22.69609,-5.44 32.78609,-10.39 -2.36,5.49 -6.30609,10.69 -8.96609,16.03 5.94,1.1 14.71,3.63 16.46,-4.04 1.69,2.37 4.34,3.92 7.31,3.62 76.78261,0.689068 42.3176,113.08506 76.0287,181.18931 -33.87216,5.24351 -62.76449,23.98701 -93.59416,38.69099 -4.00392,-16.17702 -16.80746,-29.10299 -21.27454,-40.2303 5.6,-4.72 12.54,-6.6 19.74,-6.39 6.16,-1.07 11.38,2.8 17.34,2.85 1.77,5.61 -7.39,14.4 -1.99,19.35 7.69174,-36.84281 16.13127,-19.15369 29.06,-50.32 -0.59027,-31.8504 -14.21932,-66.18641 6.8,-84.58 -6.08,-1.39 -12.55,-2.47 -18.7,-0.83 -2.52,5.79 -8.3,8.41 -12.13,12.92 -2.28,4.55 -9.57,4.08 -11.07,-0.82 2.49,0.04 2.81,-1.35 1.87,-3.39 0.01,-8.79 15.67,-8.13 16.99,-16.89 -2.9,-8.11 -12.09,-9.7 -19.61,-8.25 -5.63,-4.76 10.59,-8.88 1.75,-13.96 -18.89097,-18.520219 -51.16142,-28.44893 -38.8,-34.56 z"
     id="path14"
     inkscape:connector-curvature="0"
     style="fill:#534f52"
     sodipodi:nodetypes="ccccccccccccccccccccc" />
  <path
     d="m 514.15,17.67 c 0.62,11.98 12.75,15.28 21.79,20.32 6.58,-2.85 -0.49,-7.87 -1,-12.04 6.02,2.25 11.95,1.73 18.15,0.08 48.65079,16.115093 90.3935,54.786613 121.67964,95.08191 -11.09,0.59 11.63286,55.82665 1.72286,61.83665 C 616.20169,108.95498 491.89427,35.330224 399.91,32.54 c 4.6,-3.79 8.9,-10.66 13.68,-12.3 1.85,8.95 14.62,5.3 19.77,3.32 2.64,5.08 9.46,6.26 14.52,7.39 19.34731,-17.672758 55.3783,4.887861 66.27,-13.28 z"
     id="path16"
     inkscape:connector-curvature="0"
     style="fill:#68645f"
     sodipodi:nodetypes="ccccccccccc" />
  <path
     d="M 401.1787,31.792985 C 515.23854,36.218841 629.14926,124.15494 676.84,182.86 c 3.3257,-10.43501 -12.86384,-62.55086 -2.9,-63.18 4.56,12.24 21.02,5.39 27.95,7.16 -8.78,4.49 -25.73,-4.05 -22.68,11.98 4.72,15.73 5.19,32.07 3.49,48.26 -9.11133,68.58534 -60.62969,113.05547 -72.58,109.14 -2.79,4.07 -5,-2.78 -7.56,-0.18 -0.46,-6.02 -6.05,-8.95 -9.69,-13.05 C 556.38212,248.04197 491.12003,215.04889 458.72039,216.93922 449.47456,151.70488 432.03101,62.049125 401.1787,31.792985 z"
     id="path20"
     inkscape:connector-curvature="0"
     style="fill:#423f3e"
     sodipodi:nodetypes="ccccccccccc" />
  <path
     d="m 353.68,55.77 c 2.85,-11.61 11.83,-0.32 13.99,4.89 -3.15,12.63 10.86,3.36 16.37,4.44 8.33,0.1 2.29,9.03 -0.58,12.38 -2.66,7.39 -8.65,15.59 -1.71,23.7 2.87,-3.31 7.6,-4.47 10.24,-0.2 0.94,2.04 0.62,3.43 -1.87,3.39 1.5,4.9 8.79,5.37 11.07,0.82 3.97,-0.05 7.95,-0.42 11.9,-0.94 1.06,3.82 -2.43,4.76 -5.31,5.58 -1.74,10.1 -15.01,11.31 -17.61,21.08 -1.91,12.47 13.28,14.43 21.82,16.31 -5.75,8.65 3.02,18.3 -3.26,26.6 -2.42,4.22 -6.46,8.52 -4.58,13.71 2.86,6.4 -3.42,9.25 -8.29,10.28 -5.5,1.72 -9.76,5.85 -15.05,7.99 -7.2,-0.21 -14.14,1.67 -19.74,6.39 1.8,5.23 9.57,4.35 11.1,9.8 -5.44,-4.5 -16.65,-5.26 -19.83,2.34 -5.86,9.69 5.05,23.37 15.87,18.9 -7.94,-0.04 -3.25,9.62 2,5.02 6.3,0.72 9.41,8.27 12.84,12.8 4.37,6.54 -4.52,8.98 -7.96,4.85 -5.01277,11.51511 -13.60759,15.82957 -26.57247,12.96718 -19.57299,-13.57785 -0.70107,-24.47572 6.30247,-33.48718 -5.93,-3.88 -14.32,-4.59 -17.01,3.28 -8.98,-3.57 -18.67,-4.24 -28.06,-5.39 -7.45,-4.64 2.23,-10.26 4.89,-14.68 14.05,-8.71 30.91,-7.66 45.24,-15.72 -2.39,-5.9 -11.48,-1.73 -16.07,-1.52 -18.70062,6.25455 -27.07831,10.76617 -50.34,20.11 0.33,-4.67 -2.1,-7.51 4.04,-9 9.30014,-7.40396 33.76071,-18.19767 46.33,-19.63 4.7,-11.65 20.36,-3.94 29.21,-0.87 8.47,-0.87 17.53,-5.59 18.78,-14.97 -14.02226,-32.36841 -22.21351,-85.54928 -30.89,-92.08 -4.21841,5.049496 -18.52423,3.599387 -20.06,-0.81 -7.00287,-9.228484 13.21757,-12.596886 19.74,-18.49 6.73,-2.33 -1.28,-19.75 -5.95,-11.9 -5.83556,6.468742 -21.13236,4.190671 -23.86,10.11 -25.68453,-4.33802 -36.3393,6.629203 -54.79,21.51 -0.14,-6.65 9.78,-12.33 3.91,-17.37 -3.87188,-11.361176 72.91468,-13.440945 73.75,-22.19 z"
     id="path26"
     inkscape:connector-curvature="0"
     style="fill:#77747a"
     sodipodi:nodetypes="ccccccccccccccccccccccccccccccccccccccccccc" />
  <path
     d="m 182.68,154.65 c 23.96,-35.7 49.37,-73.51 88.21,-94.82 0,0 1.94308,2.633294 -3.09886,8.481266 C 256.13511,76.38358 235.75,91.31 232.05,101.76 c 3.98,3.7 9.54,-4.88 13.35,-3.21 2.04,3.98 5.71,11.05 9.85,10.83 0.09,-6.21 -6.61,-18.95 3.02,-21.11 5.95,-4.39 0.51,8.42 4.53,10.95 3.49,3.01 0.45,-5.36 3.85,-5.62 3.45,-2.84 6.08,1.13 9.37,1.73 17.33488,-24.500137 45.87881,-24.545719 54.79,-21.51 1.1604,-14.672806 13.97673,-0.885607 23.86,-10.11 4.67,-7.85 12.68,9.57 5.95,11.9 -7.18426,7.045154 -25.03859,9.681677 -19.74,18.49 6.93697,-0.05169 10.66103,7.61002 20.06,0.81 24.07712,3.265422 6.20403,28.01596 21.48,59.89 15.65722,-4.49484 9.54317,23.55365 9.41,32.19 -1.25,9.38 -10.31,14.1 -18.78,14.97 -8.85,-3.07 -24.51,-10.78 -29.21,0.87 -18.76528,13.40379 -28.61765,7.10626 -46.33,19.63 -6.14,1.49 -3.71,4.33 -4.04,9 -3.88,2.22 -8.24,3.23 -12.69,2.8 -0.93,-8.17 -9.01,0.31 -14.57,0.65 -1.56,-2.53 -2.95,-5.15 -4.36,-7.75 3.91,-1.12 7.97,-3.13 12.09,-1.9 0,0 -16.32542,-73.66156 -47.66,-105.45 -0.42,-9.15 -11.88,-2.58 -13.58,2.76 -0.75065,7.87777 11.71603,37.99159 -7.52,43.69 -6.27731,3.86738 -16.2411,1.72263 -23.64977,-0.73023 C 177.13105,164.74276 180.79,157.41 182.68,154.65 z"
     id="path28"
     inkscape:connector-curvature="0"
     style="fill:#8a878e"
     sodipodi:nodetypes="cccccccccccccccccccccccccccccc" />
  <path
     d="m 308.13,93.06 c 0.71,-6.97 5.07,-9.37 9.96,-13.04 5.92,-0.07 9.92812,4.014348 11.3274,9.26 9.20807,20.0287 -20.54794,168.76662 -55.4774,135.98 5.93884,-5.93342 3.81,-8.51 3.75,-13.82 22.99689,-68.11263 -111.4261,-0.4871 -106.1,18.9 -2.34,6.74 -12.94,8.46 -14.58,16.11 -1,0.56 -2.01,1.12 -3.02,1.67 3.88,-22.76 6.14,-46.02 13.14,-68.09 4.3,-6.3 7.64,-13.39 12.59,-19.18 4.39211,3.73164 19.59914,9.1179 25.46,5.41 6.28513,-2.97753 5.87806,-27.48774 7.52,-43.69 1.7,-5.34 13.16,-11.91 13.58,-2.76 27.08041,10.86554 59.76909,-34.554838 75.23,-15.09 8.16,2.65 5.12,-7.38 6.62,-11.66 z"
     id="path30"
     inkscape:connector-curvature="0"
     style="fill:#9a9aa6"
     sodipodi:nodetypes="ccccccccccccccc" />
  <path
     d="m 413.32,92.27 c 6.15,-1.64 12.62,-0.56 18.7,0.83 -4.52,6.42 -8.8,14.35 -6.41,22.37 3.76638,3.09639 8.08866,33.99437 15.97,42.92 1.82,11.56 -16.57,8.98 -16.36,19.29 -9.55921,35.05958 -13.42095,43.67805 -29.06,50.32 -5.4,-4.95 3.76,-13.74 1.99,-19.35 -5.96,-0.05 -11.18,-3.92 -17.34,-2.85 5.29,-2.14 9.55,-6.27 15.05,-7.99 4.87,-1.03 11.15,-3.88 8.29,-10.28 -1.88,-5.19 2.16,-9.49 4.58,-13.71 6.28,-8.3 -2.49,-17.95 3.26,-26.6 -8.54,-1.88 -23.73,-3.84 -21.82,-16.31 2.6,-9.77 15.87,-10.98 17.61,-21.08 2.88,-0.82 6.37,-1.76 5.31,-5.58 -3.95,0.52 -7.93,0.89 -11.9,0.94 3.83,-4.51 9.61,-7.13 12.13,-12.92 z"
     id="path32"
     inkscape:connector-curvature="0"
     style="fill:#635c5f"
     sodipodi:nodetypes="ccccccccccccccccc" />
  <path
     d="m 603.03,139.08 c 8.78,-8.04 16.47,3.35 20.67,10.24 13.65169,22.53947 51.17115,51.34513 52.33,68.62 14.40961,19.69529 -3.41548,57.35946 2.75,71.26 5.85,2.28 11.88,5.14 11.22,12.84 -3.11,19.93 7.43,39.62 -2.63,58.18 -0.8,9.52 5.09,22.66 -4.47,29.71 -27.89966,48.70624 -29.96209,83.35354 -87.58,135.94 -16.85838,-2.34401 -25.35078,-6.80146 -32.53,-20.14 -32.39576,-40.20791 -66.11829,-129.11356 -78.81,-186.75 11.985,-9.8994 67.42636,-70.5593 142.1,-143.91 -6.75,-9.36 -23.18,-9.97 -21.06,-24.88 11.48313,-10.21819 1.8777,-3.74459 -1.99,-11.11 z"
     id="path46"
     inkscape:connector-curvature="0"
     style="fill:#303031"
     sodipodi:nodetypes="ccccccccccccc" />
  <path
     fill="#232223"
     d=" M 679.21 138.82 C 676.16 122.79 693.11 131.33 701.89 126.84 C 703.66 126.79 705.68 126.81 707.06 128.13 C 703.59 138.34 711.76 140.23 720.84 137.94 C 725.88 146.89 714.41 146.44 709.04 149.20 C 709.15 158.20 712.96 166.90 712.83 175.86 C 703.79 187.32 699.75 169.29 689.88 170.45 C 682.43 172.63 687.92 182.96 682.70 187.08 C 684.40 170.89 683.93 154.55 679.21 138.82 Z"
     id="path40" />
  <path
     fill="#5e5d5c"
     d=" M 707.06 128.13 C 713.95 127.13 722.23 129.79 720.84 137.94 C 711.76 140.23 703.59 138.34 707.06 128.13 Z"
     id="path42" />
  <path
     d="m 268.65,132.14 c -11.18142,27.66399 27.64626,50.20907 33.43,49.77 -2.69,13.27 -14.28,21.06 -24.39,29.53 0.06,5.31 4.07,12.96 -3.75,13.82 -4.12,-1.23 -8.18,0.78 -12.09,1.9 -5.73,-9.07 -9.22,-19.87 -16.2,-27.94 -5.95,-0.37 -11.68212,7.53811 -17.18212,9.41811 -7.94167,7.0994 -11.59789,7.30336 -25.25788,17.51189 -5.59,7.02 -19.45,7.75 -14.62,19.53 8.81303,15.98923 25.7823,14.09629 12.33,30.21 -3.04,6.67 8.83,11.92 4.33,18.22 -2.18,5.62 -2.7,11.63 -2.66,17.6 -2.16,7.27 -16.02,5.57 -13.64,15.24 3.33,7.69 24.07,-4.88 18.35,6.97 11.57,2.37 4.21,13.27 -3.22,16.18 -6.21,3.31 -12.82,9.95 -7.72,16.9 -0.57,0.32 -1.7,0.98 -2.27,1.31 -0.65,-0.89 -1.34,-1.74 -2.06,-2.56 -2.39,-0.48 -4.78,-0.68 -7.14,-1.2 7.21,-4.91 4.8,-15.32 2.78,-21.82 7.51,-3.79 5.26,-13.32 -3.95,-12.59 -9.59,-12.87 -1.56,-30.21 -2.01,-44.82 -1.75,-5.93 -10.78,-5.16 -11.58,-11.58 -2.53,-5.99 2.02,-10.98 4.73,-15.83 -2.94,-5.47 -9.09,-10.06 -7.29,-17.09 -3.53,1.86 -6.78,4.28 -10.56,5.63 1.64,-7.65 12.24,-9.37 14.58,-16.11 -6.65,-17.72 1.13,-36.16 10,-51.74 12.61237,-3.27268 19.07634,-6.77347 30.39,-12.59 5.3077,-32.46926 33.36712,-26.95428 56.67,-33.87 z"
     id="path44"
     inkscape:connector-curvature="0"
     style="fill:#a5b0c3"
     sodipodi:nodetypes="cccccccccccccccccccccccccccccc" />
  <path
     d="m 571.79,155.34 c 10.19,1.47 -2.39,-7.32 6.21,-8.33 7.02265,3.77403 19.98304,23.86134 15.8,29.89 -1.12,2.88 -6.2,5.63 -3.71,8.94 12.35015,14.27433 41.10014,33.67409 27.37,56.61 1.3,5.87 6.06,11.52 11.24,15.01 -4.29,3.86 -5.28,16.36 2.73,11.14 4.5937,5.88899 6.74475,15.29333 5.25,21.74 0.57,15.3 6.91,29.21 5.21,44.79 -7.78,-4.86 -6.93,-16.21 -13.78,-22.15 -13.48946,-14.13661 -14.89038,-22.07754 -18.45,-27.75 -16.83503,-47.571 -24.54476,-73.5261 -37.87,-129.89 z"
     id="path52"
     inkscape:connector-curvature="0"
     style="fill:#666d6e"
     sodipodi:nodetypes="cccccccccccc" />
  <path
     d="m 556.7,159.81 c 6.0096,-1.16383 5.54141,-20.27668 13.37986,-7.43425 2.63,5.08 12.22014,10.87425 12.66014,16.20425 -15.56,5.14 51.60598,95.35648 37.02474,116.30942 C 595.27098,297.80054 540.71139,223.08267 533.17,222.14 c -7.96,-12.44 3.51286,-25.19701 8.70286,-34.36701 3.57,-10.61 1.00714,-23.88299 14.82714,-27.96299 z"
     id="path58"
     inkscape:connector-curvature="0"
     style="fill:#828676"
     sodipodi:nodetypes="ccccccc" />
  <path
     d="m 682.7,187.08 c 5.22,-4.12 -0.27,-14.45 7.18,-16.63 9.87,-1.16 13.91,16.87 22.95,5.41 13.68247,100.42211 12.19129,206.98865 13.15,300.14 0.78,4.93 -1.87,11.08 1.71,15.29 2.19,7.02 4.51,14.18 5.31,21.58 -2.67,0.01 -5.32,0.09 -7.95,0.24 -0.17,19.97 -0.01,39.94 0,59.92 0.82,6.16 -7.96,4.52 -11.67,6.42 -7.89,2.97 -7.12,-9.08 -8.47,-14.33 -0.66,-6.36 2.14,-17.03 -7.78,-16.78 19.92539,-111.68386 2.30356,-220.0108 -15.45,-328.12 -3.96,-9.31 2.72,-21.54 -0.35,-29.37 0.35,-1.29 0.85,-2.53 1.37,-3.77 z"
     id="path60"
     inkscape:connector-curvature="0"
     style="fill:#0e0e0e"
     sodipodi:nodetypes="cccccccccccccc" />
  <path
     d="m 125.87,258.83 c 9.01,-28.08 17.33,-59.72 41.26,-78.8 -7,22.07 -9.26,45.33 -13.14,68.09 -6.1,3.49 -11.99,7.32 -17.99,10.96 -7.62938,3.76637 -2.57406,11.3634 -10.91,12.07 0.07,-4.12 0.42,-8.22 0.78,-12.32 z"
     id="path66"
     inkscape:connector-curvature="0"
     style="fill:#26252c"
     sodipodi:nodetypes="cccccc" />
  <path
     d="M 681.44401,188.91184 C 696.5062,307.81221 721.34678,467.72208 697.13,548.34 c 9.92,-0.25 7.12,10.42 7.78,16.78 -1.88,-1.78 -1.47,-4.91 -2.21,-7.26 -4.15,4.98 -4.72,12.03 -8.13,17.53 -2.31,-5.18 -6.44,-5.65 -11.62,-3.42 -6.02561,-23.14954 24.99032,-53.32119 19.8,-100.87 -7.62,-0.3 -3.84,14.59 -13.18,12.24 -19.65028,-18.85165 -22.28404,-76.1069 3.82,-88.06 0.72401,-10.77308 -2.27672,-22.89163 -0.77,-32.62 7.28,-19.82 2.3,-41.43 -2.62,-60.62 0.66,-7.7 -5.37,-10.56 -11.22,-12.84 -8.44365,-20.07327 8.61067,-61.02765 -2.75,-71.26 2.41003,-10.11931 2.8169,-19.09208 5.41401,-29.02816 z"
     id="path70"
     inkscape:connector-curvature="0"
     style="fill:#1a1919"
     sodipodi:nodetypes="cccccccccccccc" />
  <path
     d="m 245.65,199.22 c 8.95874,11.94144 13.49592,24.17246 20.56,35.69 5.56,-0.34 13.64,-8.82 14.57,-0.65 22.1,6.84 41.4,22.78 65.56,21.48 0.92,6.18 -5.06,15.05 0.44,21.45 1.35,3.08 6.28,1.29 7.03,-1.37 34.47087,-38.75152 -42.64534,170.17464 -29.63,194.04 25.90923,16.86511 49.26472,11.48454 68.12,23.89 3.95,3.66 -4.58,7.97 0.62,11.55 -10.83484,3.85946 -3.50732,23.06547 2.78,23.74 l 0.6,0.55 c -0.36272,3.96531 7.34434,17.10251 -1.88,17.01 -4.50176,-5.89803 -9.70527,-12.1911 -13.38,-17.72 -11.68,-1.2 1.71,-3.45 3.96,-7.11 -22.29567,-5.71555 -70.89249,-41.97266 -85.68912,-75.95766 C 295.3027,449.80637 298.79,459.22 294.29,464.33 c -4.88,2.89 -8.22,-4.41 -11.39,-7.37 -6.53,-14.67 -14.43,-29.38 -20.09,-43.77 1.89416,-72.13808 18.21849,-89.41698 68.36,-120.22 -20.79529,6.06168 -15.29691,-27.17893 -28.63,-35.58 -7.35,-9.26 -14.73,-22.9 -28.48,-21.55 4.74354,28.42329 -1.75241,12.84569 24.01,62.25 -4.35,5.91 -12.28,7.55 -17.99,11.87 -0.46,-15.5 -13.57,-26.36 -19.04,-40.19 -7.94,-17.37 -19.55,-33.21 -25.47,-51.37 -2.72,-3.07 -5.16,-6.37 -7.8,-9.51 5.79856,-3.17267 13.03391,-10.88494 17.88,-9.67 z"
     id="path72"
     inkscape:connector-curvature="0"
     style="fill:#2d3237"
     sodipodi:nodetypes="ccccccccccccccccccccccccccc" />
  <path
     d="m 227.77,208.89 c -3.86,21.69 22.35,32.61 22.31,53.03 -9.87,-2.42 -6.88,-16.66 -18.29,-15.98 6.62,5.02 11.26,15.59 8.34,21.96 -2.92,-7.27 -9.42,-7.52 -13.19,-0.95 -0.02,13.16 -6.21,25.35 -7.59,38.4 -7.22,6 -14.87,11.96 -20.55,19.67 6.11,5.8 15.01,-1.78 22.31,-2.88 -1.81,5.4 -0.91,8.47 5.89,7.11 -1.08,15.15 -20.62,18.17 -28.24,29.77 6.83,1.93 1.65,5.6 -2.4,7.98 -5.1,-6.95 1.51,-13.59 7.72,-16.9 7.43,-2.91 14.79,-13.81 3.22,-16.18 5.72,-11.85 -15.02,0.72 -18.35,-6.97 -2.38,-9.67 11.48,-7.97 13.64,-15.24 -0.04,-5.97 0.48,-11.98 2.66,-17.6 4.5,-6.3 -7.37,-11.55 -4.33,-18.22 9.11031,-21.79526 -10.20066,-17.03622 -12.33,-30.21 -4.83,-11.78 9.03,-12.51 14.62,-19.53 11.12427,-8.03964 23.16821,-16.11569 24.56,-17.26 z"
     id="path74"
     inkscape:connector-curvature="0"
     style="fill:#98a5af"
     sodipodi:nodetypes="cccccccccccccccccccc" />
  <path
     d="m 250.08,261.92 c 0.04,-20.42 -26.17,-31.34 -22.31,-53.03 2.64,3.14 5.08,6.44 7.8,9.51 5.92,18.16 17.53,34 25.47,51.37 1.98,12.2 10.63,22.67 15.44,33.85 0.91,9.53 -12.55,11.85 -18.43,16.47 -7.56,4.15 -14.08,9.88 -20.9,15.1 -3.02,2.03 -6.16,3.86 -9.37,5.55 -5.33,2.71 -9.69,7.01 -15.28,9.35 6.51645,19.49352 -5.6429,14.89317 -17.12,20.41 -0.32,-0.55 -0.96,-1.64 -1.29,-2.19 0.57,-0.33 1.7,-0.99 2.27,-1.31 4.05,-2.38 9.23,-6.05 2.4,-7.98 7.62,-11.6 27.16,-14.62 28.24,-29.77 -6.8,1.36 -7.7,-1.71 -5.89,-7.11 -7.3,1.1 -16.2,8.68 -22.31,2.88 5.68,-7.71 13.33,-13.67 20.55,-19.67 1.38,-13.05 7.57,-25.24 7.59,-38.4 3.77,-6.57 10.27,-6.32 13.19,0.95 2.92,-6.37 -1.72,-16.94 -8.34,-21.96 11.41,-0.68 8.42,13.56 18.29,15.98 z"
     id="path76"
     inkscape:connector-curvature="0"
     style="fill:#8c98a0"
     sodipodi:nodetypes="ccccccccccccccccccccc" />
  <path
     d="m 380.52107,204.96547 c 4.59,-0.21 -20.9789,2.91661 -18.5889,8.81661 -14.33,8.06 -33.24217,6.09792 -47.29217,14.80792 -2.66,4.42 -12.34,10.04 -4.89,14.68 9.39,1.15 19.08,1.82 28.06,5.39 2.69,-7.87 11.08,-7.16 17.01,-3.28 -2.26722,3.37065 -4.22552,5.66258 -8.48,10.36 -24.16,1.3 -43.46,-14.64 -65.56,-21.48 58.94541,-26.25245 79.31332,-27.11133 99.74107,-29.29453 z"
     id="path78"
     inkscape:connector-curvature="0"
     style="fill:#57555a"
     sodipodi:nodetypes="ccccccccc" />
  <path
     d="m 458.9,217.15818 c 10.71041,8.93142 8.2071,74.37564 6.2,82.82182 -7.71303,1.80729 -70.07205,-25.44675 -96.97,-25.81 3.04,-2.53 1.95,-11.74 6.96,-8.27 3.44,4.13 12.33,1.69 7.96,-4.85 -3.43,-4.53 -6.54,-12.08 -12.84,-12.8 -5.25,4.6 -9.94,-5.06 -2,-5.02 2.96,-2.43 5.23,-5.65 6.8,-9.14 2.42,-12.88 14.9,1.84 7.46,7.43 -3.6,11.81 11.15,3.99 15.36,1.42 5.6774,-1.09503 34.92483,-22.63334 61.07,-25.78182 z"
     id="path80"
     inkscape:connector-curvature="0"
     style="fill:#2c2d32"
     sodipodi:nodetypes="ccccccccccc" />
  <path
     d="M 459.54494,216.83571 C 484.37433,210.12905 572.6402,257.8658 592.87,282.99 c 3.02,8.11 8.06,15.6 7.81,24.7 -3.38,6.18 -9.24,-3.29 -12.01,-6.37 -8.26,-3.06 -15.81,12.59 -24.43,7.62 -8.98587,4.06831 -16.0654,-0.34961 -28.72,-9.15 0.29,10.28 -12.25,10.95 -19.54,12.16 -15.10689,23.1776 -15.95386,9.15311 -32,7.03 -0.12,6.67 7.07,10.38 10.85,15.24 8.46,5.89 13.88,13.88 23.13,19 -0.4,6.94 -3.9,13.27 -8.08,18.67 -3.02,3.9 -4.47,13.78 2.13,15.1 -10.13796,13.97474 6.85891,21.98199 5.56,29.6 -1.5,5.26 -2.56,10.63 -2.65,16.13 -3.24,2.05 -6.97,4.17 -8.05,8.15 -0.7,2.25 -1.01,4.62 -0.79,6.97 2.56801,13.93265 -37.37685,57.50908 -59.53,68.64 -16.31,-0.08 -23.82,15.22 -35.06,24.05 -4.93,2.59 -0.66,-6.44 -1.9,-8.17 -1.54,-5.8 -9.84,-2.21 -13.89,-3.32 -22.96702,9.69402 -47.50623,-144.05568 -41.50059,-210.83797 2.91531,-0.20784 6.26407,-39.09535 8.77111,-40.32365 14.86567,-24.35987 79.69263,19.88235 102.12948,22.10162 3.13813,-32.95169 0.21028,-47.26085 -5.55506,-83.14429 z"
     id="path82"
     inkscape:connector-curvature="0"
     style="fill:#1e1d1e"
     sodipodi:nodetypes="cccccccccccccccccccccccc" />
  <path
     d="m 352.34,224.33 c 3.18,-7.6 14.39,-6.84 19.83,-2.34 3.64145,7.36711 3.38504,6.5676 2.84,12.1 -1.57,3.49 -3.84,6.71 -6.8,9.14 -10.82,4.47 -21.73,-9.21 -15.87,-18.9 z"
     id="path84"
     inkscape:connector-curvature="0"
     style="fill:#afb3af"
     sodipodi:nodetypes="ccccc" />
  <path
     fill="#5f5e5b"
     d=" M 359.38 222.24 C 362.36 220.23 367.95 222.79 366.86 226.59 C 360.52 227.23 361.36 235.89 366.95 237.29 C 359.34 246.43 346.97 226.33 359.38 222.24 Z"
     id="path86" />
  <path
     d="m 268.23,242.73 c 0.99823,-22.1879 30.13721,1.03783 34.31,14.66 16.87806,9.68265 5.81577,32.12141 28.63,35.58 -15.62068,12.86716 -33.63382,43.38828 -51.18565,49.48591 1.05,-5.19 4.78617,-9.30954 3.02565,-11.67591 -9.93,4.49 -15.77,-15.98 -21.8,-5.57 -2.37,0.62 -4.89,0.81 -7.55,0.59 8.8,-5.28 17.97,-9.98 26.42,-15.84 5.71,-4.32 13.64,-5.96 17.99,-11.87 -14.19164,-16.67922 -17.67806,-41.53525 -29.84,-55.36 z"
     id="path88"
     inkscape:connector-curvature="0"
     style="fill:#1a1b1d"
     sodipodi:nodetypes="cccccccccc" />
  <path
     fill="#b4c8dd"
     d=" M 157.01 246.45 C 160.79 245.10 164.04 242.68 167.57 240.82 C 165.77 247.85 171.92 252.44 174.86 257.91 C 172.15 262.76 167.60 267.75 170.13 273.74 C 170.93 280.16 179.96 279.39 181.71 285.32 C 182.16 299.93 174.13 317.27 183.72 330.14 C 192.93 329.41 195.18 338.94 187.67 342.73 C 189.69 349.23 192.10 359.64 184.89 364.55 C 168.22 348.11 160.75 324.20 148.73 304.28 C 142.78 293.13 136.64 281.93 131.61 270.34 C 130.03 266.12 130.71 259.82 136.00 259.08 C 142.00 255.44 147.89 251.61 153.99 248.12 C 155.00 247.57 156.01 247.01 157.01 246.45 Z"
     id="path90" />
  <path
     d="m 136,259.08 c -5.29,0.74 -5.97,7.04 -4.39,11.26 17.98628,30.9126 29.48379,62.72008 53.28,94.21 2.36,0.52 4.75,0.72 7.14,1.2 -3.54,0 -10.96434,5.13632 -14.06434,6.73632 C 168.126,357.78104 156.97177,346.17848 151.95,340.89 141.52463,291.68054 94.755582,272.69608 136,259.08 z"
     id="path94"
     inkscape:connector-curvature="0"
     style="fill:#396b63"
     sodipodi:nodetypes="ccccccc" />
  <path
     fill="#707976"
     d=" M 261.04 269.77 C 266.51 283.60 279.62 294.46 280.08 309.96 C 271.63 315.82 262.46 320.52 253.66 325.80 C 248.33 329.24 242.90 332.52 237.15 335.19 C 243.97 329.97 250.49 324.24 258.05 320.09 C 263.93 315.47 277.39 313.15 276.48 303.62 C 271.67 292.44 263.02 281.97 261.04 269.77 Z"
     id="path96" />
  <path
     d="m 451.88,338.18 c 10.71,10.82 12.43,28.96 20.05,43.11 2.38,-3.3 8.73,-5.9 6.47,-10.66 -4.79,-6.36 -0.83,-11.52 5.78,-13.64 10.05,18.14 15.86,39.97 11.41,60.55 -6.88353,41.26049 -20.3144,2.52532 -22.83,6.2 -15.12231,102.37737 -99.00811,80.95287 -148.58,46.12 C 292.33,440.01 285.3,389.12 307.8,351.8 347.36538,293.14944 416.59893,318.42619 451.88,338.18 z"
     id="path98"
     inkscape:connector-curvature="0"
     style="fill:#24262c"
     sodipodi:nodetypes="ccccccccc" />
  <path
     d="m 122.69802,283.16179 c 23.95673,24.99295 30.00596,56.46127 29.25198,57.72821 -1.58,0.28 -3.79,-0.38 -4.9,1.03 -5.42,9.48 -9.76,19.57 -13.11,29.97 -3.69,5.81 -10.97,1.7 -10.45,-4.3 -3.59028,-27.3243 -3.56,-61.23441 -0.79198,-84.42821 z"
     id="path100"
     inkscape:connector-curvature="0"
     style="fill:#22252c"
     sodipodi:nodetypes="cccccc" />
  <path
     d="m 655.78,286.26 c 4.67,5.05 -11.37,8.3 -4.51,14.42 -2.34881,12.64066 16.17381,33.21465 13.14,40.54 -21.58041,12.14883 10.39113,12.70964 10.32,17.93 -9.58214,17.58644 -12.91966,40.20935 -20.95,46.47 -1.30789,-36.05513 -26.42296,-74.89985 -54.54169,-97.19051 1.13,-3.62 -8.45624,-29.14053 -5.15624,-23.62053 52.72173,51.97939 25.94437,13.28392 61.69793,1.45104 z"
     id="path102"
     inkscape:connector-curvature="0"
     style="fill:#414449"
     sodipodi:nodetypes="cccccccc" />
  <path
     d="m 690,302.04 c 4.92,19.19 9.9,40.8 2.62,60.62 -1.0074,13.99488 4.95997,24.20906 0.77,32.62 -26.54374,25.71618 -20.09616,68.14557 -3.82,88.06 9.34,2.35 5.56,-12.54 13.18,-12.24 14.61799,38.56767 -26.48321,76.94775 -19.8,100.87 5.18,-2.23 9.31,-1.76 11.62,3.42 -11.07031,80.67814 -74.38362,163.46488 -121.54,214.7 -4.33,2.3 -6.87,-0.37 -4.94,-4.76 -15.71559,2.33788 -38.30558,5.38308 -39.59,22.48 -9.96,6.68 -19.02,18.44 -31.65,19.41 -6.63,-1.22 -6.17,-11.57 0.71,-11.85 33.49026,-27.69857 -8.39881,-198.42312 36.51,-228.58 44.29112,-38.90096 -1.0366,-68.89338 9.28,-79.88 6.51,1.04 13.06,0.23 19.44,-1.18 10.43556,11.14193 18.03317,4.34295 30.91766,19.49506 C 628.58573,499.82061 652.60318,442.44242 682.9,389.93 c 9.56,-7.05 3.67,-20.19 4.47,-29.71 10.06,-18.56 -0.48,-38.25 2.63,-58.18 z"
     id="path106"
     inkscape:connector-curvature="0"
     style="fill:#252523"
     sodipodi:nodetypes="ccccccccccccccccccc" />
  <path
     d="m 589.02,311.97 c 6.48496,14.43638 5.25065,17.87326 8.21,29.86 1.76,11.97 4.3342,27.22425 3,36.35 3.11,-0.64 4.18,-4.64 7.9,-4.1 -7.48,5.2 -4.31,14.95 -10.68,20.61 -5.02,-7.77 12.0976,8.65357 6.5576,8.75357 -19.39356,-0.50456 -11.57366,1.14815 -24.6076,1.86643 -2.67,5.11 -14.7,4.41 -10.68,-3.63 1.56,-6.08 -7.34,-1.02 -9.64,-4.96 -2.47,-5.16 1.09,-5.64 4.33,-6.45 1.92,-4.89 -0.98,-9.84 -5.76,-11.09 -6.73,-8.45 5.33,-14.7 12.64,-12.51 5.47,8.17 9.11,-6.95 11.73,-11.5 -10.69,1 -14.06,-4.58 -3.67,-9.66 7.57,2.11 3.61,-7.86 -1.28,-4.43 -28.08665,29.59168 -30.96314,-5.75077 -40.5,-7.62 -4.21,0.77 -15.02,0.07 -10.4,-6.31 15.57,-10.55 0.61345,-11.97305 28.01083,-12.28348 6.41137,-0.32978 32.65052,-6.57163 34.83917,-2.89652 z"
     id="path108"
     inkscape:connector-curvature="0"
     style="fill:#426853"
     sodipodi:nodetypes="ccccccccccccccccccc" />
  <path
     d="m 526.17,327.15 c -4.62,6.38 6.19,7.08 10.4,6.31 14.1609,7.71275 9.45058,22.0744 40.5,7.62 4.89,-3.43 8.85,6.54 1.28,4.43 -10.39,5.08 -7.02,10.66 3.67,9.66 -2.62,4.55 -6.26,19.67 -11.73,11.5 -7.31,-2.19 -19.37,4.06 -12.64,12.51 4.78,1.25 7.68,6.2 5.76,11.09 -3.24,0.81 -6.8,1.29 -4.33,6.45 2.3,3.94 11.2,-1.12 9.64,4.96 -4.02,8.04 8.01,8.74 10.68,3.63 10.27,-1.2 25.61,-6.87 32.68,3.67 0.36,0.3 1.06,0.91 1.42,1.21 0.55,2.14 1.15,4.28 2.11,6.29 4.99,6.35 -13.18,6.86 -5.45,13.38 4.32,8.02 11.48,12.86 18.81,17.65 -2.79,5.6 -13.25,-0.18 -8.69,7.2 5.86,14.04 -31.27,6.65 -13.29,1.06 0.7,-10.87 -11.82,-10.54 -19.35,-9.48 4.32,-4.47 12.66,0.76 16.01,-4.64 -0.13,-6.25 -0.77,-12.5 -0.42,-18.75 7.79,2.49 15.1,-6.13 7.46,-11.61 -3.55,-5.46 -11.97,7.13 -5.87,2.54 3.78,-5.96 9.42,4.82 4.1,6.18 -3.61,-2.3 -9.08,0.59 -10.64,-4.36 -8.48,-0.32 -8.04,-12.5 -17.97,-6.45 -9.46185,8.8154 -39.15464,10.15819 -47.61,3.86 0,2.31 -2.42,2.96 -3.96,4.11 8.03,9.83 25.65,-5.39 31.72,8.03 0.09,5.57 0.17,11.16 -0.45,16.71 -32.91159,44.04843 -84.65595,86.05887 -134.71,101.43 -10.06024,16.75747 -49.50093,16.69438 -30.94984,3.31097 8.93918,-0.50861 1.86124,-13.1471 1.34984,-17.61097 4.05,1.11 12.35,-2.48 13.89,3.32 1.24,1.73 -3.03,10.76 1.9,8.17 11.24,-8.83 18.75,-24.13 35.06,-24.05 19.62813,-13.79638 61.17885,-49.68418 59.53,-68.64 1.54,2.15 3.17,4.25 5.02,6.16 14.81,10.25 24.08,-25.37 3.82,-21.28 0.09,-5.5 1.15,-10.87 2.65,-16.13 -15.74934,-10.75026 -8.94175,-28.73181 -5.56,-29.6 7.14,2.65 15.02,3.84 21.58,3.42 4.05,-10.54 -8.02,-13.6 -13.77,-19.33 15.65,3.24 -2.45,-22.74 11.16,-22.12 6.18,4.31 9.29,-8.12 1.6,-5.73 -10.34,1.27 -14.67,-15.78 -8.75,-21.33 9.97,2.68 2.56,-11.16 10.04,-9.94 5.05852,-0.063 16.96715,5.11618 -7.7,15.19 z"
     id="path110"
     inkscape:connector-curvature="0"
     style="fill:#404744"
     sodipodi:nodetypes="cccccccccccccccccccccccccccccccccccccccccccccccc" />
  <path
     d="m 400.38,321.45208 c 68.8525,24.76652 90.21378,81.86268 40.35,146.25792 -11.14,-0.85 -6.63727,-7.71188 -5.27072,-8.3698 50.18934,-70.39804 13.23457,-114.47766 -36.92117,-130.15319 -0.96,-2.1 0.44189,-7.04493 1.84189,-7.73493 z"
     id="path112"
     inkscape:connector-curvature="0"
     style="fill:#393d46"
     sodipodi:nodetypes="ccccc" />
  <path
     d="m 261.21,325.21 c 6.03,-10.41 11.87,10.06 21.8,5.57 2.08,2.78 -1.19,5.65 -2,8.24 -10.35,23.41 -17.56,48.41 -18.2,74.17 -10.96729,-3.56702 -28.27142,-19.11373 -35.6,-9 1.51,-5.04 0.83,-10.54 3.46,-15.26 -4.18,-10.82 -14.44,-15.02 -25.09,-16.99 13.28,-2.15 24.83,10.94 38.14,6.83 4.13,-5.79 8.06,-16.9 0.26,-21.68 -6.44,-1.38 -8.8,-7.85 -12.14,-12.74 4.57,0.69 10.98,-0.16 12.26,-5.4 3.43,-4.23 5.7,8.84 8.52,3.61 1.59,-5.51 0.19,-11.21 1.04,-16.76 2.66,0.22 5.18,0.03 7.55,-0.59 z"
     id="path114"
     inkscape:connector-curvature="0"
     style="fill:#5b5351"
     sodipodi:nodetypes="cccccccccccccc" />
  <path
     fill="#272121"
     d=" M 237.15 335.19 C 242.90 332.52 248.33 329.24 253.66 325.80 C 252.81 331.35 254.21 337.05 252.62 342.56 C 249.80 347.79 247.53 334.72 244.10 338.95 C 242.82 344.19 236.41 345.04 231.84 344.35 C 229.10 344.18 225.74 344.25 227.78 340.74 C 230.99 339.05 234.13 337.22 237.15 335.19 Z"
     id="path116" />
  <path
     d="M 352.61666,336.8027 C 380.4115,325.61157 411.0576,332.07155 433.6,350.41 c 29.48,24.3 25.32,70.84 3.34,98.56 -32.81834,38.70573 -85.08711,32.0792 -113.26597,3.04542 -32.65298,-49.9636 -13.06928,-96.89514 28.94263,-115.21272 z"
     id="path118"
     inkscape:connector-curvature="0"
     style="fill:#101011"
     sodipodi:nodetypes="ccccc" />
  <path
     d="m 151.95,340.89 c 21.70347,11.17306 14.97262,20.79559 27.61179,31.48232 -1.58,1.32 -0.58179,-1.03209 -2.01179,0.45768 -2.64,-1.4 -5.26,0.56 -7.99,0.34 1.73238,-12.55701 -6.65829,-8.32228 -15.79,-23.32 -4.53,9.95 0.95,21.02 3.43,30.3 -4.89,10.85 2.67,25.7 -6.11,34.42 -4.02,-0.79 -6.16,3.53 -9.28,5.28 -6.06,5.48 -3.10382,15.99981 3.11,21.26 3.78,1.28 7.15,5.37 11.1,2.26 9.85,15.68 4.52,35.28 8.37,53.04 -0.37,2.53 2.64,6.35 -0.38,7.76 -7.79,-11.21 -15.45,-23.11 -19.9,-36.2 -16.9,-39.44 -11.98,-85.69 7.56,-123.27 1.9,-3.54 -2.39,-2.63 -4.62,-2.78 1.11,-1.41 3.32,-0.75 4.9,-1.03 z"
     id="path120"
     inkscape:connector-curvature="0"
     style="fill:#5b626f"
     sodipodi:nodetypes="cccccccccccccccc" />
  <path
     d="m 212.5,350.09 c 5.59,-2.34 9.95,-6.64 15.28,-9.35 -2.04,3.51 1.32,3.44 4.06,3.61 3.34,4.89 5.7,11.36 12.14,12.74 7.8,4.78 3.87,15.89 -0.26,21.68 -13.31,4.11 -24.86,-8.98 -38.14,-6.83 -1.39,0.28 -2.61,1 -3.85,1.64 -3.63,-0.21 -7.24,-0.64 -10.87,-0.66 1.6,-0.63 3.13,-1.42 4.52,-2.42 5.32973,-3.06899 21.38934,-6.68495 17.12,-20.41 z"
     id="path122"
     inkscape:connector-curvature="0"
     style="fill:#826772"
     sodipodi:nodetypes="cccccccccc" />
  <path
     fill="#b2b2bc"
     d=" M 147.05 341.92 C 149.28 342.07 153.57 341.16 151.67 344.70 C 132.13 382.28 127.21 428.53 144.11 467.97 L 144.07 468.91 C 142.17 469.08 139.35 469.56 139.00 466.98 C 134.96 448.43 126.89 430.43 127.23 411.26 C 128.36 397.97 129.72 384.63 133.94 371.89 C 137.29 361.49 141.63 351.40 147.05 341.92 Z"
     id="path124" />
  <path
     fill="#5a5a5b"
     d=" M 366.01 347.05 C 388.10 338.70 414.71 346.74 428.79 365.59 C 426.20 367.48 427.84 369.83 429.27 371.89 C 413.85 363.35 398.63 349.33 379.30 352.44 C 358.76 355.33 334.71 367.33 332.01 390.14 C 328.84 398.39 328.79 407.30 328.96 416.02 C 322.21 389.62 338.21 356.14 366.01 347.05 Z"
     id="path126" />
  <path
     d="m 157.2,380.15 c -2.48,-9.28 -7.96,-20.35 -3.43,-30.3 8.14431,12.25642 21.56568,14.08729 15.79,23.32 -5.99,5.76 -2.3,19.75 -1.39,28.69 -1.57,11.87 16.19,10.26 14.7,22.31 -10.72,3.59 -4.6,-9.48 -13.67,-8.94 -6.26,-2.13 -6.86,6.48 -12.85,2.47 -2.76,-1.19 -4.1,-0.72 -2.34,2.12 -4.05,-0.52 -8.22,-1.25 -12.2,0.03 3.12,-1.75 5.26,-6.07 9.28,-5.28 8.78,-8.72 1.22,-23.57 6.11,-34.42 z"
     id="path128"
     inkscape:connector-curvature="0"
     style="fill:#8a93a4"
     sodipodi:nodetypes="ccccccccccc" />
  <path
     fill="#8a8c83"
     d=" M 332.01 390.14 C 334.71 367.33 358.76 355.33 379.30 352.44 C 398.63 349.33 413.85 363.35 429.27 371.89 C 433.22 377.56 435.49 384.18 437.38 390.77 C 435.96 402.80 419.72 398.40 416.89 388.99 C 407.97 358.60 363.62 354.61 346.21 378.84 C 340.13 374.17 334.30 384.88 332.01 390.14 Z"
     id="path130" />
  <path
     d="m 416.89,388.99 c -0.51,9.14 3.47,22.14 13.15,25.08 9.03,-3.41 10.02,-15.1 7.34,-23.3 -1.89,-6.59 -4.16,-13.21 -8.11,-18.88 -1.43,-2.06 -3.07,-4.41 -0.48,-6.3 12.26,14 16.65,38.08 10.25,54.2 -0.1,-0.49 -0.3,-1.47 -0.41,-1.96 -3.51,8.55 -6.96,17.8 -13.76,24.17 -17.08808,-3.33917 -36.29191,3.01762 -50.54,1.1 -21.05266,-3.29695 -38.27205,-20.43677 -34.03,-49.88 10.38716,-45.43359 68.82168,-35.59354 76.59,-4.23 z"
     id="path134"
     inkscape:connector-curvature="0"
     style="fill:#2a2b2e"
     sodipodi:nodetypes="ccccccccccc" />
  <path
     fill="#2a282e"
     d=" M 182.07 368.61 C 185.17 367.01 188.49 365.75 192.03 365.75 C 192.75 366.57 193.44 367.42 194.09 368.31 C 194.42 368.86 195.06 369.95 195.38 370.50 C 193.99 371.50 192.46 372.29 190.86 372.92 C 186.60 374.47 181.50 375.86 177.55 372.83 C 178.98 371.34 180.49 369.93 182.07 368.61 Z"
     id="path136" />
  <path
     fill="#494f5a"
     d=" M 628.05 366.50 C 633.20 372.70 645.21 379.89 632.87 386.98 C 632.29 385.62 631.74 384.25 631.04 382.96 C 628.52 378.91 619.96 377.20 624.77 371.64 C 619.56 376.20 613.13 369.62 608.13 374.08 C 607.38 363.88 621.83 370.36 628.05 366.50 Z"
     id="path138" />
  <path
     fill="#4a4b5c"
     d=" M 123.49 367.59 C 122.97 373.59 130.25 377.70 133.94 371.89 C 129.72 384.63 128.36 397.97 127.23 411.26 C 124.81 396.91 123.40 382.05 123.49 367.59 Z"
     id="path140" />
  <path
     d="m 373.33,369.43 c 36.92725,7.19492 27.38025,64.92483 -0.2,65.31 -40.44111,-6.22382 -31.83671,-65.30546 0.2,-65.31 z"
     id="path142"
     inkscape:connector-curvature="0"
     style="fill:#101010"
     sodipodi:nodetypes="ccc" />
  <path
     fill="#7d8184"
     d=" M 509.88 371.89 C 513.19 371.42 516.47 371.21 519.82 371.08 C 525.57 376.81 537.64 379.87 533.59 390.41 C 527.03 390.83 519.15 389.64 512.01 386.99 C 505.41 385.67 506.86 375.79 509.88 371.89 Z"
     id="path144" />
  <path
     d="m 169.56,373.17 c 2.73,0.22 5.35,-1.74 7.99,-0.34 3.95,3.03 9.05,1.64 13.31,0.09 3.63,0.02 7.24,0.45 10.87,0.66 15.39,7.15 16.52,29.67 3.12,39.46 3.23,2.2 8.77,2.48 12.1,-0.26 6.85,-1.24 3.11,7.45 2.39,11.59 -1.21,7.47 -20.32,4.07 -8.69,8.57 12.68,9.48 11.05,31.65 -3.91,38.02 5.25,0.05 11.1,-0.34 15.18,-4.05 8.44,-3.93 3.93,6.37 0.64,9.69 -4.71,2.79 -10.54,1.48 -15.49,3.59 6.02,11.17 -10.76,16.88 -9.22,26.96 20.45175,19.34288 69.58471,82.77378 45.27,77.38 6.36984,34.89652 33.08719,119.2712 49.12973,144.21195 C 242.30728,709.74445 187.0886,583.42726 177.45,551.32 c -2.32,-10 -2.02,-21.71 -7.48,-30.55 9.1,-17.57 -7.08,-37.64 -2.71,-56.45 0.18,-12.34 6.79,-26.01 16.39,-30.98 1.167,-3.30527 -0.49966,-6.7834 -0.78,-9.17 1.49,-12.05 -16.27,-10.44 -14.7,-22.31 -0.91,-8.94 -4.6,-22.93 1.39,-28.69 z"
     id="path146"
     inkscape:connector-curvature="0"
     style="fill:#b1b4c1"
     sodipodi:nodetypes="cccccccccccccccccccccc" />
  <path
     fill="#332e2f"
     d=" M 201.73 373.58 C 202.97 372.94 204.19 372.22 205.58 371.94 C 216.23 373.91 226.49 378.11 230.67 388.93 C 228.04 393.65 228.72 399.15 227.21 404.19 C 224.18 407.48 220.33 409.87 216.95 412.78 C 213.62 415.52 208.08 415.24 204.85 413.04 C 218.25 403.25 217.12 380.73 201.73 373.58 Z"
     id="path148" />
  <path
     d="m 608.13,374.08 c 5,-4.46 11.43,2.12 16.64,-2.44 -4.81,5.56 3.75,7.27 6.27,11.32 -4.41,1.78 -6.98,-3.8 -11.2,-4.07 4.36,5.03 -0.46,19.46 7.15,19.16 -4.35,4.36 -8.92,8.95 -14.91,10.93 -6.79274,-0.57437 -18.4108,-19.96246 -14.63,-14.29 6.37,-5.66 3.2,-15.41 10.68,-20.61 z"
     id="path150"
     inkscape:connector-curvature="0"
     style="fill:#72848d"
     sodipodi:nodetypes="cccccccc" />
  <path
     d="m 189.41,376.34 c 20.51,-5.83 30.37,27.71 10.52,34.61 -22.75131,3.42391 -27.95718,-29.15383 -10.52,-34.61 z"
     id="path152"
     inkscape:connector-curvature="0"
     style="fill:#383334"
     sodipodi:nodetypes="ccc" />
  <path
     fill="#96a3b4"
     d=" M 332.01 390.14 C 334.30 384.88 340.13 374.17 346.21 378.84 C 343.68 383.38 341.53 388.16 340.30 393.22 C 339.98 391.97 340.40 388.32 338.69 390.84 C 331.82 400.29 330.08 413.18 335.04 423.98 C 336.31 426.67 337.55 429.65 335.09 432.09 C 331.97 427.75 330.03 421.51 328.96 416.02 C 328.79 407.30 328.84 398.39 332.01 390.14 Z"
     id="path154" />
  <path
     d="m 619.84,378.89 c 4.22,0.27 6.79,5.85 11.2,4.07 1.82618,3.08 1.92821,1.61962 1.64821,4.71962 -0.49,2.21 -4.13821,8.75038 -5.69821,10.37038 -7.61,0.3 -2.79,-14.13 -7.15,-19.16 z"
     id="path156"
     inkscape:connector-curvature="0"
     style="fill:#bbc6d1"
     sodipodi:nodetypes="ccccc" />
  <path
     fill="#b0c6d3"
     d=" M 609.32 381.29 C 610.81 382.85 605.08 395.59 612.90 399.99 C 603.16 407.04 601.62 385.68 609.32 381.29 Z"
     id="path158" />
  <path
     fill="#3f4350"
     d=" M 486.31 382.23 C 495.79 388.67 496.00 407.06 491.73 417.70 C 487.92 423.82 483.01 414.36 482.30 410.82 C 479.53 401.76 475.99 387.34 486.31 382.23 Z"
     id="path160" />
  <path
     fill="#4e535e"
     d=" M 630.18 392.24 C 630.65 390.51 631.34 388.83 632.79 387.69 C 630.33 393.53 631.64 400.57 638.13 393.95 C 644.88 397.36 637.70 401.82 635.07 405.11 C 631.33 414.24 620.65 410.48 613.50 410.19 C 613.14 409.89 612.44 409.28 612.08 408.98 C 618.07 407.00 622.64 402.41 626.99 398.05 C 628.55 396.43 629.69 394.45 630.18 392.24 Z"
     id="path164" />
  <path
     fill="#50534b"
     d=" M 416.89 388.99 C 419.72 398.40 435.96 402.80 437.38 390.77 C 440.06 398.97 439.07 410.66 430.04 414.07 C 420.36 411.13 416.38 398.13 416.89 388.99 Z"
     id="path166" />
  <path
     d="m 338.69,390.84 c 1.71,-2.52 1.29,1.13 1.61,2.38 -3.0874,16.06025 5.43994,35.79037 18.71,44 4.63,3.05 10.11,4.21 15.32,5.88 -3.74,7.64 -13.46,6.8 -20.52,7.18 5.87,5.05 13.18,7.48 20.53,9.46 -1.8,0.15 -3.59,0.26 -5.38,0.33 -14.61,-3.91 -27.51,-14.16 -33.87,-27.98 2.46,-2.44 1.22,-5.42 -0.05,-8.11 -4.96,-10.8 -3.22,-23.69 3.65,-33.14 z"
     id="path168"
     inkscape:connector-curvature="0"
     style="fill:#c3d8eb"
     sodipodi:nodetypes="cccccccccc" />
  <path
     d="m 262.81,413.19 c 5.66,14.39 13.56,29.1 20.09,43.77 7.50394,6.29648 -3.59203,61.74044 -39.79,51.16 25.16292,4.6864 35.98426,-0.60909 31.72617,19.71617 -8.06595,41.3484 -21.85997,8.03822 -37.17617,25.50383 3.58,8.89 14.48,13.09 16.33,22.77 -6.09,-5.47 -11.51,-11.6 -17.14,-17.51 1.24,-8.52 -10.04,-8.73 -8.96,-16.7 4.28,-6.11 -6.99,-8.61 -10.85,-12 -5.22,-9.21 -9.55,-19.06 -13.11,-29.02 10.34,7.76 24.58,-3.81 34.63,4.68 3.47,-7.84 16.35,0.44 20.48,-6.6 -3.34,-7.97 -10.99,-14.19 -11.28,-23.65 -0.14,-11.47 -12.5,-13.96 -21.71,-12.3 8.69,-3.46 3.09,-16.37 11.81,-17.58 3.04,-12.9 -12.45,-7.12 -17.78,-13.47 -2.82,-3.33 -7,-1.83 -9.43,0.98 -11.63,-4.5 7.48,-1.1 8.69,-8.57 0.72,-4.14 4.46,-12.83 -2.39,-11.59 3.38,-2.91 7.23,-5.3 10.26,-8.59 6.6636,-10.46233 25.29551,5.46303 35.6,9 z"
     id="path170"
     inkscape:connector-curvature="0"
     style="fill:#6d656f"
     sodipodi:nodetypes="ccccccccccccccccccccc" />
  <path
     d="m 580.31,409.2 c 9.93,-6.05 9.49,6.13 17.97,6.45 1.56,4.95 7.03,2.06 10.64,4.36 5.32,-1.36 -0.32,-12.14 -4.1,-6.18 -6.1,4.59 2.32,-8 5.87,-2.54 7.64,5.48 0.33,14.1 -7.46,11.61 -3.37,-2.98 -7.85,-0.16 -11.83,-0.54 1.44,4.01 -0.5,6.75 -3.61,8.83 9.69,2.85 0.15,7.95 -4.76,3.8 -3.75,-6.88 -13.81,6.26 -5.98,7.96 11.13463,11.42337 -1.40628,15.73892 -4.2,10.14 -3.75,8.72 -15.55,-10.86 -4.37,-9.31 0.63,16.19 8.43,-16.58 -5.12,-11.39 -6.64,-5.89 26.02,-0.43 13.61,-9.71 -4.19,11.01 -3.03,-8.7 -10.2,1 -3.11,11.57 -1.11,-8.02 -6.31,1.52 -6.07,-13.42 -23.69,1.8 -31.72,-8.03 1.54,-1.15 3.96,-1.8 3.96,-4.11 14.73272,5.53442 33.64676,3.14898 47.61,-3.86 z"
     id="path172"
     inkscape:connector-curvature="0"
     style="fill:#748183"
     sodipodi:nodetypes="ccccccccccccccccccc" />
  <path
     d="m 156.35,417.7 c 5.99,4.01 6.59,-4.6 12.85,-2.47 9.07,-0.54 2.95,12.53 13.67,8.94 1.90998,4.49624 1.32554,5.48603 0.78,9.17 -5.87567,-11.72666 -21.31688,12.31646 -30.11702,5.26193 4.95397,-2.57377 6.32494,-12.17773 0.47702,-18.78193 -1.76,-2.84 -0.42,-3.31 2.34,-2.12 z"
     id="path176"
     inkscape:connector-curvature="0"
     style="fill:#727584"
     sodipodi:nodetypes="ccccccc" />
  <path
     d="m 256.15666,418.03419 c 11.78205,3.37206 8.37627,19.20456 -0.49666,20.41792 -9.61253,-2.45225 -8.08666,-19.37542 0.49666,-20.41792 z"
     id="path178"
     inkscape:connector-curvature="0"
     style="fill:#c0c9d2"
     sodipodi:nodetypes="ccc" />
  <path
     d="m 424.87,442 c 6.8,-6.37 10.25,-15.62 13.76,-24.17 0.11,0.49 0.31,1.47 0.41,1.96 -2.84,11.91 -10.23,25.22 -21.12,31.21 0.63,-1.13 0.6,-2.41 0.6,-2.41 -7.33656,7.93383 -24.17,10.33 -37.15,11.51 0.26,-4.86 -2.58,-15.62 6.43,-13.08 2.76,2.34 6.24,4.76 7.22,-0.99 3.93,-5.69 -7.35714,-2.66383 -10.77714,-4.01383 11.29,0.42 22.09714,-11.90617 33.62714,-11.27617 8.95,-3.15 -1.65,13.21 7,11.26 z"
     id="path180"
     inkscape:connector-curvature="0"
     style="fill:#555250"
     sodipodi:nodetypes="ccccccccccc" />
  <path
     d="m 154.01,419.82 c 10.26087,12.78818 3.75414,19.88863 -9.09,21.29 -12.76657,-12.18647 -7.61028,-26.82109 9.09,-21.29 z"
     id="path182"
     inkscape:connector-curvature="0"
     style="fill:#c2d2e2"
     sodipodi:nodetypes="ccc" />
  <path
     d="m 566.77,423.68 c 7.17,-9.7 6.01,10.01 10.2,-1 12.41,9.28 -20.25,3.82 -13.61,9.71 13.55,-5.19 5.75,27.58 5.12,11.39 -11.18,-1.55 0.62,18.03 4.37,9.31 9.64877,-1.36284 8.12392,7.55964 10.6,19.1 -0.68,4.01 -2.88,9.45 1.56,12.21 0.39,-4.74 9.73,-11.61 8.62,-3.02 1.49,5.15 -1.54,6.88 -4.68,9.78 -8.28,1.78 -16.14,5.08 -24.35,7.11 -2.59,-2 -6.08,-2.43 -8.64,-4.31 -4.46,-5.82 7.91,-8.82 4.04,-14.9 5.49,5.2 15.87,5.99 20.34,-0.71 3.64,-5.93 -10.36,3.46 -6.45,-2.52 2.52,-4.39 9.74,-11.5 3.51,-15.5 -8.7584,1.66017 -13.07083,-0.38409 -20.81,10.47 -6.35,1.93 -13.6,3.29 -18.95,7.2 2.81,4.27 9.47,0.99 12.52,4.92 0.54,4.81 1.41,13.16 -4.68,15.34 -7.48,2.37 -21.1,-8.64 -24.32,0.9 0.68,-9.64 -8.87,1.66 -4.21,5.86 -2.85,-4.9 -14.35,-1.13 -11.42,-8.39 4,2.44 14.81,-4.72 8.6,-7.71 7.18,-5.42 -8.07,-14.12 1,-17.71 7.32,1.8 8.75,-6.32 14.93,-7.45 -8.11,-5.24 1.81,-10.48 4.41,-16.36 5.25,0.56 11.15,-2.38 15.08,-1.59 1.82,8.65 6.4,-5.09 10.46,-3.9 0.20559,-7.64759 0.52155,-12.21872 0.45,-16.71 5.2,-9.54 3.2,10.05 6.31,-1.52 z"
     id="path184"
     inkscape:connector-curvature="0"
     style="fill:#54625e"
     sodipodi:nodetypes="cccccccccccccccccccccccccccccc" />
  <path
     d="m 591.4,422.36 c 3.98,0.38 8.46,-2.44 11.83,0.54 -0.35,6.25 0.29,12.5 0.42,18.75 -3.35,5.4 -11.69,0.17 -16.01,4.64 -10.04106,7.97759 -9.93742,3.1993 -10.59,-3.34 -7.83,-1.7 2.23,-14.84 5.98,-7.96 4.91,4.15 14.45,-0.95 4.76,-3.8 3.11,-2.08 5.05,-4.82 3.61,-8.83 z"
     id="path186"
     inkscape:connector-curvature="0"
     style="fill:#406d5e"
     sodipodi:nodetypes="cccccccc" />
  <path
     d="m 144.11,421.96 c 8.73,-2.92 17.38,11.24 6.89,15.02 -9.26,4.89 -13.29401,-14.22637 -6.89,-15.02 z"
     id="path188"
     inkscape:connector-curvature="0"
     style="fill:#718298"
     sodipodi:nodetypes="ccc" />
  <path
     d="m 183.65,433.34 c -9.6,4.80877 -16.21,18.64 -16.39,30.98 -4.37,18.81 11.81,38.88 2.71,56.45 -9.09,-10.12 -16.65,-21.58 -22.98,-33.6 -1.47988,-1.59309 -7.36547,-15.3382 -2.92,-18.26 l 0.04,-0.94 c 4.45,13.09 12.11,24.99 19.9,36.2 3.02,-1.41 0.01,-5.23 0.38,-7.76 -3.85,-17.76 1.48,-37.36 -8.37,-53.04 -3.95,3.11 -7.32,-0.98 -11.1,-2.26 3.42,-0.37 5.7099,-1.60806 9.0299,-2.50806 17.31612,0.66856 23.42297,-17.12404 29.7001,-5.26194 z"
     id="path192"
     inkscape:connector-curvature="0"
     style="fill:#9397a9"
     sodipodi:nodetypes="cccccccccccc" />
  <path
     fill="#4e403f"
     d=" M 210.65 432.94 C 213.08 430.13 217.26 428.63 220.08 431.96 C 225.41 438.31 240.90 432.53 237.86 445.43 C 229.14 446.64 234.74 459.55 226.05 463.01 C 224.69 464.32 223.32 465.63 221.92 466.91 C 217.84 470.62 211.99 471.01 206.74 470.96 C 221.70 464.59 223.33 442.42 210.65 432.94 Z"
     id="path194" />
  <path
     d="m 192.2,434.07 c 17.44,-8.97 34.49,20.27 17.11,31.24 -24.59412,7.0599 -30.99547,-21.721 -17.11,-31.24 z"
     id="path196"
     inkscape:connector-curvature="0"
     style="fill:#2a282a"
     sodipodi:nodetypes="ccc" />
  <path
     fill="#5d6266"
     d=" M 506.87 440.87 C 507.95 436.89 511.68 434.77 514.92 432.72 C 535.18 428.63 525.91 464.25 511.10 454.00 C 513.87 455.86 523.19 452.04 517.94 450.17 C 508.28 455.27 513.07 437.95 506.87 440.87 Z"
     id="path198" />
  <path
     d="m 374.33,443.1 c 7.62795,-0.22395 25.08991,-3.85228 20.69,2.93 -0.98,5.75 -4.46,3.33 -7.22,0.99 -9.01,-2.54 -6.17,8.22 -6.43,13.08 12.98,-1.18 26.75,-2.77 37.15,-11.51 2.8,-2.13 0.03,1.28 -0.6,2.41 -13.36,10.79 -33.65,13.62 -48.96,9.07 -14.93892,-4.88406 -15.61338,-6.92879 -19.50331,-10.11247 7.06,-0.38 21.13331,0.78247 24.87331,-6.85753 z"
     id="path202"
     inkscape:connector-curvature="0"
     style="fill:#939aa1"
     sodipodi:nodetypes="ccccccccc" />
  <path
     fill="#a5b0b4"
     d=" M 506.87 440.87 C 513.07 437.95 508.28 455.27 517.94 450.17 C 523.19 452.04 513.87 455.86 511.10 454.00 C 509.25 452.09 507.62 449.99 506.08 447.84 C 505.86 445.49 506.17 443.12 506.87 440.87 Z"
     id="path204" />
  <path
     d="m 294.29,464.33 c 4.5,-5.11 -5.51727,-25.08445 5.26273,-19.40445 7.91,19.36 23.39766,30.8526 39.48766,42.8526 8.33,5.66 24.75961,6.73185 30.91961,14.33185 -6.79,12.42 10.75,11.12 15.04,19.66 -2.25,3.66 -15.64,5.91 -3.96,7.11 -0.69,0.03 14.23336,18.09351 13.54336,18.12351 -7.42,-2.65 -19.95723,-7.35936 -29.19336,-13.32351 -29.26315,-12.16712 -74.45497,-39.8325 -82.49,-76.72 3.17,2.96 6.51,10.26 11.39,7.37 z"
     id="path208"
     inkscape:connector-curvature="0"
     style="fill:#4a4e5b"
     sodipodi:nodetypes="cccccccccc" />
  <path
     d="m 577.4,460.33 c 6.23,4 -0.99,11.11 -3.51,15.5 -3.91,5.98 10.09,-3.41 6.45,2.52 -4.47,6.7 -14.85,5.91 -20.34,0.71 -12.84859,-12.658 14.6833,-22.77945 17.4,-18.73 z"
     id="path212"
     inkscape:connector-curvature="0"
     style="fill:#81878f"
     sodipodi:nodetypes="ccccc" />
  <path
     d="m 284.26,473.87 c -4.03316,32.61267 18.95983,60.0252 28.83,71.94 -1.25,23.21 4.12,45.91 11.1,67.17 -2.91925,1.47516 -5.98247,2.9549 -8.64,4.39 -25.03698,-10.90555 -35.02146,-9.63102 -53.83,-25.88 3.34,-6.06 -4.76,-10.57 -7.73,-15.38 -1.85,-9.68 -12.75,-13.88 -16.33,-22.77 0.32,-4.99 -3.59,-12.41 3.11,-14.62 17.54491,9.74109 31.58384,4.7339 33.26,-11.69 5.42559,-24.82166 -27.56188,-10.94975 -30.92,-18.91 4.08,-4.68 11.2,0.07 16.36,-2.47 12.15,-2.87 -0.42,-19.99 7.91,-26.2 6.05,1.68 12.62,-5.67 8.11,-10.61 -4.22445,-5.0512 17.45126,-7.71319 8.77,5.03 z"
     id="path214"
     inkscape:connector-curvature="0"
     style="fill:#4c4a53"
     sodipodi:nodetypes="cccccccccccccc" />
  <path
     d="m 226.05,463.01 c 9.21,-1.66 21.57,0.83 21.71,12.3 0.29,9.46 7.94,15.68 11.28,23.65 -4.13,7.04 -17.01,-1.24 -20.48,6.6 -10.05,-8.49 -24.29,3.08 -34.63,-4.68 3.56,9.96 7.89,19.81 13.11,29.02 3.86,3.39 15.13,5.89 10.85,12 -1.08,7.97 10.2,8.18 8.96,16.7 -1.88,3.54 -7.31406,6.99283 -9.27406,3.19283 C 217.91213,538.87791 209.72181,525.28545 197.85,507.15 c -1.54,-10.08 15.24,-15.79 9.22,-26.96 4.95,-2.11 10.78,-0.8 15.49,-3.59 3.29,-3.32 7.8,-13.62 -0.64,-9.69 1.4,-1.28 2.77,-2.59 4.13,-3.9 z"
     id="path216"
     inkscape:connector-curvature="0"
     style="fill:#a68b98"
     sodipodi:nodetypes="cccccccccccccc" />
  <path
     fill="#3a413b"
     d=" M 537.64 478.00 C 542.99 474.09 550.24 472.73 556.59 470.80 C 557.32 473.69 557.83 476.83 560.00 479.06 C 563.87 485.14 551.50 488.14 555.96 493.96 C 558.52 495.84 562.01 496.27 564.60 498.27 C 558.63 500.37 550.96 501.99 545.48 498.26 C 551.57 496.08 550.70 487.73 550.16 482.92 C 547.11 478.99 540.45 482.27 537.64 478.00 Z"
     id="path218" />
  <path
     fill="#333238"
     d=" M 145.88 487.95 C 145.95 485.90 146.32 485.64 146.99 487.17 C 153.32 499.19 160.88 510.65 169.97 520.77 C 175.43 529.61 175.13 541.32 177.45 551.32 C 166.57 530.41 155.81 509.30 145.88 487.95 Z"
     id="path226" />
  <path
     d="m 727.69,491.29 c 4.8,0.54 14.02038,-0.65821 14.17,2.98 0.09,8.51 4.26,23.01 -8.86,18.6 -0.8,-7.4 -3.12,-14.56 -5.31,-21.58 z"
     id="path230"
     inkscape:connector-curvature="0"
     style="fill:#545454"
     sodipodi:nodetypes="cccc" />
  <path
     d="M 514.77546,494.14358 C 522.68,490.33828 535.9,504.28 543.35,506.91 c 1.73025,23.62708 31.02672,31.14863 21.39,52.77 -20.52721,24.90651 -49.31315,39.9803 -73.46,57.63 -3.16904,28.98147 44.89562,95.35116 33.32,138.25 4.44,3.81 12.79,8.37 18.75,4.69 22.62201,-1.08432 -39.12014,40.91556 -57.74,66.33 -8.18,1.55 -11.51,9.61 -11.67,17.3 5.45,1.69 14.45,0.55 14.91,8.34 -6.94,1.11 -17.45,2.11 -25.96,2.93 -8.18529,-5.06141 -19.98199,-17.48107 -18.86,-20.07 20.94249,-7.22039 41.42974,-15.19052 52.06,-34.97 9.8782,-25.58291 54.32882,-28.86751 22.45,-39.74 -6.43094,-13.27563 -0.90533,-33.48644 -19.58,-43.3 -1.9,-2.04 -8.43,-4.26 -4.76,-7.86 4.86817,-36.13292 -14.80483,-36.56151 -22.83,-82.63 -11.2943,-18.12828 -19.92774,-21.70101 -44.32,-34.67 -8.0942,0.73208 -7.31,-6.21 -8.04,-10.71 13.63,-7.7 33.74,2.87 47.94,-8.09 20.38,-10.66 37.7,-26.99 49.31,-46.86 -2.80418,-14.09448 -8.55623,-28.75629 -1.48454,-32.10642 z"
     id="path232"
     inkscape:connector-curvature="0"
     style="fill:#473e3f"
     sodipodi:nodetypes="ccccccccccccccccccccc" />
  <path
     d="m 285.19197,464.05203 c 1.64749,1.92363 3.136,13.92476 31.46987,39.07353 6.56406,9.26598 37.8742,25.56356 48.72816,30.55444 12.7953,7.66012 15.3995,6.18691 29.03,12.92 -6.31,4.01 -6.14,8.8 1.61,9.44 -5.66,8.67 -17.79,15.41 -13.25,28 -18.49059,-1.48511 -26.87216,-4.89748 -39.37212,-13.21797 0.83,-5.49 19.39212,-12.67203 5.71212,-12.00203 -6.84,-3.09 8.98,-10.46 2.64,-15.54 -11.58752,-11.42085 -32.58686,-2.61804 -32.59,-6.91 8.04,-2.23 14.98,-15.15 4.16,-18.69 -11.82602,14.10451 -19.42469,15.86421 -19.47,19.42 -7.02,-9.16 -26.38192,-39.49462 -18.66803,-73.04797 z"
     id="path234"
     inkscape:connector-curvature="0"
     style="fill:#958680"
     sodipodi:nodetypes="ccccccccccccc" />
  <path
     d="m 240.77,538.72 c -160.513333,214.85333 -80.25667,107.42667 0,0 z"
     id="path238"
     inkscape:connector-curvature="0"
     style="fill:#bcab95"
     sodipodi:nodetypes="cc" />
  <path
     d="m 323.33,517.68 c 10.82,3.54 3.88,16.46 -4.16,18.69 8.09941,3.27937 23.27345,-4.16389 32.59,6.91 6.34,5.08 -9.48,12.45 -2.64,15.54 13.68,-0.67 -4.76811,7.08208 -5.59811,12.57208 C 330.75189,565.61208 322.83,555.64 313.09,545.81 c -2.74,-3.28 -5.33,-6.8 -9.23,-8.71 0.53618,-2.33805 -2.40178,0.16138 19.47,-19.42 z"
     id="path240"
     inkscape:connector-curvature="0"
     style="fill:#b3a6a6"
     sodipodi:nodetypes="cccccccc" />
  <path
     d="m 193.04,518.27 c 3.19,-2.87 4.84,4.92 6.91,6.68 5.72,13.8 17.31,23.43 25.73,35.07 -1.82,5.92 0.58,10.2 6.39,11.98 8.89,8.03 19.28,13.72 29.65,19.49 36.61438,23.05181 56.41805,23.86833 53.98352,26.46611 -12.28396,-1.34783 -33.34822,-9.66536 -44.81832,-16.15753 -33.83847,-19.12598 -63.68666,-43.94317 -94.08735,-67.94039 -3.90501,-4.00587 -3.62565,-1.95096 -6.71126,-13.04353 C 181.23451,534.41316 208.02,556.31 220.09,564.19 c 5.16,-2.74 -1.7,-9.03 -5.8,-7.54 -8.76,-11.36 -20,-22.79 -21.25,-38.38 z"
     id="path242"
     inkscape:connector-curvature="0"
     style="fill:#9090a1"
     sodipodi:nodetypes="cccccccccccc" />
  <path
     d="m 251.33,533.83 c -167.553333,218.11333 -83.77667,109.05667 0,0 z"
     id="path244"
     inkscape:connector-curvature="0"
     style="fill:#6d5448"
     sodipodi:nodetypes="cc" />
  <path
     d="m 616.71,532.28 c 3.46,4.43 5.39,12.89 0.25,16.87 3.84,7.08 21.1,9.17 14.66,19.44 -5.58,2.3 0.5,11.91 -6.57,13.5 -5.58,4.29 -8.19,-7.2 -14.1,-2.15 -1.97321,4.86029 -1.41221,25.84634 1.75,30.38 -2.68633,8.30035 -16.84322,5.02842 -25.54,5.72 -1.18,4.43 -0.69,9.54 -4.49,12.86 -20.99057,-3.02581 -34.05994,0.0377 -45.39,-18.18 -5.41508,-6.7346 3.73673,-19.64708 11.79623,-29.35174 33.4071,-27.22829 33.00694,-57.76224 67.63377,-49.08826 z"
     id="path246"
     inkscape:connector-curvature="0"
     style="fill:#1c1c1c"
     sodipodi:nodetypes="ccccccccccc" />
  <path
     d="m 416.71,548.28 c 6.21067,-1.96216 11.01218,-4.27509 17.08,-1.19 37.78671,1.27607 30.33136,4.64279 33.82258,25.60638 -22.12176,16.13865 -66.128,15.24417 -83.18954,11.52787 -0.25,5.25 2.84696,5.00575 7.77696,3.23575 -12.44,2.31 -26.29,1.05 -37.5,8.23 -10.94527,6.06757 -20.86058,15.49096 -30.51,17.29 -6.98,-21.26 -12.35,-43.96 -11.1,-67.17 22.70699,21.64053 41.10929,35.41513 69.69,38.23 -4.54,-12.59 7.59,-19.33 13.25,-28 14.15879,-8.90388 18.04152,-8.77019 20.68,-7.76 z"
     id="path250"
     inkscape:connector-curvature="0"
     style="fill:#7a6163"
     sodipodi:nodetypes="ccccccccccc" />
  <path
     d="m 420.43512,586.15942 c 0.73,4.5 0.91488,5.57058 6.61488,5.75058 16.56,4.44 33.02,11.79 50.51,10.77 10.492,-8.79219 44.12243,-39.87342 50.68,-34.43 -2.25632,20.48952 -61.51858,47.48797 -56.87,58.33 3.59566,25.58162 35.97142,63.58005 22.83,82.63 -3.67,3.6 2.86,5.82 4.76,7.86 19.30122,6.07679 18.15631,40.46736 19.58,43.3 36.43171,6.81027 -17.11557,28.11867 -22.45,39.74 -8.28524,29.50718 -50.51758,34.42091 -52.06,34.97 3.55695,7.9616 7.87188,11.2179 18.86,20.07 -11.56,1.11 -27.41,5.91 -40.25,0.91 -21.95687,-28.4809 68.30046,-207.97866 -8.43,-258.35 1.76,7.1 7.61,15.01 2.65,22.11 -6.08,1.93 -14.02,12.09 -18.98,9.39 5.83,-3.26 -1.68038,-10.91 1.61962,-15.91 -1.39,-5.71 -25.00472,-1.39754 -14.17472,-4.42754 22.50416,-26.65083 -1.66632,-10.36743 -0.95886,-24.87623 15.23282,2.24791 21.67135,2.82952 36.06908,2.16319 z"
     id="path254"
     inkscape:connector-curvature="0"
     style="fill:#5a5557"
     sodipodi:nodetypes="ccccccccccccccccccc" />
  <path
     d="m 232.07,572 c -6.75298,-1.66363 -8.04184,-8.44995 -6.70845,-11.82189 1.96,3.8 9.60845,1.96189 11.48845,-1.57811 5.63,5.91 11.05,12.04 17.14,17.51 2.97,4.81 11.07,9.32 7.73,15.38 -10.37,-5.77 -20.76,-11.46 -29.65,-19.49 z"
     id="path256"
     inkscape:connector-curvature="0"
     style="fill:#c1cce2"
     sodipodi:nodetypes="cccccc" />
  <path
     d="m 676.44,562.14 c 5.21,9.62 -6.93,18.47 -7.96,28.43 -12.04,30.12 -17.7,63.79 -40.67,88.06 -6.98,-3.85 -0.21,-14.19 2.55,-20.16 2.79,-12.19 10.83,-22.78 9.32,-35.64 -2.96932,-21.48197 0.81752,-26.86006 7.13,-30.01 7.91,-4.94 11.93,-13.34 17.62,-20.26 1.7,-5.88 10.26,-4.18 12.01,-10.42 z"
     id="path258"
     inkscape:connector-curvature="0"
     style="fill:#353636"
     sodipodi:nodetypes="cccccccc" />
  <path
     d="m 243.46203,584.41599 c 77.9998,51.10814 72.6323,20.83336 90.39092,45.11538 22.14609,14.35214 13.08809,49.72872 11.75962,62.89968 2.53689,44.49592 12.29657,35.58574 8.35743,55.55895 3.28,6.73 7.21,12.93 0.03,19.01 -11.18711,-17.10865 -28.69319,2.67658 -25.79,4.08 2.94,3.62 4.56,8.43 9.81,9.16 0.18,6.36 -12.03,1.72 -13.62,7.44 6.79,8.09 14,19.37 26.28,18.07 7.34,0.08 9.68,-7.92 13.21,-12.96 1.39,3.4 3.22,6.63 4.23,10.18 -3.9,-0.69 -8.17,-1.72 -9.49,3.16 -31.67953,41.85792 -44.9968,-43.62195 -65.69621,-75.22187 -14.91513,-19.11945 -54.03737,-144.84228 -49.47176,-146.49214 z"
     id="path260"
     inkscape:connector-curvature="0"
     style="fill:#bfd5f3"
     sodipodi:nodetypes="cccccccccccccc" />
  <path
     d="m 491.28,617.31 c 13.88,-10.08 27.62401,-21.21594 42.90401,-29.83594 C 508.9216,625.7343 524.9974,612.62257 532.4,640.23 c -3.14395,27.88234 -8.64145,32.44159 16.7,39.88 10.07703,22.052 3.83617,7.1069 10.08,32.8 10.7053,-0.3893 26.5423,-14.89705 28.87,-13 5.25,5.61 -3.09,8.23 -7.63,9.64 -8.88,3.42 -13.08,14.8 -23.23,15.38 -26.84185,-13.83403 -16.37734,14.36788 -22.18,27.26 -2.31,6.04 4.3,7.41 8.34,8.06 -5.96,3.68 -14.31,-0.88 -18.75,-4.69 10.76354,-63.90874 -52.94002,-109.70289 -33.32,-138.25 z"
     id="path264"
     inkscape:connector-curvature="0"
     style="fill:#363332"
     sodipodi:nodetypes="cccccccccccc" />
  <path
     d="m 354.7,595.69 c 21.21828,-13.03119 49.48656,-10.08494 48.51057,-1.37811 7.18,6.85 -26.36057,14.74811 -8.07057,14.45811 -6.01566,-2.9 -17.92,6.62 -14.13,16.06 -10.37056,1.68881 -47.12822,-11.26196 -47.2,-17.02 6.88,-4.2 13.78,-8.4 20.89,-12.12 z"
     id="path268"
     inkscape:connector-curvature="0"
     style="fill:#a3a0a9"
     sodipodi:nodetypes="cccccc" />
  <path
     d="m 412.9559,595.08778 c 13.0887,5.14827 46.62965,13.85293 43.13221,24.63222 -11.03,8 -27.58811,11.93 -41.07811,8.64 -4.42,1.84 -17.29,10 -5.89,10.06 l -0.33498,1.12203 C 365.74517,643.78611 330.90568,621.61436 320.84,614.66 c 4.41047,-2.15707 9.05252,-4.768 12.97,-6.85 6.53431,4.05232 21.38271,14.00192 47.2,17.02 3.08,6.29 11.04,7.28 16.87,4.38 4.96,2.7 12.9,-7.46 18.98,-9.39 4.96,-7.1 -2.1441,-17.63222 -3.9041,-24.73222 z"
     id="path270"
     inkscape:connector-curvature="0"
     style="fill:#88858f"
     sodipodi:nodetypes="ccccccccccc" />
  <path
     d="m 437.58807,603.60594 c 9.73,-2.51 15.75193,6.65406 23.21193,11.80406 5.24503,10.82873 9.91271,36.20219 18.65,57.05 -7.58625,17.29958 8.44958,65.60792 31.09,73.13 4.14,4.75 -4.04,13.28 -0.28,19.11 39.86362,4.44766 -76.8692,70.24053 -82.77,68.89 -8.78,-1.41 -11.9,14.07 -2.61,14.63 5.42,1.14 -3.78,4.38 -2.24,7.84 -16.95,-3.43 -35.38,-3.59 -51.34,-10.32 2.25869,-3.84382 2.36184,-6.40816 6.65184,-6.70816 17.71596,-6.52535 45.19317,-1.58254 54.28816,-20.70184 8.34,0.41 17.16,0.74 24.79,-3.28 9.22332,-23.05627 53.8452,-36.08897 47.49,-57.47 -19.03283,-8.4268 -31.64335,-34.45349 -33.2,-49.92 -3.88,-9.3 3.12,-18.8 0.69,-27.92 0.70841,-41.40935 -15.76639,-52.43758 -49.17,-43.4 -4.61,0.44 -9.19,1.16 -13.72,2.08 -11.4,-0.06 1.47,-8.22 5.89,-10.06 13.49,3.29 28.68,-0.64 39.71,-8.64 2.5459,-8.93792 -11.15193,-11.50406 -17.13193,-16.11406 z"
     id="path274"
     inkscape:connector-curvature="0"
     style="fill:#706966"
     sodipodi:nodetypes="cccccccccccccccccccc" />
  <path
     d="m 381.01,624.83 c -3.79,-9.44 4.01,-18.96 14.13,-16.06 10.63462,2.63107 8.87626,16.63561 2.74,20.44 -5.83,2.9 -13.79,1.91 -16.87,-4.38 z"
     id="path276"
     inkscape:connector-curvature="0"
     style="fill:#c3d0df"
     sodipodi:nodetypes="cccc" />
  <path
     d="m 388.23,611.1 c 19.88962,0.79939 6.10705,29.09769 -4.65,12.26 -2.78,-4.96 1.47,-9.15 4.65,-12.26 z"
     id="path278"
     inkscape:connector-curvature="0"
     style="fill:#788697"
     sodipodi:nodetypes="ccc" />
  <path
     d="m 315.55,617.37 c 1.74,-0.94 3.49,-1.88 5.29,-2.71 31.74898,17.93006 52.49581,20.55989 87.66,24.54 5.72,-2.4 5.27,6.01 0.66,5.93 -20.28467,4.70339 -13.42495,23.17106 -30.95,25.32 6.61222,19.30405 32.9474,29.27295 44.38,41.74 -0.6,11.92 -16.61,19.78 -8.59,31.8 3.25,5.54 -2.96,19.79 -9.64,15.85 4.17,-11.02 -24.46,-15.23 -17.61,-1.8 -8.14543,21.49067 20.05814,47.09004 11.37,58.99 -0.27,4.24 -5.98,4.4 -8.94,2.97 -12.88158,-4.57031 -21.46117,-8.50179 -30.55,-13.87 1.32,-4.88 5.59,-3.85 9.49,-3.16 -1.01,-3.55 -2.84,-6.78 -4.23,-10.18 2.66,-3.75 -4.79,-6.13 -7.88,-5.15 0.91,-3.6 1.38,-7.51 -3.12,-8.48 -2.03,-5.57 8.99,2.49 11.67,1.4 6.97,-0.35 11.07,19.79 17.17,10.12 -7.64329,-28.81835 -11.95064,-68.18455 -29.15,-82.32 2.17823,-46.83712 -3.21908,-51.21138 12.56247,-68.68318 C 342.61775,631.98012 336.91835,630.40059 315.55,617.37 z"
     id="path280"
     inkscape:connector-curvature="0"
     style="fill:#b0acb0"
     sodipodi:nodetypes="ccccccccccccccccccccc" />
  <path
     d="m 422.84,636.34 c 11.22,-2.98 22.95,-7.81 34.45,-6.67 2.15492,1.74558 21.71994,38.80535 14.72,50.07 -3.02,5.53 -3.81,17.99 -12.74,16.57 19.45995,35.12873 -19.88421,74.78321 -23.87,111.25 -8.25,8.64 -14.02,23.12 -28.01,22.82 0.43787,1.63177 -7.41785,-2.40031 -6.1,-4.16 3.74,-2.33 10.76,2.39 10.73,-4.11 -0.73,-5.97 5.39,-7.21 9.14,-9.93 -2.39882,-9.98254 -7.32908,-20.47449 2.57,-25.21 -7.28335,-23.02349 -3.74883,-74.48591 11.35,-80.74 -1.25558,-20.83952 11.03599,-28.10562 -21.13,-27.34 -5.3,3.74 -22.61,0.69 -13.94,-7.25 1.3728,-9.00859 12.18746,-29.90571 22.83,-35.3 z"
     id="path286"
     inkscape:connector-curvature="0"
     style="fill:#958f91"
     sodipodi:nodetypes="cccccccccccccc" />
  <path
     d="m 330.68933,625.88443 c 5.98366,3.0124 25.99611,10.43257 36.06548,13.30868 -19.8858,19.21866 -4.43158,36.53959 -14.17481,69.16689 16.47984,8.48667 22.70024,56.67317 29.15,82.32 -6.1,9.67 -10.2,-10.47 -17.17,-10.12 -2.68,1.09 -13.7,-6.97 -11.67,-1.4 -7.48,-0.4 1.65,-7.38 1.11,-12.16 7.18,-6.08 3.25,-12.28 -0.03,-19.01 2.12,-8.45 -9.66,-10.89 -8.01,-19.1 -6.04285,-31.90659 -12.63418,-95.06005 -15.27067,-103.00557 z"
     id="path288"
     inkscape:connector-curvature="0"
     style="fill:#d1d0d6"
     sodipodi:nodetypes="cccccccccc" />
  <path
     d="m 409.12,638.42 c 4.53,-0.92 9.11,-1.64 13.72,-2.08 3.78877,10.95547 -15.17415,28.81001 -22.83,35.3 -8.67,7.94 8.64,10.99 13.94,7.25 10.13,-0.24 21.63,-0.88 29.25,8.35 4.0051,8.44165 2.59935,15.38787 -8.12,18.99 -19.61828,22.70172 -14.64844,55.02674 -11.35,80.74 -5.29235,7.81656 -2.14047,14.23892 -2.57,25.21 -3.75,2.72 -9.87,3.96 -9.14,9.93 0.03,6.5 -6.99,1.78 -10.73,4.11 -0.22556,3.05802 11.2379,5.08425 5.3879,5.65425 C 367.15041,857.7197 341.498,810.56505 389.18,820 c 2.96,1.43 8.67,1.27 8.94,-2.97 6.41146,-15.01532 -26.71175,-46.26156 -11.37,-58.99 -6.85,-13.43 21.78,-9.22 17.61,1.8 6.68,3.94 12.89,-10.31 9.64,-15.85 -8.02,-12.02 7.99,-19.88 8.59,-31.8 -11.80505,-8.42382 -46.33302,-31.06682 -44.38,-41.74 17.10633,-3.95316 14.44516,-25.8006 30.95,-25.32 1.73751,-1.40852 -1.43178,-4.95905 -0.04,-6.71 z"
     id="path290"
     inkscape:connector-curvature="0"
     style="fill:#9e9ba0"
     sodipodi:nodetypes="cccccccccccccccccccc" />
  <path
     d="m 227.99595,659.21383 c 37.97411,32.80591 49.98194,52.13333 64.16949,70.3193 33.72284,25.17446 18.93692,58.72172 42.10456,81.19687 8.4,7.81 18.72604,0.74981 24.36,-4.6 13.00845,-0.55183 22.58403,11.27763 30.55,13.87 -8.63491,-1.89926 -8.91418,25.67469 -17.75547,25.69723 C 297.56343,813.60174 255.7981,722.59069 227.99595,659.21383 z"
     id="path292"
     inkscape:connector-curvature="0"
     style="fill:#9fa6bb"
     sodipodi:nodetypes="ccccccc" />
  <path
     d="m 459.27,696.31 c 8.93,1.42 9.72,-11.04 12.74,-16.57 2.43,9.12 -4.57,18.62 -0.69,27.92 5.8243,32.01644 33.46274,48.77345 33.2,49.92 7.96074,11.27032 -28.47864,42.04396 -47.49,57.47 -7.63,4.02 -16.45,3.69 -24.79,3.28 -4.5,10.16 -15.37,14.85 -26.74,17.21 -8.39041,1.74872 -18.7131,5.71941 -25.61,5.43 5,-10.85 18.32,-6.76 27.5,-10.59 13.99,0.3 19.76,-14.18 28.01,-22.82 -2.93091,-37.76686 17.33764,-75.55363 23.87,-111.25 z"
     id="path294"
     inkscape:connector-curvature="0"
     style="fill:#847c7b"
     sodipodi:nodetypes="ccccccccccc" />
  <path
     d="m 354,767 c 0.54,4.78 -8.59,11.76 -1.11,12.16 4.5,0.97 4.03,4.88 3.12,8.48 3.09,-0.98 10.54,1.4 7.88,5.15 -3.53,5.04 -5.87,13.04 -13.21,12.96 -12.28,1.3 -19.49,-9.98 -26.28,-18.07 1.59,-5.72 13.8,-1.08 13.62,-7.44 -5.25,-0.73 -9.15019,-7.82019 -12.09019,-11.44019 C 325.77225,760.77643 347.6531,753.06516 354,767 z"
     id="path296"
     inkscape:connector-curvature="0"
     style="fill:#e7f3fb"
     sodipodi:nodetypes="ccccccccc" />
  <path
     d="m 545.49,768.35 c 9.72195,3.3079 -33.43895,33.60643 -47.93,47.02 -6.88,0.28 -7.34,10.63 -0.71,11.85 12.63,-0.97 21.69,-12.73 31.65,-19.41 -0.12959,-20.70093 24.12544,-22.48314 39.59,-22.48 -1.93,4.39 0.61,7.06 4.94,4.76 -24.02234,25.72126 -52.43652,53.15007 -84.18,62.13 -0.46,-7.79 -9.46,-6.65 -14.91,-8.34 0.16,-7.69 3.49,-15.75 11.67,-17.3 4.46,-14.76 17.35,-23.88 25.17,-36.73 17.14008,-11.49166 27.82483,-22.1372 34.71,-21.5 z"
     id="path298"
     inkscape:connector-curvature="0"
     style="fill:#353129"
     sodipodi:nodetypes="ccccccccccc" />
  <path
     d="M 505.53419,82.866473 C 522.16466,86.990149 599.83,136.69 605.02,150.19 c -2.12,14.91 14.31,15.52 21.06,24.88 -11.13724,36.62505 15.95762,107.71387 9.27604,109.36453 C 638.81604,281.66453 633.53,270 631.43,268.6 c -8.01,5.22 -7.02,-7.28 -2.73,-11.14 -5.18,-3.49 -9.94,-9.14 -11.24,-15.01 1.48082,-26.41673 -16.94127,-38.0055 -27.37,-56.61 -2.49,-3.31 2.59,-6.06 3.71,-8.94 4.25022,-11.01301 -13.28721,-29.46879 -15.8,-29.89 -8.6,1.01 3.98,9.8 -6.21,8.33 -8.89277,-2.55009 -52.53596,-36.85681 -56.67796,-37.61398 -9.30609,3.26746 -11.94828,-34.658987 -9.57785,-34.859547 z"
     id="path36"
     inkscape:connector-curvature="0"
     style="fill:#4b4d4f"
     sodipodi:nodetypes="ccccccccccccc" />
  <path
     d="m 513.21,489.04 c 7.90266,1.61761 -2.42727,10.18694 -7.68,7.59 1.08068,9.21336 12.53461,1.24276 12.56,11.26 6.4,6.8 -5.35,10.47 -1.83,18.36 -11.61,19.87 -28.93,36.2 -49.31,46.86 -6.01,-1.96 -12.7,-1.95 -18.32,-4.86 20.23942,-32.40972 -9.74187,-6.26062 -14.84,-21.16 -3.6361,-0.79037 -16.72731,2.02705 -17.08,1.19 -3.29,-5.24 5.15,-4.12 8.59,-4.94 23.23689,-9.64125 69.59152,-36.95581 68.4685,-60.71718 7.92,-3.69 10.8215,8.17718 19.4415,6.41718 z"
     id="path228"
     inkscape:connector-curvature="0"
     style="fill:#8d7e77"
     sodipodi:nodetypes="ccccccccccc" />
  <path
     fill="#7e454c"
     d=" M 605.01 480.76 C 605.22 471.23 619.72 482.35 613.10 488.11 C 607.20 502.06 590.12 498.34 578.28 503.31 C 576.28 504.14 576.62 506.41 576.52 508.15 C 572.10 506.23 568.05 502.90 562.79 505.73 C 556.41 507.14 549.86 507.95 543.35 506.91 C 535.90 504.28 522.68 510.86 521.16 499.16 C 524.38 489.62 538.00 500.63 545.48 498.26 C 550.96 501.99 558.63 500.37 564.60 498.27 C 572.81 496.24 580.67 492.94 588.95 491.16 C 595.58 490.61 615.47 489.61 605.01 480.76 Z"
     id="path222" />
  <path
     d="m 552.11,140.37 c 3.57,-6.28 5.32,4.18 10.43,1.07 5.85432,-1.50434 4.27096,16.54086 -5.84,18.37 -13.82,4.08 -11.13029,18.99773 -14.70029,29.60773 -5.19,9.17 -16.78971,20.28227 -8.82971,32.72227 -5.27,-2.93 -8.89,-11.17 -8.78,-17.58 6.01,-8.5 5.13,-20.17 7.84,-30.15 -4.3052,-27.39261 11.86012,-23.45835 19.88,-34.04 z"
     id="path48"
     inkscape:connector-curvature="0"
     style="fill:#626359"
     sodipodi:nodetypes="cccccccc" />
</svg>
