<?xml version="1.0" encoding="UTF-8" standalone="no"?>
<svg
   xmlns:dc="http://purl.org/dc/elements/1.1/"
   xmlns:cc="http://creativecommons.org/ns#"
   xmlns:rdf="http://www.w3.org/1999/02/22-rdf-syntax-ns#"
   xmlns:svg="http://www.w3.org/2000/svg"
   xmlns="http://www.w3.org/2000/svg"
   xmlns:sodipodi="http://sodipodi.sourceforge.net/DTD/sodipodi-0.dtd"
   xmlns:inkscape="http://www.inkscape.org/namespaces/inkscape"
   width="1000"
   height="1000"
   id="svg2"
   version="1.1"
   inkscape:version="0.48.5 r10040"
   sodipodi:docname="recycle.svg">
  <defs
     id="defs4" />
  <sodipodi:namedview
     id="base"
     pagecolor="#ffffff"
     borderopacity="1.0"
     inkscape:pageopacity="0.0"
     inkscape:pageshadow="2"
     inkscape:zoom="1.8111674"
     inkscape:cx="396.98128"
     inkscape:cy="552.2697"
     inkscape:document-units="px"
     inkscape:current-layer="layer1"
     showgrid="false"
     inkscape:window-width="1839"
     inkscape:window-height="1056"
     inkscape:window-x="81"
     inkscape:window-y="24"
     inkscape:window-maximized="1"
     width="380px" />
  <metadata
     id="metadata7">
    <rdf:RDF>
      <cc:Work
         rdf:about="">
        <dc:format>image/svg+xml</dc:format>
        <dc:type
           rdf:resource="http://purl.org/dc/dcmitype/StillImage" />
        <dc:title></dc:title>
      </cc:Work>
    </rdf:RDF>
  </metadata>
  <g
     inkscape:label="Layer 1"
     inkscape:groupmode="layer"
     id="layer1"
     transform="translate(0,-52.3619)">
    <path
       style="fill:#000000"
       d="m 932.9375,77.21875 c -90.43758,58.35162 -176.45331,142.66574 -257.0625,195.5 -9.51104,-1.96984 -14.69473,-36.78547 -18.1875,-45.03125 -8.07314,-13.64292 -18.65477,5.82322 -17.25,11.6875 -7.76464,24.73581 -34.39271,84.13052 -34.625,99.65625 15.14697,12.98235 101.18299,7.0878 128.28125,-6.25 0.548,-14.21611 -20.30573,-12.84915 -23.6875,-22.46875 -11.40775,-5.81918 250.67998,-174.5873 256.6875,-190.75 3.79486,-2.71164 8.26865,-8.5515 3.71875,-12.71875 -14.4069,-4.58452 -28.22594,-26.98844 -37.875,-29.625 z m 1.87038,14.408351 c 7.49012,5.744453 22.43335,15.011539 20.37962,20.685399 -2.86052,28.17228 -257.87402,175.11052 -266.4375,201.46875 2.68916,-1.86708 30.17325,20.16715 14.09375,16.78125 -28.01141,-1.5163 -52.04938,3.34692 -77.65625,4.9375 -0.80339,-23.2541 10.94866,-58.2659 23.4375,-77.34375 11.94331,-5.17086 11.85863,25.93277 10.75,30.78125 1.66873,7.68094 11.69662,6.77849 16.625,2.71875 C 767.58135,228.936 847.33314,148.69325 934.80788,91.627101 z M 91.125,122.84375 c -0.456091,7.63317 -3.471235,15.73163 -0.21875,23.1875 19.42009,18.03976 209.54204,151.3771 209.54204,151.3771 -6.16905,12.25474 -63.56961,35.92254 -55.44829,45.52915 29.5422,5.69986 71.50277,0.89046 100.03125,1.875 14.86565,-2.28365 30.25,1.98845 45.03125,-1.71875 3.06636,-5.39645 -2.58707,-10.39958 -4,-15.375 -14.64343,-30.56794 -21.11962,-62.25676 -35.88142,-90.17479 -8.72154,-8.31648 -22.51504,12.767 -28.02483,18.83104 -64.98109,-50.55824 -154.32528,-99.27802 -212.6875,-148.5625 -9.574821,-4.80025 -15.104781,8.23536 -18.34375,15.03125 z m 235,154.96875 c 9.26668,-4.27124 11.16821,-23.15146 17.71875,-24.5625 10.30208,20.20695 20.58733,52.41875 29.46875,74.03125 -10.26329,9.67887 -98.45108,17.75256 -102.94745,5.70081 7.41555,-17.08251 46.68918,-23.63979 47.2912,-40.38831 -77.98266,-45.29219 -197.72607,-141.68759 -215.84375,-157.25 -1.825978,-3.78993 2.58197,-16.47465 6.23206,-19.1058 z M 516.5,216.15625 c -38.21568,53.04044 -75.41745,102.93189 -111.90625,151.21875 -12.7813,19.34246 -19.23206,41.85455 -25.90625,63.8125 -8.07242,27.67408 -18.07243,54.74038 -27.4375,81.96875 -6.30269,16.95111 -6.32899,35.45263 -6.63386,53.37492 -0.76129,28.15261 -0.43354,39.13591 8.75886,83.46883 13.31089,34.09893 19.26429,65.32052 40,108.96875 5.29881,11.29383 10.43736,22.71989 11.84375,35.25 2.69476,27.93504 -9.05438,47.96878 -8.33847,78.24966 -1.28574,36.4979 0.22823,73.05893 2.08847,109.46909 -0.93395,5.62143 -1.19739,13.30124 4.9375,16.09375 10.27213,-3.72347 21.17601,-5.98225 30.65625,-11.40625 4.94585,0.35129 8.81794,-3.88629 9,-8.6875 6.23878,-12.64029 1.80857,-27.13739 2.8125,-40.59375 5.84663,-42.77191 10.20044,-92.97763 27.25,-129.40625 8.4231,-13.55104 16.63872,-38.42971 32.8125,-44.09375 9.38082,-11.97545 18.63742,-19.88481 28.4375,-30.03125 C 548.96879,708.12098 558.55579,679.74201 571.46875,656 603.19147,600.3611 615.50281,517.12488 604.14641,480.25691 598.1763,447.72585 596.7956,420.86529 592.40625,389 c -2.57591,-13.37956 -4.93485,-26.90749 -10.125,-39.59375 -6.82076,-25.42153 -15.0973,-53.64594 -23.6875,-76.375 -3.71558,-17.39727 -14.48964,-32.05871 -24.90625,-46.0625 -2.45407,-4.9409 -13.74552,-12.82661 -17.1875,-10.8125 z m 1.4375,16.5 c 9.376,1.19718 13.48058,11.40103 19.01128,17.84004 11.1503,18.86972 16.49985,40.43937 22.70971,61.28337 4.08711,18.23546 10.95367,35.50979 16.81932,53.17727 6.12928,19.69112 6.97506,40.64055 12.51741,60.48866 1.00404,35.65238 13.64877,73.21115 9.66103,105.33566 -1.79811,18.4103 -5.47111,36.91818 -9.5,54.875 -11.10646,37.88159 -29.29716,69.40101 -43.17772,102.6217 -9.98488,28.92638 -26.2112,45.45094 -41.82228,60.78455 -5.98684,6.84851 -11.91638,-3.65727 -7.875,-9.125 1.80871,-14.56262 2.41018,-29.87488 -3.47304,-43.59163 -3.6606,-17.17267 -10.91849,-33.01302 -19.15196,-48.37712 C 441.52553,579.8489 447.25387,513.34629 460.4375,444.5 c 0.78623,-8.9675 6.45827,-16.91468 6.4375,-25.90625 -17.89082,-11.67282 -32.90443,52.13032 -36.40625,66.71875 -8.49382,35.88329 -10.15222,43.12826 -14.65345,62.27459 0.13999,49.12556 -1.44072,60.24395 18.09095,110.22541 10.93052,28.58388 8.08231,60.32187 2.67888,89.85558 -2.5819,14.77709 -7.5142,26.5371 -11.89763,39.86317 -10.20748,12.21853 -19.89994,-30.38565 -23.95808,-39.35308 -4.20995,-16.35061 -13.37535,-30.87757 -20.20137,-46.18677 -21.15664,-35.22047 -17.2037,-71.77208 -23.81945,-106.60563 -3.80638,-20.89657 -4.37215,-42.47108 -0.2086,-63.35452 2.67572,-14.37493 7.02944,-28.22863 12.21059,-41.85485 6.94926,-16.16837 10.41072,-33.60369 16.07508,-50.27235 6.63535,-19.58951 12.2254,-36.55371 19.79668,-54.16834 11.09756,-18.4928 21.98804,-37.67508 36.11179,-53.95555 17.16324,-18.56332 31.37573,-34.89554 41.11836,-55.84266 9.47879,-8.94325 27.22796,-38.7689 36.125,-43.28125 z m -19.25,76.5625 c -16.94252,14.49905 -17.56289,35.89158 -28.53125,71.46875 2.75719,4.45196 6.18647,2.72297 8.28125,-3.8125 7.04726,-20.12266 7.76905,-43.06688 21.5,-60.34375 1.51106,-2.2361 3.20767,-7.50009 -1.25,-7.3125 z m 34.125,41.34375 c -8.48853,3.99226 -9.5542,14.47356 -14.875,21.3125 -5.93151,11.12469 -11.51201,22.58507 -19.1875,32.46875 -3.57743,6.6862 -8.26182,12.97428 -15.125,16.40625 -2.52212,4.33894 4.43564,5.06551 7.03125,3.25 11.48504,-5.724 14.89735,-19.31843 22.21875,-28.90625 8.20116,-7.60451 29.49042,-47.99983 19.9375,-44.53125 z m -103.78125,21.96875 c -8.79892,3.46532 -7.56851,14.76972 -9.1875,22.34375 0.67191,13.28574 -4.00454,34.72595 -2.41337,44.49624 0.7428,7.73845 2.14035,15.63162 0.16337,23.31626 6.62699,-0.10023 8.35835,-7.12657 7.875,-12.46875 -1.01449,-13.98789 -1.32287,-56.04998 3.5625,-77.6875 z m 111.625,56.75 c -5.40269,1.06758 -4.49018,7.92159 -7.34375,11.28125 -1.69915,16.28676 -13.77748,28.7001 -25.3125,39.25 -12.89779,11.836 -23.01804,26.57231 -38.59375,32.25 -3.70277,2.58081 0.0542,7.62944 3.9375,6.3125 6.3812,-1.39785 11.21843,-6.47052 16.625,-9.75 16.4904,-11.16963 28.34063,-28.90917 41.375,-39.5625 3.26195,-6.88327 25.84243,-42.2431 9.3125,-39.78125 z m -151.4375,65.28125 c -5.31765,8.54783 -1.86572,24.37045 2.65625,26.5 5.00793,0.45594 3.42649,-5.59563 3.28125,-8.5625 -0.82596,-4.63545 -0.22348,-20.8553 -5.9375,-17.9375 z m 60.37052,-30.56439 c -0.42487,21.18019 -11.52353,-1.36016 -8.30802,120.75189 5.28943,17.16347 7.28487,38.27199 15.00575,52.54968 4.9411,17.07093 13.26358,32.88432 21.24425,48.66907 5.09378,15.77289 7.7983,32.48518 7.21875,49.03125 -0.9082,12.56909 -3.9057,24.96455 -8.40625,36.5 -2.62604,13.63597 -11.08084,25.15247 -15.33925,38.29075 -16.82076,46.33506 -30.03632,95.2375 -27.06587,144.64245 -0.86385,7.58575 0.33752,17.78328 -8.21988,21.2543 -4.35764,1.41119 -7.98083,7.51738 -12.90625,5.71875 -4.32734,-2.76798 -1.47777,-9.06413 -2.98999,-13.27774 -3.20174,-37.06814 -6.8964,-96.95721 7.21981,-153.4029 8.09496,-19.57687 15.39518,-16.63186 15.39518,-16.63186 3.4583,-8.35804 5.18881,-17.30106 9.34375,-25.40625 6.1068,-26.49641 12.09996,-53.64043 10.5953,-80.99574 -4.30612,-26.26022 -11.2497,-51.53552 -19.37655,-74.41051 -5.13637,-26.64357 -4.93288,-78.7962 -5,-81.59375 2.7567,-25.78224 22.46224,-111.61608 21.58927,-71.68939 z m 84.94198,90.68939 c -11.41957,40.55775 -22.26109,45.01975 -48.72903,64.76554 14.53748,29.17942 77.6969,-74.8693 48.72903,-64.76554 z M 376.3125,599.5 c -6.611,4.13594 13.04296,24.60644 17.5,26.96875 3.31572,1.23796 7.64061,-2.94766 3.80519,-5.56482 C 390.67702,612.77947 388.1579,598.46808 376.3125,599.5 z m 136.21875,53.53125 c 0.018,16.25863 18.49592,-8.24765 20.03125,-14.78125 -1.51219,-16.11002 -16.49722,12.20403 -20.03125,14.78125 z M 393.875,690.21875 c -4.15098,-0.23645 -8.03379,5.43735 -3.53125,7.96875 6.90952,5.78242 15.50411,9.60823 24,12.3125 4.07489,1.21697 10.26537,-4.05752 5.59375,-7.28125 -10.24128,1.66259 -19.88213,-11.98775 -26.0625,-13 z m 171.03125,39.25 c -14.19263,14.56905 13.00654,56.38866 17.75,71.875 3.56331,5.05109 4.85565,11.10822 8.15625,16.25 15.8532,6.66646 15.22575,-17.1158 33.9375,-8.25 C 674.93649,852.06178 734.694,895.84698 776,940 c 3.64825,2.47548 8.93687,5.82224 12.8125,1.78125 8.63796,-4.13493 16.08413,-14.91326 21.34375,-18.84375 5.12384,-3.08612 1.23858,-9.45074 -2.71875,-11.5 -35.8238,-59.53779 -115.9219,-79.59813 -151.64098,-125.31222 0.68785,-3.11656 8.26325,-7.97293 8.14098,-11.56278 1.78471,-4.13287 -0.23232,-9.03768 -4.6875,-10.09375 -29.52106,-9.51196 -56.10301,-17.78214 -82.84375,-32.1875 -3.65485,-1.41986 -7.5198,-2.87447 -11.5,-2.8125 z M 293.84375,740.5 c -4.79854,3.20096 -10.99295,5.11159 -15.03125,9.65625 -34.6039,13.14404 -69.34932,31.62507 -102.32188,39.75908 -4.91341,0.85618 -8.59796,4.33721 -8.55312,9.45967 -0.98039,6.20735 4.25882,10.78883 9.88618,11.90998 4.62679,1.80937 13.1245,2.24865 13.61382,8.49627 -15.23352,15.28786 -175.231304,114.07133 -163.46875,125.4375 11.28208,7.16452 19.99731,17.36011 30.25,25.59375 3.755413,2.61451 8.562797,4.36544 12.375838,0.79865 39.386272,-53.80216 108.584492,-78.6421 150.624162,-116.4549 6.47345,-0.55862 6.78389,8.00218 7.71875,12.375 0.5692,5.4309 5.87264,10.25376 11.375,7.71875 18.74101,-29.29897 36.54459,-65.2287 48.78125,-94.5625 5.17165,-9.11866 11.32242,-18.57509 12.78125,-29.25 -1.08216,-4.22012 -3.31876,-10.7037 -8.03125,-10.9375 z m 354.90205,33.72408 c 4.28633,3.31276 -10.80568,8.34877 -7.40205,12.33842 20.71938,41.0122 163.65241,96.25552 153.98473,127.84361 0.26086,3.2598 -6.87302,5.8546 -12.73473,7.96889 -7.29183,-2.8586 -156.21095,-121.98785 -162.28209,-126.84347 -9.46844,-3.3886 -20.52809,13.98361 -22.66017,8.60468 0,0 -22.05554,-44.8452 -25.02355,-59.9141 17.28015,5.26805 61.62925,21.49585 76.11786,30.00197 z M 281.21875,761.90625 C 282.53849,778.39421 250.73737,845.1557 239,847.6875 235.90954,842.36018 232.79738,825.70647 223.59375,836.03125 190.20597,860.80409 88.551751,936.94092 63.637474,961.40247 61.12306,954.62314 43.771099,950.71 43.422925,943.02831 77.179153,894.75519 205.50518,827.72646 210.3125,816.46875 c 7.09271,-12.70281 -26.12897,-14.09424 -15.34375,-19.53125 27.52484,-13.74044 59.62931,-24.69647 86.25,-35.03125 z"
       id="path4129"
       inkscape:connector-curvature="0"
       sodipodi:nodetypes="cccccccccccccccccccccccccccccccccccccccccccccccccccccccccccccccccccccccccccccccccccccccccccccccccccccccccccccccccccccccccccccccccccccccccccccccccccccccccccccccccccccccccccccccccccccccccccccccccccccc" />
  </g>
</svg>
