<?xml version="1.0" encoding="UTF-8" standalone="no"?>
<!-- Created with Inkscape (http://www.inkscape.org/) -->

<svg
   xmlns:dc="http://purl.org/dc/elements/1.1/"
   xmlns:cc="http://creativecommons.org/ns#"
   xmlns:rdf="http://www.w3.org/1999/02/22-rdf-syntax-ns#"
   xmlns:svg="http://www.w3.org/2000/svg"
   xmlns="http://www.w3.org/2000/svg"
   xmlns:sodipodi="http://sodipodi.sourceforge.net/DTD/sodipodi-0.dtd"
   xmlns:inkscape="http://www.inkscape.org/namespaces/inkscape"
   id="svg2"
   version="1.1"
   inkscape:version="0.91 r13725"
   width="315"
   height="79"
   sodipodi:docname="swipe.svg">
  <metadata
     id="metadata8">
    <rdf:RDF>
      <cc:Work
         rdf:about="">
        <dc:format>image/svg+xml</dc:format>
        <dc:type
           rdf:resource="http://purl.org/dc/dcmitype/StillImage" />
        <dc:title />
      </cc:Work>
    </rdf:RDF>
  </metadata>
  <defs
     id="defs6" />
  <sodipodi:namedview
     pagecolor="#ffffff"
     bordercolor="#666666"
     borderopacity="1"
     objecttolerance="10"
     gridtolerance="10"
     guidetolerance="10"
     inkscape:pageopacity="0"
     inkscape:pageshadow="2"
     inkscape:window-width="1839"
     inkscape:window-height="1056"
     id="namedview4"
     showgrid="false"
     inkscape:zoom="10.487628"
     inkscape:cx="105.49566"
     inkscape:cy="41.745387"
     inkscape:window-x="81"
     inkscape:window-y="24"
     inkscape:window-maximized="1"
     inkscape:current-layer="svg2" />
  <path
     style="fill:#000000"
     d="M 14.115447,67.02691 C 8.8364946,65.733358 3.8827135,60.139055 3.2798253,54.790247 2.7190721,49.815259 4.7276658,44.7513 7.944609,43.029644 c 2.808492,-1.503059 8.621035,-1.257938 10.015565,0.422368 2.884459,3.475561 -1.900376,7.851301 -5.872667,5.370564 -7.3742665,-0.713156 -4.9909944,9.401384 -2.2896246,12.129153 3.6713456,3.671345 8.9796866,4.091036 13.8882956,1.098044 6.798373,-4.145263 7.298288,-10.602279 1.745356,-22.543428 -5.69645,-12.249775 -5.078473,-20.31184 1.882288,-24.556118 6.047406,-3.687366 15.145293,-1.524383 18.8005,4.469738 3.347138,5.488921 1.718121,10.119486 -3.30928,9.406799 -2.827262,-0.400794 -3.906647,-5.466808 -1.372013,-6.439438 4.478625,-1.71861 -2.700091,-7.290066 -7.75758,-6.020717 -6.778485,1.701292 -7.224837,6.280678 -1.72142,17.661044 6.069282,12.550503 6.26052,19.690113 0.728142,27.184295 -3.553395,4.813444 -11.937678,7.43934 -18.566724,5.814962 z M 71,61.522829 c 0,-0.262444 1.134229,-3.490541 2.52051,-7.173549 2.106548,-5.596584 2.229426,-6.43295 0.74817,-5.092432 -0.974787,0.88217 -3.063753,2.09494 -4.642147,2.695044 -3.461309,1.315988 -5.992183,-0.22447 -5.081723,-3.093075 0.799988,-2.520541 -2.00342,-2.469847 -3.781261,0.06838 -2.108791,3.01072 -6.113754,4.490933 -8.579908,3.171088 -1.523656,-0.815436 -2.735862,-0.803796 -4.59688,0.04414 -5.275918,2.403869 -7.196427,-3.360708 -3.950903,-11.85899 C 44.75395,37.355751 45.861736,36 47.135858,36 c 2.256288,0 2.330507,1.426727 0.364142,7 -3.347251,9.48712 -0.234312,9.420907 3.580056,-0.07615 1.932704,-4.812066 3.124509,-6.504029 4.75,-6.743403 C 58.41124,35.800338 58.389564,35.644405 56.5,41 c -1.879834,5.328016 -1.929791,9 -0.122445,9 2.357966,0 3.664066,-2.541896 3.003413,-5.845158 C 58.663619,40.568094 61.057182,36 63.653895,36 c 1.259202,0 1.489461,0.704639 1.062024,3.25 -0.348416,2.2605 -1.844712,5.379183 -0.766677,6.75 0.63977,0 2.058973,-2.025 3.153783,-4.5 2.059446,-4.65572 2.526046,-5.022166 4.665608,-3.664154 1.005636,0.638291 0.911841,1.767892 -0.452441,5.448913 -0.94659,2.554031 -1.397611,4.967156 -1.002267,5.362499 1.460808,1.460809 6.246893,-3.51438 8.179154,-8.502321 C 79.843011,36.660219 81.053098,35 82.243079,35 83.211246,35 84,35.742992 84,36.654988 c 0,1.539983 0.127078,1.539983 1.828741,0 C 89.282259,33.529596 94,35.165581 94,39.488558 c 0,1.148707 -0.85149,3.758707 -1.892201,5.8 C 91.067089,47.329851 90.516801,49 90.884938,49 92.208238,49 98,43.082674 98,41.730685 c 0,-1.789597 3.85576,-5.305255 6.79799,-6.198368 5.16452,-1.567691 7.41983,5.968408 2.70973,9.054581 -1.37075,0.898153 -3.12676,1.389532 -3.90223,1.091954 -1.96793,-0.755165 -2.80788,0.372355 -1.47437,1.979139 1.83642,2.212752 5.17831,1.533894 9.39104,-1.907656 3.5524,-2.902109 3.80624,-2.982322 2.37339,-0.75 -0.88244,1.374816 -3.43171,3.795546 -5.66502,5.3794 -4.82193,3.41968 -8.736225,3.050584 -10.264027,-0.967839 C 97.002099,46.87532 96.233083,46.892938 93,49.525677 90.156502,51.841172 84.453694,53.122992 81.682706,52.069465 79.167896,51.113336 79.017493,51.268721 77.356042,56.539451 75.922416,61.087435 75.247476,62 73.317378,62 72.04282,62 71,61.785273 71,61.522829 Z M 85.86417,48.663666 c 1.638314,-1.974049 4.209283,-9.7358 3.568351,-10.77285 -1.605451,-2.597674 -8.421333,5.374892 -8.428783,9.859184 -0.0043,2.558967 3.022716,3.127978 4.860432,0.913666 z m 20.5644,-7.235095 C 108.39627,39.460876 108.46747,37 106.5567,37 105.16513,37 102,40.627598 102,42.222506 c 0,1.345253 2.78947,0.84517 4.42857,-0.793935 z m 125.8809,17.935506 c -0.95853,-2.497891 1.00538,-4.74526 4.96507,-5.681705 1.96569,-0.464874 3.82097,-1.488889 4.12286,-2.275589 0.47557,-1.23933 0.18106,-1.240158 -2.20515,-0.0062 C 235.85989,53.123812 233,51.911645 233,48.775996 l 0,-2.124624 -2.25,2.107702 c -5.05824,4.738339 -11.69802,4.803235 -10.20519,0.09974 C 220.98289,47.478555 220.63007,47 219.17438,47 c -1.07822,0 -2.20936,0.64878 -2.51365,1.441733 -0.30428,0.792952 -1.72086,2.206785 -3.14795,3.14185 -2.08474,1.365977 -3.07801,1.479912 -5.05374,0.579706 C 207.10657,51.547063 206,50.35823 206,49.521439 206,47.511671 205.72079,47.57113 201.40486,50.5 c -4.26362,2.893373 -5.96044,3.116549 -7.17633,0.943872 -0.77962,-1.393092 -1.19302,-1.371231 -3.94581,0.208656 -2.58621,1.484276 -3.3299,1.553209 -4.67884,0.433683 C 184.00432,50.394604 184,48.798798 184,46.651372 l -2.25,2.049351 c -6.16317,5.613556 -10.31354,5.40821 -9.47776,-0.468927 0.29188,-2.052488 0.84818,-4.519296 1.23622,-5.481796 1.44985,-3.59627 -1.15122,-1.53366 -5.37236,4.260197 C 165.73596,50.304589 163.14846,53 162.3861,53 c -1.75354,0 -1.73747,-0.75266 0.12907,-6.042987 1.51082,-4.282125 1.50938,-4.28921 -0.5,-2.470739 -2.80208,2.535845 -2.52253,1.368334 1.0706,-4.471251 C 165.15369,36.65423 166.84144,35 168.20241,35 c 1.62442,0 1.90588,0.450285 1.4064,2.25 -1.99684,7.195009 -2.02746,7.177706 3.16618,1.789396 6.93594,-7.195913 8.99894,-5.601884 5.61254,4.336663 -0.88686,2.602785 -1.3754,4.969406 -1.08565,5.259159 1.10094,1.100934 4.61008,-1.77382 8.10721,-6.641562 3.94828,-5.49572 7.43617,-7.695467 10.27714,-6.481607 0.99757,0.426233 3.05127,0.676475 4.56377,0.556093 1.5125,-0.120381 2.75,-0.03041 2.75,0.199941 0,0.230349 -0.9,3.034712 -2,6.231917 -2.38162,6.922289 -2.34336,6.5 -0.58889,6.5 1.97637,0 6.19288,-5.270056 7.58051,-9.474596 C 208.88736,36.811276 209.70017,36 211.52369,36 l 2.36859,0 -1.94614,5.65655 C 209.50688,48.74639 209.50968,50 211.96482,50 c 2.56003,0 3.91581,-2.710549 3.31881,-6.63516 C 214.67962,39.394208 216.45855,36 219.14359,36 c 1.70702,0 1.96576,0.441594 1.46482,2.5 l -1.21682,5 c -1.03588,4.256511 1.5635,2.855774 3.71143,-2 2.05945,-4.65572 2.52605,-5.022166 4.66561,-3.664154 1.00564,0.638291 0.91184,1.767892 -0.45244,5.448913 -0.94659,2.554031 -1.44351,4.92125 -1.10428,5.260487 1.26994,1.269935 4.98094,-1.828617 7.92976,-6.621066 1.67725,-2.725883 3.90148,-5.220081 4.73839,-5.859991 C 243.75647,32.335633 252,34.800495 252,35.512474 c 0,0.137174 -1.13672,3.26939 -2.52604,6.96048 -3.07266,8.163305 -1.7471,8.198425 4.40911,0.116816 4.72469,-6.202374 7.93277,-8.304152 10.80316,-7.077721 2.41133,0.89967 5.09845,0.279117 7.31377,0.756034 0,0.230349 -0.9,3.034712 -2,6.231917 -2.37302,6.897297 -2.3318,6.5 -0.67431,6.5 2.19588,0 5.64092,-4.40643 7.71725,-9.870882 C 278.11932,36.296304 279,33.533374 279,32.989273 279,32.445173 276.4875,32 273.41667,32 c -4.02011,0 -5.46779,-0.349976 -5.17063,-1.25 0.25546,-0.773743 2.76103,-1.363362 6.57621,-1.547533 5.59591,-0.270133 6.22019,-0.523378 6.77904,-2.75 C 282.02681,24.757036 282.91225,24 284.46974,24 c 1.86389,0 2.17039,0.431696 1.77501,2.5 -0.35035,1.832767 -0.0464,2.5 1.13867,2.5 0.88912,0 1.61658,0.675 1.61658,1.5 0,0.919748 -0.93532,1.5 -2.41788,1.5 -2.13524,0 -2.73178,0.942557 -5.10324,8.063423 -1.47695,4.434882 -2.42795,8.320839 -2.11333,8.635458 1.17536,1.175364 5.48408,-2.73775 6.09943,-5.539414 1.13918,-5.186683 8.05725,-9.630796 11.08301,-7.119641 2.37433,1.970523 1.80044,6.685769 -1.04027,8.547072 -1.37075,0.898153 -3.12676,1.389532 -3.90223,1.091954 -1.96793,-0.755165 -2.80788,0.372355 -1.47437,1.979139 1.83642,2.212752 5.17831,1.533894 9.39104,-1.907656 3.5524,-2.902109 3.80624,-2.982322 2.37339,-0.75 -2.79263,4.350807 -9.34687,8.354192 -12.4161,7.583862 -1.47978,-0.3714 -2.9205,-1.554781 -3.20161,-2.629735 -0.63639,-2.433569 -0.45272,-2.454132 -4.87298,0.545538 -4.47039,3.033693 -6.41969,3.159284 -7.1258,0.459108 -0.29354,-1.12249 -0.81391,-1.898251 -1.15638,-1.723912 -8.84203,4.501132 -8.22694,4.342699 -9.59518,2.471531 -1.21849,-1.666396 -1.43379,-1.667488 -4.30122,-0.02181 -2.53725,1.456183 -3.27424,1.520165 -4.6224,0.401293 -1.42312,-1.102038 -1.46971,-3.120718 -2.40846,-4.08621 -1.05519,0 -7.07109,5.933994 -10.02148,9.885036 C 240.35427,60.32187 239.09566,61 236.39256,61 c -2.27651,0 -3.6695,-0.558112 -4.08309,-1.635923 z m 5.71059,-1.888243 c 0.69572,-0.838291 0.95423,-1.834875 0.57448,-2.21463 -0.83409,-0.834088 -3.82031,0.916099 -4.36835,2.560239 -0.56969,1.709059 2.30606,1.447088 3.79387,-0.345609 z m -46.42718,-8.903229 c 2.90687,-2.036053 6.05641,-9.32332 4.64117,-10.738556 -0.60479,-0.604788 -1.78453,-0.836787 -2.62165,-0.515554 C 190.62149,38.466214 186.22416,50 188.77749,50 c 0.42763,0 1.69455,-0.642328 2.81539,-1.427395 z m 49.84487,-1.099937 c 3.29112,-3.551181 5.14297,-8.291947 3.77383,-9.661085 -2.4862,-2.486203 -6.86506,2.278193 -7.88813,8.582646 -0.70594,4.350234 0.73264,4.727315 4.1143,1.078439 z m 19.15513,1.099937 c 2.90687,-2.036053 6.05641,-9.32332 4.64117,-10.738556 -0.60479,-0.604788 -1.78453,-0.836787 -2.62165,-0.515554 C 259.62149,38.466214 255.22416,50 257.77749,50 c 0.42763,0 1.69455,-0.642328 2.81539,-1.427395 z m 33.83569,-7.144034 C 296.39627,39.460876 296.46747,37 294.5567,37 293.16513,37 290,40.627598 290,42.222506 c 0,1.345253 2.78947,0.84517 4.42857,-0.793935 z M 122.66667,52.333333 C 121.44863,51.1153 121.97385,47.814457 124.5,40.811388 125.875,36.999568 127,33.457624 127,32.940403 127,32.423181 124.4875,32 121.41667,32 c -4.02011,0 -5.46779,-0.349976 -5.17063,-1.25 0.25546,-0.773743 2.76103,-1.363362 6.57621,-1.547533 5.59591,-0.270133 6.22019,-0.523378 6.77904,-2.75 C 130.02681,24.757036 130.91225,24 132.46974,24 c 1.86389,0 2.17039,0.431696 1.77501,2.5 -0.35035,1.832767 -0.0465,2.5 1.13867,2.5 0.88912,0 1.61658,0.675 1.61658,1.5 0,0.919748 -0.93532,1.5 -2.41788,1.5 -2.13524,0 -2.73178,0.942557 -5.10324,8.063423 -1.47695,4.434882 -2.47832,8.270475 -2.22525,8.523538 1.1165,1.116507 3.98381,-1.130478 5.69165,-4.460296 3.48425,-6.793356 9.09469,-10.246007 13.13539,-8.083489 1.80862,0.967943 2.45327,1.973618 2.01433,5.2461 -0.54309,4.049047 0.29233,4.923391 2.705,2.510724 0.93333,-0.933333 1.2,-0.928569 1.2,0.02144 0,0.671791 -1.2375,1.756361 -2.75,2.410156 -1.5125,0.653794 -4.22816,2.444147 -6.0348,3.978561 -3.97879,3.37927 -5.61459,3.481363 -8.56161,0.534347 l -2.25549,-2.255497 -3.34693,2.255497 c -3.43586,2.315421 -5.21513,2.758206 -6.3845,1.588829 z m 16.71067,-10.445315 c -2.1657,2.324608 -4.00504,3.814425 -0.62507,6.988347 10.01484,-1.275728 7.51251,-15.024749 0.62507,-6.988347 z M 70.046163,34.555624 c -2.700693,-3.254136 1.768721,-7.169311 4.764428,-4.173605 3.205789,3.506802 -2.041798,6.962547 -4.764428,4.173605 z m 155.999997,0 c -2.70069,-3.254136 1.76872,-7.169311 4.76443,-4.173605 3.2058,3.506801 -2.6139,6.581148 -4.76443,4.173605 z"
     id="path3006"
     inkscape:connector-curvature="0"
     sodipodi:nodetypes="ssssccsssssssssssssssssssssssssssccssssssssssssssssssssssssssscsssssssssscssssssssssccssssssssssssssssssssscsssssssssssssssccsssssssssssssssssssssssssssssccsssssssssssssssssssssssssssssssssssssscsssssssscssccccccccc" />
</svg>
