<?xml version="1.0" standalone="yes"?>

<svg version="1.1" viewBox="0.0 0.0 720.0 540.0" fill="none" stroke="none" stroke-linecap="square" stroke-miterlimit="10" xmlns="http://www.w3.org/2000/svg" xmlns:xlink="http://www.w3.org/1999/xlink"><clipPath id="p.0"><path d="m0 0l720.0 0l0 540.0l-720.0 0l0 -540.0z" clip-rule="nonzero"></path></clipPath><g clip-path="url(#p.0)"><path fill="#000000" fill-opacity="0.0" d="m0 0l720.0 0l0 540.0l-720.0 0z" fill-rule="nonzero"></path><path fill="#cfe2f3" d="m80.00523 25.004519l0 141.76378l-30.929134 0l0 -141.76378z" fill-rule="nonzero"></path><path stroke="#000000" stroke-width="2.0" stroke-linejoin="round" stroke-linecap="butt" d="m80.00523 25.004519l0 141.76378l-30.929134 0l0 -141.76378z" fill-rule="nonzero"></path><path fill="#cfe2f3" d="m80.00523 166.79073l0 141.76378l-30.929134 0l0 -141.76378z" fill-rule="nonzero"></path><path stroke="#000000" stroke-width="2.0" stroke-linejoin="round" stroke-linecap="butt" d="m80.00523 166.79073l0 141.76378l-30.929134 0l0 -141.76378z" fill-rule="nonzero"></path><path fill="#cfe2f3" d="m670.9262 166.76874l0 -141.7638l-30.929138 0l0 141.7638z" fill-rule="nonzero"></path><path stroke="#000000" stroke-width="2.0" stroke-linejoin="round" stroke-linecap="butt" d="m670.9262 166.76874l0 -141.7638l-30.929138 0l0 141.7638z" fill-rule="nonzero"></path><path fill="#cfe2f3" d="m640.0049 166.76874l0 -141.7638l-30.929138 0l0 141.7638z" fill-rule="nonzero"></path><path stroke="#000000" stroke-width="2.0" stroke-linejoin="round" stroke-linecap="butt" d="m640.0049 166.76874l0 -141.7638l-30.929138 0l0 141.7638z" fill-rule="nonzero"></path><path fill="#cfe2f3" d="m323.86725 166.76968l-144.7874 0l0 30.267715l144.7874 0z" fill-rule="nonzero"></path><path stroke="#000000" stroke-width="2.0" stroke-linejoin="round" stroke-linecap="butt" d="m323.86725 166.76968l-144.7874 0l0 30.267715l144.7874 0z" fill-rule="nonzero"></path><path fill="#cfe2f3" d="m179.08807 166.76968l0 -141.76378l-30.929138 0l0 141.76378z" fill-rule="nonzero"></path><path stroke="#000000" stroke-width="2.0" stroke-linejoin="round" stroke-linecap="butt" d="m179.08807 166.76968l0 -141.76378l-30.929138 0l0 141.76378z" fill-rule="nonzero"></path><path fill="#cfe2f3" d="m509.35367 65.310616l-102.33069 100.28347l21.88974 21.417313l102.33069 -100.283455z" fill-rule="nonzero"></path><path stroke="#000000" stroke-width="2.0" stroke-linejoin="round" stroke-linecap="butt" d="m509.35367 65.310616l-102.33069 100.28347l21.88974 21.417313l102.33069 -100.283455z" fill-rule="nonzero"></path><path fill="#cfe2f3" d="m407.00525 166.76805l0 -141.76378l-30.929138 0l0 141.76378z" fill-rule="nonzero"></path><path stroke="#000000" stroke-width="2.0" stroke-linejoin="round" stroke-linecap="butt" d="m407.00525 166.76805l0 -141.76378l-30.929138 0l0 141.76378z" fill-rule="nonzero"></path></g></svg>

