<?xml version="1.0" standalone="yes"?>

<svg version="1.1" viewBox="0.0 0.0 720.0 540.0" fill="none" stroke="none" stroke-linecap="square" stroke-miterlimit="10" xmlns="http://www.w3.org/2000/svg" xmlns:xlink="http://www.w3.org/1999/xlink"><clipPath id="p.0"><path d="m0 0l720.0 0l0 540.0l-720.0 0l0 -540.0z" clip-rule="nonzero"></path></clipPath><g clip-path="url(#p.0)"><path fill="#000000" fill-opacity="0.0" d="m0 0l720.0 0l0 540.0l-720.0 0z" fill-rule="nonzero"></path><path fill="#cfe2f3" d="m462.0757 454.6636l57.700775 -57.87216l0 -48.94861l-57.700775 -57.87216z" fill-rule="nonzero"></path><path stroke="#000000" stroke-width="2.0" stroke-linejoin="round" stroke-linecap="butt" d="m462.0757 454.6636l57.700775 -57.87216l0 -48.94861l-57.700775 -57.87216z" fill-rule="nonzero"></path><path fill="#cfe2f3" d="m592.48083 454.71997l-59.704407 -59.527557l-10.984985 0l-59.704346 59.527557z" fill-rule="nonzero"></path><path stroke="#000000" stroke-width="2.0" stroke-linejoin="round" stroke-linecap="butt" d="m592.48083 454.71997l-59.704407 -59.527557l-10.984985 0l-59.704346 59.527557z" fill-rule="nonzero"></path><path fill="#cfe2f3" d="m462.07755 207.65797l59.704376 59.527542l114.54401 0l59.704407 -59.527542z" fill-rule="nonzero"></path><path stroke="#000000" stroke-width="2.0" stroke-linejoin="round" stroke-linecap="butt" d="m462.07755 207.65797l59.704376 59.527542l114.54401 0l59.704407 -59.527542z" fill-rule="nonzero"></path><path fill="#cfe2f3" d="m302.40015 207.65797l59.704346 59.527542l40.276337 0l59.704346 -59.527542z" fill-rule="nonzero"></path><path stroke="#000000" stroke-width="2.0" stroke-linejoin="round" stroke-linecap="butt" d="m302.40015 207.65797l59.704346 59.527542l40.276337 0l59.704346 -59.527542z" fill-rule="nonzero"></path><path fill="#cfe2f3" d="m302.40015 207.65797l-59.70436 59.527542l-10.985001 0l-59.704346 -59.527542z" fill-rule="nonzero"></path><path stroke="#000000" stroke-width="2.0" stroke-linejoin="round" stroke-linecap="butt" d="m302.40015 207.65797l-59.70436 59.527542l-10.985001 0l-59.704346 -59.527542z" fill-rule="nonzero"></path><path fill="#cfe2f3" d="m592.4803 332.66666l-59.527527 59.704376l0 2.6385193l59.527527 59.704346z" fill-rule="nonzero"></path><path stroke="#000000" stroke-width="2.0" stroke-linejoin="round" stroke-linecap="butt" d="m592.4803 332.66666l-59.527527 59.704376l0 2.6385193l59.527527 59.704346z" fill-rule="nonzero"></path><path fill="#cfe2f3" d="m462.08072 289.9697l59.704315 59.527557l114.54407 0l59.704346 -59.527557z" fill-rule="nonzero"></path><path stroke="#000000" stroke-width="2.0" stroke-linejoin="round" stroke-linecap="butt" d="m462.08072 289.9697l59.704315 59.527557l114.54407 0l59.704346 -59.527557z" fill-rule="nonzero"></path><path fill="#cfe2f3" d="m49.958004 207.6588l59.704357 59.527542l2.638527 0l59.70436 -59.527542z" fill-rule="nonzero"></path><path stroke="#000000" stroke-width="2.0" stroke-linejoin="round" stroke-linecap="butt" d="m49.958004 207.6588l59.704357 59.527542l2.638527 0l59.70436 -59.527542z" fill-rule="nonzero"></path></g></svg>

