<?xml version="1.0" standalone="yes"?>

<svg version="1.1" viewBox="0.0 0.0 720.0 540.0" fill="none" stroke="none" stroke-linecap="square" stroke-miterlimit="10" xmlns="http://www.w3.org/2000/svg" xmlns:xlink="http://www.w3.org/1999/xlink"><clipPath id="p.0"><path d="m0 0l720.0 0l0 540.0l-720.0 0l0 -540.0z" clip-rule="nonzero"></path></clipPath><g clip-path="url(#p.0)"><path fill="#000000" fill-opacity="0.0" d="m0 0l720.0 0l0 540.0l-720.0 0z" fill-rule="nonzero"></path><path fill="#cfe2f3" d="m262.7081 100.70127c0 -9.4056015 43.56143 -17.030342 97.29721 -17.030342l0 0c53.73575 0 97.29721 7.6247406 97.29721 17.030342l0 0c0 9.4056015 -43.561462 17.03035 -97.29721 17.03035l0 0c-53.73578 0 -97.29721 -7.624748 -97.29721 -17.03035z" fill-rule="nonzero"></path><path stroke="#000000" stroke-width="2.0" stroke-linejoin="round" stroke-linecap="butt" d="m262.7081 100.70127c0 -9.4056015 43.56143 -17.030342 97.29721 -17.030342l0 0c53.73575 0 97.29721 7.6247406 97.29721 17.030342l0 0c0 9.4056015 -43.561462 17.03035 -97.29721 17.03035l0 0c-53.73578 0 -97.29721 -7.624748 -97.29721 -17.03035z" fill-rule="nonzero"></path><path fill="#ffffff" d="m312.2898 100.70127l0 0c0 -1.7022247 5.0271606 -3.334732 13.975555 -4.5383835c8.948395 -1.203659 21.085022 -1.8798676 33.73996 -1.8798676l0 0c26.35254 0 47.715515 2.8735504 47.715515 6.418251l0 0c0 3.5447083 -21.362976 6.4182587 -47.715515 6.4182587l0 0c-26.35254 0 -47.715515 -2.8735504 -47.715515 -6.4182587z" fill-rule="nonzero"></path><path stroke="#000000" stroke-width="2.0" stroke-linejoin="round" stroke-linecap="butt" d="m312.2898 100.70127l0 0c0 -1.7022247 5.0271606 -3.334732 13.975555 -4.5383835c8.948395 -1.203659 21.085022 -1.8798676 33.73996 -1.8798676l0 0c26.35254 0 47.715515 2.8735504 47.715515 6.418251l0 0c0 3.5447083 -21.362976 6.4182587 -47.715515 6.4182587l0 0c-26.35254 0 -47.715515 -2.8735504 -47.715515 -6.4182587z" fill-rule="nonzero"></path><path fill="#cfe2f3" d="m181.00787 245.0056l0 0c0 -24.665817 80.13751 -44.661423 178.99213 -44.661423l0 0c98.854614 0 178.99213 19.995605 178.99213 44.661423l0 0c0 24.665817 -80.13751 44.661423 -178.99213 44.661423l0 0c-98.854614 0 -178.99213 -19.995605 -178.99213 -44.661423z" fill-rule="nonzero"></path><path stroke="#000000" stroke-width="2.0" stroke-linejoin="round" stroke-linecap="butt" d="m181.00787 245.0056l0 0c0 -24.665817 80.13751 -44.661423 178.99213 -44.661423l0 0c98.854614 0 178.99213 19.995605 178.99213 44.661423l0 0c0 24.665817 -80.13751 44.661423 -178.99213 44.661423l0 0c-98.854614 0 -178.99213 -19.995605 -178.99213 -44.661423z" fill-rule="nonzero"></path><path fill="#ffffff" d="m312.28867 241.1049l0 0c0 -1.704071 5.0272827 -3.3383484 13.975861 -4.5433044c8.948578 -1.204956 21.08548 -1.881897 33.740692 -1.881897l0 0c26.353119 0 47.716522 2.8766632 47.716522 6.4252014l0 0c0 3.5485382 -21.363403 6.4252014 -47.716522 6.4252014l0 0c-26.353119 0 -47.716553 -2.8766632 -47.716553 -6.4252014z" fill-rule="nonzero"></path><path stroke="#000000" stroke-width="2.0" stroke-linejoin="round" stroke-linecap="butt" d="m312.28867 241.1049l0 0c0 -1.704071 5.0272827 -3.3383484 13.975861 -4.5433044c8.948578 -1.204956 21.08548 -1.881897 33.740692 -1.881897l0 0c26.353119 0 47.716522 2.8766632 47.716522 6.4252014l0 0c0 3.5485382 -21.363403 6.4252014 -47.716522 6.4252014l0 0c-26.353119 0 -47.716553 -2.8766632 -47.716553 -6.4252014z" fill-rule="nonzero"></path></g></svg>

