<?xml version="1.0" standalone="yes"?>

<svg version="1.1" viewBox="0.0 0.0 720.0 540.0" fill="none" stroke="none" stroke-linecap="square" stroke-miterlimit="10" xmlns="http://www.w3.org/2000/svg" xmlns:xlink="http://www.w3.org/1999/xlink"><clipPath id="p.0"><path d="m0 0l720.0 0l0 540.0l-720.0 0l0 -540.0z" clip-rule="nonzero"></path></clipPath><g clip-path="url(#p.0)"><path fill="#000000" fill-opacity="0.0" d="m0 0l720.0 0l0 540.0l-720.0 0z" fill-rule="nonzero"></path><path fill="#cfe2f3" d="m143.87007 94.178474l0 0c-5.316284 0 -9.625977 68.835335 -9.625977 153.74805c0 84.91269 4.3096924 153.74802 9.625977 153.74802l-57.755898 0c-5.316284 0 -9.625984 -68.83533 -9.625984 -153.74802c0 -84.912704 4.3097 -153.74805 9.625984 -153.74805z" fill-rule="nonzero"></path><path fill="#e2edf7" d="m143.87007 94.178474l0 0c5.316284 0 9.625992 68.835335 9.625992 153.74805c0 84.91269 -4.3097076 153.74802 -9.625992 153.74802l0 0c-5.316284 0 -9.625977 -68.83533 -9.625977 -153.74802c0 -84.912704 4.3096924 -153.74805 9.625977 -153.74805z" fill-rule="nonzero"></path><path fill="#000000" fill-opacity="0.0" d="m143.87007 401.67453l0 0c-5.316284 0 -9.625977 -68.83533 -9.625977 -153.74802c0 -84.912704 4.3096924 -153.74805 9.625977 -153.74805l0 0c5.316284 0 9.625992 68.835335 9.625992 153.74805c0 84.91269 -4.3097076 153.74802 -9.625992 153.74802l-57.755898 0c-5.316284 0 -9.625984 -68.83533 -9.625984 -153.74802c0 -84.912704 4.3097 -153.74805 9.625984 -153.74805l57.755898 0" fill-rule="nonzero"></path><path stroke="#000000" stroke-width="2.0" stroke-linejoin="round" stroke-linecap="butt" d="m143.87007 401.67453l0 0c-5.316284 0 -9.625977 -68.83533 -9.625977 -153.74802c0 -84.912704 4.3096924 -153.74805 9.625977 -153.74805l0 0c5.316284 0 9.625992 68.835335 9.625992 153.74805c0 84.91269 -4.3097076 153.74802 -9.625992 153.74802l-57.755898 0c-5.316284 0 -9.625984 -68.83533 -9.625984 -153.74802c0 -84.912704 4.3097 -153.74805 9.625984 -153.74805l57.755898 0" fill-rule="nonzero"></path><path fill="#ff0000" d="m98.99213 71.666664l16.0 -15.999996l16.0 15.999996l-8.0 0l0 18.015755l-16.0 0l0 -18.015755z" fill-rule="nonzero"></path><path stroke="#000000" stroke-width="2.0" stroke-linejoin="round" stroke-linecap="butt" d="m98.99213 71.666664l16.0 -15.999996l16.0 15.999996l-8.0 0l0 18.015755l-16.0 0l0 -18.015755z" fill-rule="nonzero"></path><path fill="#ff0000" d="m98.99213 424.18634l16.0 16.0l16.0 -16.0l-8.0 0l0 -18.015747l-16.0 0l0 18.015747z" fill-rule="nonzero"></path><path stroke="#000000" stroke-width="2.0" stroke-linejoin="round" stroke-linecap="butt" d="m98.99213 424.18634l16.0 16.0l16.0 -16.0l-8.0 0l0 -18.015747l-16.0 0l0 18.015747z" fill-rule="nonzero"></path><path fill="#cfe2f3" d="m206.25197 213.54462l0 0c0 5.316284 68.83534 9.625992 153.74803 9.625992c84.91269 0 153.74805 -4.3097076 153.74805 -9.625992l0 57.75592c0 5.316284 -68.83536 9.625977 -153.74805 9.625977c-84.91269 0 -153.74803 -4.3096924 -153.74803 -9.625977z" fill-rule="nonzero"></path><path fill="#e2edf7" d="m206.25197 213.54462l0 0c0 -5.316284 68.83534 -9.625977 153.74803 -9.625977c84.91269 0 153.74805 4.3096924 153.74805 9.625977l0 0c0 5.316284 -68.83536 9.625992 -153.74805 9.625992c-84.91269 0 -153.74803 -4.3097076 -153.74803 -9.625992z" fill-rule="nonzero"></path><path fill="#000000" fill-opacity="0.0" d="m513.74805 213.54462l0 0c0 5.316284 -68.83536 9.625992 -153.74805 9.625992c-84.91269 0 -153.74803 -4.3097076 -153.74803 -9.625992l0 0c0 -5.316284 68.83534 -9.625977 153.74803 -9.625977c84.91269 0 153.74805 4.3096924 153.74805 9.625977l0 57.75592c0 5.316284 -68.83536 9.625977 -153.74805 9.625977c-84.91269 0 -153.74803 -4.3096924 -153.74803 -9.625977l0 -57.75592" fill-rule="nonzero"></path><path stroke="#000000" stroke-width="2.0" stroke-linejoin="round" stroke-linecap="butt" d="m513.74805 213.54462l0 0c0 5.316284 -68.83536 9.625992 -153.74805 9.625992c-84.91269 0 -153.74803 -4.3097076 -153.74803 -9.625992l0 0c0 -5.316284 68.83534 -9.625977 153.74803 -9.625977c84.91269 0 153.74805 4.3096924 153.74805 9.625977l0 57.75592c0 5.316284 -68.83536 9.625977 -153.74805 9.625977c-84.91269 0 -153.74803 -4.3096924 -153.74803 -9.625977l0 -57.75592" fill-rule="nonzero"></path><path fill="#000000" fill-opacity="0.0" d="m145.0 247.92651l61.007874 0" fill-rule="nonzero"></path><path stroke="#000000" stroke-width="2.0" stroke-linejoin="round" stroke-linecap="butt" stroke-dasharray="8.0,6.0" d="m145.0 247.92651l61.007874 0" fill-rule="nonzero"></path><path fill="#000000" fill-opacity="0.0" d="m15.480315 247.92651l61.007874 0" fill-rule="nonzero"></path><path stroke="#000000" stroke-width="2.0" stroke-linejoin="round" stroke-linecap="butt" stroke-dasharray="8.0,6.0" d="m15.480315 247.92651l61.007874 0" fill-rule="nonzero"></path><path fill="#000000" fill-opacity="0.0" d="m360.0 153.91864l0 61.007874" fill-rule="nonzero"></path><path stroke="#000000" stroke-width="2.0" stroke-linejoin="round" stroke-linecap="butt" stroke-dasharray="8.0,6.0" d="m360.0 153.91864l0 61.007874" fill-rule="nonzero"></path><path fill="#000000" fill-opacity="0.0" d="m360.0 280.9265l0 61.007874" fill-rule="nonzero"></path><path stroke="#000000" stroke-width="2.0" stroke-linejoin="round" stroke-linecap="butt" stroke-dasharray="8.0,6.0" d="m360.0 280.9265l0 61.007874" fill-rule="nonzero"></path><path fill="#ff0000" d="m316.98425 167.67455l-16.0 -16.0l16.0 -16.0l0 8.0l18.015747 0l0 16.0l-18.015747 0z" fill-rule="nonzero"></path><path stroke="#000000" stroke-width="2.0" stroke-linejoin="round" stroke-linecap="butt" d="m316.98425 167.67455l-16.0 -16.0l16.0 -16.0l0 8.0l18.015747 0l0 16.0l-18.015747 0z" fill-rule="nonzero"></path><path fill="#ff0000" d="m403.01575 167.67455l16.0 -16.0l-16.0 -16.0l0 8.0l-18.015747 0l0 16.0l18.015747 0z" fill-rule="nonzero"></path><path stroke="#000000" stroke-width="2.0" stroke-linejoin="round" stroke-linecap="butt" d="m403.01575 167.67455l16.0 -16.0l-16.0 -16.0l0 8.0l-18.015747 0l0 16.0l18.015747 0z" fill-rule="nonzero"></path></g></svg>

