<?xml version="1.0" encoding="UTF-8" standalone="no"?>
<!-- Created with Inkscape (http://www.inkscape.org/) -->

<svg
   xmlns:dc="http://purl.org/dc/elements/1.1/"
   xmlns:cc="http://creativecommons.org/ns#"
   xmlns:rdf="http://www.w3.org/1999/02/22-rdf-syntax-ns#"
   xmlns:svg="http://www.w3.org/2000/svg"
   xmlns="http://www.w3.org/2000/svg"
   xmlns:sodipodi="http://sodipodi.sourceforge.net/DTD/sodipodi-0.dtd"
   xmlns:inkscape="http://www.inkscape.org/namespaces/inkscape"
   width="1040"
   height="210"
   id="svg2"
   version="1.1"
   inkscape:version="0.48.5 r10040"
   sodipodi:docname="arm.svg">
  <defs
     id="defs4" />
  <sodipodi:namedview
     id="base"
     pagecolor="#ffffff"
     bordercolor="#666666"
     borderopacity="1.0"
     inkscape:pageopacity="0.0"
     inkscape:pageshadow="2"
     inkscape:zoom="32.000001"
     inkscape:cx="1005.0794"
     inkscape:cy="134.85259"
     inkscape:document-units="px"
     inkscape:current-layer="g2996"
     showgrid="false"
     inkscape:window-width="1839"
     inkscape:window-height="1056"
     inkscape:window-x="81"
     inkscape:window-y="24"
     inkscape:window-maximized="1"
     inkscape:snap-bbox="false" />
  <metadata
     id="metadata7">
    <rdf:RDF>
      <cc:Work
         rdf:about="">
        <dc:format>image/svg+xml</dc:format>
        <dc:type
           rdf:resource="http://purl.org/dc/dcmitype/StillImage" />
        <dc:title />
      </cc:Work>
    </rdf:RDF>
  </metadata>
  <g
     inkscape:label="Layer 1"
     inkscape:groupmode="layer"
     id="layer1"
     transform="translate(0,-842.36218)">
    <g
       id="g2983">
      <path
         style="fill:#000000"
         d="m 275,5.9375 c -7.55068,-3.8950602 -65.57553,4.762577 -77.53125,41.9375 7.0359,28.642908 18.98178,56.51402 30.1875,81.59375 0.007,0.0154 0.0248,0.0163 0.0312,0.0312 12.85748,42.93616 52.99356,47.10961 83.625,43.875 13.3776,0.6303 55.50722,-2.38855 73.84375,-5.40625 6.1785,-32.24315 8.76645,-65.98266 9.21875,-94.59375 -0.0115,1e-5 -0.0204,-2e-5 -0.0312,0 C 382.82321,57.47847 365.95473,16.56971 362.90625,14.9375 350.76653,9.9049259 302.29963,4.8361604 275,5.9375 z m 7.5625,3.375 c 17.73025,1.24023 63.79773,1.11023 76.75,9.1875 0.90173,0.6227 28.96875,55.03125 28.96875,55.03125 -41.20237,-6.910616 -64.15204,0.573963 -75.27246,-3.554958 C 300.97481,65.508174 301.8527,48.338068 282.5625,9.3125 z m -6.125,1.0625 c 8.59988,16.882615 17.31576,37.390283 26.5,59.28125 C 258.57046,55.591301 232.36818,93.661021 229.84375,119.25 219.41477,105.43535 213.72133,76.252944 201.96875,49.90625 201.91239,27.904495 249.36827,2.1199726 276.4375,10.375 z M 83.5,15.875 C 18.609205,17.216479 12.271325,88.737848 3.90625,132.5 c 32.32975,27.95005 41.42598,63.388 68.375,75.125 52.16728,-3.1182 66.89528,3.2649 125.15625,-9 C 193.63457,136.02112 188.77705,95.998914 147.34375,76.375 146.16026,54.092642 149.05686,38.941875 120.3125,21.28125 106.29202,17.313102 94.118494,15.655485 83.5,15.875 z m 348.875,1.03125 c -1.31083,0.0012 -2.62871,0.03115 -3.9375,0.0625 -14.36675,3.93843 -19.37926,29.10407 -19.46875,56.40625 -0.0696,21.23503 2.83542,43.75694 6.65625,58.625 6.4612,17.90516 10.31758,19.17847 26,19.3125 58.95549,2.42745 114.08516,-4.2599 119.875,-5.15625 -0.32446,-3.47809 3.02908,-20.7279 1,-21.46875 -13.72954,-1.45306 -25.67206,-1.43267 -38.125,-0.84375 3.00182,-5.86817 -4.72739,-14.90744 -1.6875,-19.78125 15.30313,-0.28741 26.23231,-6.906033 38.125,-4.125 3.30659,-9.631281 -0.3931,-33.81407 -0.53125,-34.34375 -10.82496,-4.087116 -33.6588,-1.845485 -40.46875,-1.78125 -0.36036,-5.17356 0.50948,-10.69042 -0.875,-15.46875 12.67664,-2.58768 34.80387,5.36927 43.21875,-0.75 1.8085,-6.50467 0.18104,-15.5084 1.53125,-21.0625 -48.96732,4.286883 -90.67678,-9.661929 -131.3125,-9.625 z M 576.21875,64 c 11.99234,2.392073 22.71243,1.173603 31.5,4.625 0.009,0.005 0.0222,-0.005 0.0312,0 5.02952,9.939947 3.11008,22.432415 4.0625,32.5625 -8.92819,-0.99865 -18.45504,-0.7116 -27.75,-1.03125 -8.83191,-0.679791 -3.67082,18.79175 -2.53125,20.68745 10.50467,5.12003 24.91491,-0.39541 35.65625,2.25005 3.14276,9.35648 3.87458,11.70329 8,15.09375 30.01462,-4.57329 71.89751,-6.04286 99.875,-14.46875 0.002,-0.0123 -0.002,-0.019 0,-0.0312 1.09499,-24.81591 -3.08789,-54.27391 -8.46875,-78.53125 -24.32536,-9.182334 -76.33782,-13.982849 -100.1874,-7.8125 -0.47602,3.658943 1.26217,4.390229 0.50005,8.0625 -0.39609,2.457196 -28.62423,4.125977 -38.125,5.09375 -0.65078,1.32266 -2.57499,11.181125 -2.5625,13.5 z M 85.09375,19.4375 c 7.606241,-0.118325 15.51166,1.06147 23.4375,3.65625 41.05936,10.103218 32.32987,49.350994 31.25,53.0625 C 83.266007,76.313916 79.871363,112.04594 63.75,113.46875 47.725526,107.12947 29.573958,89.985931 24.09375,81.4375 c 0.566971,-36.846756 28.039621,-61.48726 61,-62 z M 428,19.9375 c 3.31272,2.57749 5.76978,5.48818 7.65625,8.78125 0.006,0.009 -0.006,0.02225 0,0.03125 19.70035,37.2715 9.99256,87.5625 -2.46875,116.21875 -2.09633,1.58743 -5.56659,-0.66521 -7.0625,-1.96875 -6.40284,-5.42619 -13.88515,-36.84982 -14.21875,-67.15625 C 411.64678,52.27209 415.70574,29.37096 428,19.9375 z m 24.5,1.25 c 27.82936,0.334143 62.7271,13.068448 108.6875,8.875 -0.17509,2.31628 -1.05031,16.02933 -1.28125,16.28125 -13.25024,5.21118 -30.58326,-4.83013 -43.65625,0.09375 -0.14207,1.14335 -0.18143,14.21462 1.40625,19.6875 2.60099,0.76502 39.88276,0.63284 39.84375,2.3125 -1.67331,8.265184 1.57217,17.247193 0.875,25.25 -0.003,0.008 0.005,0.02365 0,0.03125 -15.46775,3.28352 -31.901,7.1995 -38.6875,6.90625 -4.29095,-0.80168 -0.56838,18.55913 0.5625,24.21875 1.70661,2.90446 6.43269,1.98508 8.75,2.09375 0.0129,6e-4 30.33115,1.53064 30.34375,1.53125 1.36509,6.93744 0.85959,5.50674 -0.59375,12.4375 -11.62489,-0.73698 -83.74897,14.90726 -121.59375,4.03125 22.3105,-49.72706 12.71238,-98.70781 0.59375,-122.46875 4.69497,-0.974414 9.59641,-1.343128 14.75,-1.28125 z m 261.2187,26.90625 c 6.69564,17.057708 10.6095,63.40601 7.75,72.96875 0.17438,7.22048 -59.79362,8.02992 -90.9062,14.0625 -1.80417,-13.96573 -0.24463,-26.92596 -2.09375,-40.96875 -2.52081,-18.583274 -5.17715,-36.499092 -8.8125,-53.9375 31.09944,-6.578767 63.53901,-0.07251 94.06245,7.875 z m -632.87495,4.3125 c -3.916788,0.0011 -1.898943,9.097597 0.6875,8.78125 2.356395,-0.177599 5.746328,-5.961509 0.1875,-8.65625 -0.315486,-0.0864 -0.613881,-0.125077 -0.875,-0.125 z m 537.3125,-4.0625 c 0.44099,4.106134 5.69273,12.80758 1.96875,16.3125 -12.66873,-0.19524 -28.5852,-2.2035 -40.625,-2.375 -0.29592,-6.28737 0.0908,-4.15958 1.5625,-7.78125 13.16416,-6.219113 25.73489,-1.959936 37.09375,-6.15625 z M 621.9375,68.875 c 3.33711,10.836737 4.98637,25.449953 5.03125,34.0625 -4.15275,-0.95447 -7.73814,-1.36573 -12.375,-1.90625 -1.21254,-3.862983 -0.22479,-24.893853 -3.84375,-32.59375 6.24018,-1.464352 10.41617,-2.810018 11.1875,0.4375 z M 305.25,74.6875 c 40.14034,15.965762 44.85375,67.3746 5.4375,92.71875 C 269.60092,178.80828 229.58479,153.12362 235.375,122.375 247.90359,63.932194 289.09446,70.083192 305.25,74.6875 z m 12,0.65625 c 37.59644,-0.4039 31.08397,-1.89913 74.125,3.0625 -1.92834,35.77758 -2.19092,56.0566 -7.21875,86.6875 -23.13404,2.17586 -47.00185,2.74104 -67.625,4.6875 27.10748,-24.84136 39.94918,-63.61085 0.71875,-94.4375 z m 112.0625,6.375 c -2.0435,0.241352 -2.64967,4.138537 -0.78125,4.6875 2.99751,0.163313 3.21492,-4.496406 1.21875,-4.6875 -0.14861,-0.01851 -0.30127,-0.01609 -0.4375,0 z m -297,1.78125 c 31.97325,0.318901 55.66419,31.15785 53.25,60.59375 -26.47023,42.94287 -66.98471,62.41594 -110.34375,14.75 -6.665272,-41.6292 13.127411,-73.669865 53.96875,-75.28125 1.04801,-0.05433 2.0936,-0.07279 3.125,-0.0625 z M 17.90625,85.875 c 15.49978,14.09666 40.653144,35.81234 50.4375,31.03125 -0.386284,0.97088 -0.72227,4.39125 -1.4375,5.0625 -17.736344,3.30517 -39.40143,3.85298 -57.40625,6.40625 10.058154,-22.36944 4.450936,-22.9666 8.40625,-42.5 z m 566.125,17 c 11.31301,2.98448 30.59492,-0.31107 40.7812,2.8125 1.7119,3.17329 3.13659,9.72652 2.06245,13.4375 -13.91191,-0.71549 -28.56496,1.24563 -41.40625,-1.18755 -3.2625,-3.94618 -0.93426,-10.03034 -1.4374,-15.06245 z M 287.0625,119.4375 c -3.93091,-0.28076 -3.8758,6.01477 -0.5625,5.46875 3.48649,-1.63339 3.06358,-5.34992 0.5625,-5.46875 z m 339.53125,3.40625 c 1.6889,3.74857 0.1217,7.73732 1.53125,11.90625 -0.57931,2.73057 -1.58561,1.2689 -3.15625,1 -0.49691,-0.62948 -4.4434,-10.87844 -4.96875,-11.84375 -2.13556,-2.39296 3.98673,-2.94692 6.59375,-1.0625 z M 64.3125,126.7187 c 1.122513,-0.0117 2.200223,0.005 3.25,0.0312 -2.73829,37.9209 -0.84842,35.76985 1.125,71.09375 -18.63508,-6.9617 -54.77503,-64.58478 -54.78125,-65.71875 9.283878,-0.97428 33.568562,-5.23076 50.40625,-5.40625 z m 64.71875,8.6875 c -2.08804,0.77817 -1.3336,3.30169 0.40625,3.5 1.65729,-1.36815 1.45476,-3.17908 -0.40625,-3.5 z m 58.59375,16.1563 c 6.25092,6.50147 4.94403,29.50914 3.8125,44.96875 -13.54181,0.22963 -92.656575,11.1075 -118.96875,5.34375 -1.261611,-21.50236 -1.953297,-21.16327 0.375,-40.625 54.42523,58.86911 90.04928,21.96537 114.78125,-9.6875 z"
         transform="translate(0,842.36218)"
         id="path2996"
         inkscape:connector-curvature="0"
         sodipodi:nodetypes="cccccccccccccsccccccscccccsscsccccccccccccssccccccccccccccsccccscscccscsscccccccccccccssccccccccscccccccccccccccscccsscsscccsccccccccccccscccccccccccccccccccc" />
    </g>
  </g>
  <g
     transform="translate(0,-842.36218)"
     id="g2996"
     inkscape:groupmode="layer"
     inkscape:label="Layer 1 copy">
    <g
       id="g2998">
      <path
         style="fill:#000000"
         d="m 945.0625,12.71875 c -2.53068,0.03533 -5.02387,0.143765 -7.25,0.3125 -2.67069,0.20316 -4.91781,0.52191 -6.4375,0.90625 -1.01335,0.256 -1.72692,0.53993 -1.9375,0.875 -0.7338,1.16765 -2.99878,1.68697 -5.0625,1.15625 -1.03186,-0.26535 -1.97646,-0.33317 -2.65625,-0.21875 -0.33988,0.05723 -0.62207,0.13972 -0.8125,0.28125 -0.19045,0.14154 -0.28125,0.34376 -0.28125,0.5625 0,0.32029 -0.15523,0.62422 -0.40625,0.875 -0.007,0.006 -0.0245,-0.006 -0.0312,0 -0.16844,0.1634 -0.37952,0.35575 -0.625,0.46875 -0.009,0.005 -0.0222,-0.005 -0.0312,0 -0.24773,0.11063 -0.54436,0.17475 -0.84375,0.21875 -0.0108,0.001 -0.0199,-0.001 -0.0312,0 -0.15633,0.0212 -0.30371,0.03125 -0.46875,0.03125 -0.488,0 -1.14428,0.21094 -1.84375,0.5625 -0.009,0.005 -0.0222,-0.005 -0.0312,0 -7.56122,7.990251 -12.60866,5.582941 -21.96875,18.75 -0.094,0.27005 -0.1829,0.55461 -0.25,0.8125 -0.13455,0.51603 -0.21075,0.99716 -0.21875,1.4375 -0.0114,0.62963 -0.18157,1.31365 -0.46875,1.90625 -0.007,0.0144 -0.0245,0.01655 -0.0312,0.03125 -3.42187,1.320061 -5.95381,7.399228 -8.5312,9.65625 -1.91454,1.620346 -4.06893,3.070559 -5.71875,4.78125 -2.40499,4.267269 -6.2119,2.341442 -10.75,2.90625 -2.63541,0.909589 -3.64456,3.309364 -4.03125,5.625 -2.47129,2.164847 -5.95993,2.266728 -8.875,3.8125 -2.21103,1.915463 -2.67993,5.572119 -2.4375,7.59375 0.92772,3.729008 11.56634,-0.463957 13.7812,0.53125 1.43183,0.979907 2.14521,6.318881 1.37505,7.4375 -4.03055,0.173837 -11.22433,0.30931 -14.3437,2.65625 -1.13519,2.713551 -1.93811,8.718521 1.375,9.96875 3.74824,-0.749406 7.38548,-0.78443 10.6562,-0.25 0.01,0.005 0.0208,-0.005 0.0312,0 7.00036,8.03166 -0.80755,8.04272 3.68745,12.15625 0.21737,0.13948 0.39323,0.26639 0.625,0.375 2.15036,0.70091 4.54162,0.16899 5.7812,2.24995 0,0.12066 0.0165,0.26033 0.0625,0.375 0.0931,0.22796 0.24914,0.43818 0.5,0.625 0.62178,0.47395 1.70971,0.78125 2.90625,0.78125 0.23932,0 0.47369,0.002 0.71875,0.0312 0.0113,0.001 0.0195,-10e-4 0.0312,0 2.54892,0.24866 3.71494,1.7621 5.2187,3.46875 0.006,0.006 0.0245,-0.006 0.0312,0 0.216,0.20655 0.4367,0.42342 0.6875,0.625 0.007,0.006 0.0555,-0.006 0.0625,0 14.40457,7.76699 29.49032,7.8618 43.9374,6.375 17.05662,-1.73005 21.79438,-1.05281 36.59375,-3.75 0.95705,0.0547 2.02764,-0.6908 3.375,-0.8125 1.84054,-0.16633 5.30443,-0.3903 9.375,-0.625 4.07348,-0.23521 8.75828,-0.49775 13.09375,-0.6875 3.0956,-0.1355 5.69092,-0.27526 7.84375,-0.46875 3.7707,-0.33935 6.2318,-0.79914 8,-1.5 0.5144,-0.20425 0.969,-0.40836 1.375,-0.65625 0.6005,-0.36293 1.0615,-0.77797 1.5,-1.25 0.5611,-2.07665 0.9348,-2.77274 -0.094,-0.90625 0.062,-3.49892 0.8248,-5.4844 -2.0313,-7.125 -0.5521,-0.29669 -1.1759,-0.57335 -1.8437,-0.78125 -1.3844,-0.45026 -2.9313,-0.56471 -4.2813,-0.8125 -12.31039,-3.51752 -21.77834,-1.90468 -33.21865,-2.1249 -1.79631,-0.0368 -3.53767,0.0137 -4.96875,0.21875 -1.01065,-2.01318 -0.85651,-4.894728 -0.90625,-7.125 4.20701,2.536788 9.7372,-0.625397 13.5937,1.6875 0,0 14.7327,1.761863 29.68745,2 2.7283,0.0404 4.947,0.03195 6.75,-0.03125 5.4111,-0.18961 7.0966,-0.93229 7.7812,-2.6875 0.7568,-3.111604 -0.4339,-5.968357 -2.5933,-8.03125 -0.01,-0.006 -0.019,0.006 -0.031,0 -0.4741,-0.35212 -0.9924,-0.55995 -1.5,-0.59375 -0.4333,-0.0289 -1.8614,-0.2114 -3.7812,-0.46875 -0.01,-0.001 -0.019,0.001 -0.031,0 -1.9476,-0.26134 -4.4168,-0.59815 -6.9376,-0.96875 -4.4728,-0.882409 -9.29043,-5.913634 -12.6875,-2 -4.13267,-0.551039 -12.66684,-1.40535 -13,-1.53125 -0.01,-0.004 -0.0208,0.004 -0.0312,0 -0.89933,-0.324033 -1.84585,-0.124307 -2.65625,0.0625 -6.21213,-1.268391 -8.78554,-1.121083 -14.31245,-0.5 l 0.15625,-5 c 20.05831,-0.327993 49.91865,3.868686 65.12485,-0.5625 5.0373,-4.96776 2.5772,-13.356522 0.6872,-13.21875 0.5247,-1.316088 -47.23722,1.299867 -63.8124,-3.96875 -0.0108,-0.005 -0.0208,0.005 -0.0312,0 -0.0621,-0.0273 -0.0694,-0.0965 -0.125,-0.125 -0.115,-0.05886 -0.25385,-0.1235 -0.34375,-0.1875 -0.13342,-0.09498 -0.2265,-0.17382 -0.3125,-0.28125 -0.17232,-0.21402 -0.24255,-0.44709 -0.28125,-0.71875 -0.0193,-0.13597 -0.0625,-0.28532 -0.0625,-0.4375 0,-0.72358 0.49843,-1.25163 1.75,-1.625 0.41742,-0.12554 0.90043,-0.25005 1.5,-0.34375 1.19863,-0.18511 2.78745,-0.2965 4.84375,-0.375 1.02815,-0.03915 2.18969,-0.08011 3.46875,-0.09375 1.27906,-0.01364 2.67564,0 4.21875,0 2.16776,0 4.24014,0.0032 6.1875,0.0625 0.011,3.6e-4 0.0204,-3.5e-4 0.0312,0 13.82075,-2.356546 16.39685,5.704174 25.84375,0.71875 4.2754,-2.317286 4.5336,-4.119164 1.4066,-7.5625 -0.4372,-0.47266 -0.9513,-0.93056 -1.5,-1.34375 -1.0979,-0.8264 -2.4054,-1.50519 -3.7813,-1.9375 -0.6882,-0.21615 -1.3796,-0.359 -2.0937,-0.4375 -0.012,-10e-4 -0.02,10e-4 -0.031,0 -0.3581,-0.0392 -0.6726,-0.0625 -1.0313,-0.0625 -0.697,0 -1.3919,-0.0546 -2,-0.125 -1.8229,-0.21132 -3.0937,-0.6902 -3.0937,-1.28125 -9e-4,-0.10162 -0.146,-0.2179 -0.4063,-0.3125 -0.2445,-0.09149 -0.5665,-0.1674 -1.0312,-0.25 -1.8609,-0.33491 -5.39328,-0.59818 -9.78125,-0.71875 -1.0818,-0.029 -2.2004,-0.0506 -3.375,-0.0625 -0.009,-1.2e-4 -0.0505,1.2e-4 -0.0625,0 -1.18838,-0.0119 -2.3673,-0.008 -3.625,0 -3.41946,0.0218 -6.31666,0.008 -8.75,-0.0625 -1.21101,-0.03593 -2.28761,-0.09375 -3.28125,-0.15625 -1.99115,-0.12216 -3.55005,-0.29033 -4.78125,-0.53125 -0.9205,-0.18286 -1.62261,-0.39834 -2.1875,-0.65625 -0.009,-0.004 -0.0535,0.004 -0.0625,0 -0.98171,-0.696602 -1.84817,-1.412597 -2.875,-1.84375 -9.11891,-1.872253 -19.81768,-3.120119 -28.9686,-0.3125 -0.39522,0.14199 -0.73766,0.2786 -1.0625,0.375 -0.0124,0.004 -0.05,-0.004 -0.0625,0 -0.31995,0.0941 -0.58677,0.17255 -0.84375,0.21875 -0.013,0.002 -0.0186,-0.002 -0.0312,0 -0.47501,0.08446 -0.83855,0.06715 -1.125,-0.03125 -0.0225,-0.0075 -0.041,-0.02225 -0.0625,-0.03125 -0.009,-0.004 -0.0545,0.005 -0.0625,0 -0.14895,-0.06702 -0.24253,-0.18407 -0.34375,-0.3125 -0.20135,-0.25894 -0.3242,-0.60206 -0.375,-1.125 -0.0252,-0.26099 -0.0332,-0.57412 -0.0312,-0.90625 0.0177,-2.8335 4.64999,-5.97993 9.8125,-7.625 1.03249,-0.32902 2.11482,-0.62054 3.15625,-0.8125 2.08285,-0.38319 4.08768,-0.46842 5.8125,-0.125 0.62112,0.12366 1.3866,0.23431 2.21875,0.34375 1.66429,0.21886 3.67457,0.41473 5.875,0.5625 0.0122,8.3e-4 0.0187,-8.3e-4 0.0312,0 2.19063,0.14659 4.52994,0.2549 6.84375,0.3125 3.48899,0.08853 6.91453,0.07461 9.53125,-0.09375 0.97208,-0.06253 1.67021,-0.42624 2.125,-0.96875 0.18191,-0.21701 0.32971,-0.47651 0.4375,-0.75 0.1618,-0.41023 0.241,-0.87035 0.25,-1.375 0.006,-0.34677 -0.003,-0.68676 -0.0625,-1.0625 -0.0108,-0.07096 -0.0181,-0.14705 -0.0312,-0.21875 -0.12211,-0.65511 -0.36439,-1.34844 -0.65625,-2.03125 -0.1725,-0.39875 -0.37295,-0.76568 -0.59375,-1.15625 -0.20616,-0.36762 -0.41018,-0.71283 -0.65625,-1.0625 -0.006,-0.0078 0.006,-0.0545 0,-0.0625 -0.11141,-0.15749 -0.25617,-0.28532 -0.375,-0.4375 -0.16364,-0.19279 -0.3075,-0.37995 -0.4699,-0.5625 -0.28984,-0.32702 -0.58452,-0.62141 -0.90625,-0.90625 -0.81328,-0.72053 -1.69485,-1.27424 -2.65625,-1.59375 -0.0467,-0.0155 -0.10935,-0.0479 -0.15625,-0.0625 -0.29962,-0.09344 -0.59775,-0.17645 -0.90625,-0.21875 -0.0348,-0.005 -0.0584,0.004 -0.0937,0 -0.19708,-0.0232 -0.39398,-0.03125 -0.59375,-0.03125 -0.14479,0 -0.26051,-0.0027 -0.40625,-0.03125 -0.12295,-0.02191 -0.25416,-0.0844 -0.375,-0.125 -0.0104,-0.004 -0.0208,0.004 -0.0312,0 -0.0366,-0.0126 -0.0885,-0.01675 -0.125,-0.03125 -0.35436,-0.14061 -0.6582,-0.3625 -0.9375,-0.625 -0.10294,-0.09666 -0.19505,-0.17275 -0.28125,-0.28125 -0.17249,-0.21697 -0.32175,-0.46943 -0.40625,-0.71875 -0.0565,-0.16661 -0.22219,-0.32422 -0.5,-0.46875 -0.83328,-0.4334 -2.60516,-0.76284 -4.90625,-1 -1.53406,-0.15811 -3.29207,-0.27115 -5.1875,-0.34375 -2.3699,-0.09132 -4.93807,-0.129085 -7.46875,-0.09375 z m -0.3125,3.25 c 4.98551,-0.156716 13.81415,2.243971 14.5625,4.28125 0.0302,0.08362 0.0294,0.19905 0.0312,0.28125 -9e-4,0.07047 -0.008,0.14965 -0.0312,0.21875 -0.0838,0.25094 -0.25369,0.471 -0.53125,0.71875 -0.13879,0.12388 -0.32219,0.2569 -0.5,0.375 -0.30426,0.20216 -0.66884,0.39017 -1.0625,0.5625 -0.0644,0.0283 -0.1211,0.0977 -0.1875,0.125 -0.01,0.005 -0.0208,-0.004 -0.0312,0 -0.23792,0.09686 -0.46077,0.1688 -0.71875,0.25 -0.5146,0.16245 -1.06711,0.2946 -1.625,0.375 -2.14113,0.3083 -4.50173,0.19434 -6.5625,-0.15625 -0.68244,-0.11563 -1.31262,-0.24033 -1.90625,-0.40625 -1.1908,-0.3309 -2.15475,-0.75335 -2.75,-1.21875 -0.44446,-0.34958 -0.70335,-0.74381 -0.65625,-1.125 0.0155,-0.12701 0.076,-0.24721 0.15625,-0.375 1.04704,-2.823549 -4.90083,-1.006309 -0.8749,-3.34375 0.5952,-0.342915 1.537,-0.526335 2.6875,-0.5625 z M 931,19.03125 c 0.65029,0.01051 1.26985,0.12983 1.8125,0.3125 0.48235,0.16238 0.89508,0.37234 1.28125,0.6875 0.5638,0.46013 0.99558,1.00746 1.25,1.5625 0.16962,0.37004 0.2662,0.75154 0.3125,1.125 0.16204,1.30711 -0.40154,2.53682 -1.4375,3.03125 -0.44398,0.212 -0.99353,0.29932 -1.59375,0.1875 -0.20007,-0.03726 -0.4104,-0.1065 -0.625,-0.1875 -0.17769,-0.067 -0.3478,-0.1103 -0.5625,-0.125 -2.28134,0.05798 -4.33284,1.354902 -6.06235,2.71875 -1.63897,1.34164 -2.71597,2.85941 -2.15625,3.75 0.0499,0.07949 0.0615,0.1715 0.0625,0.25 -0.025,0.37562 -0.58144,0.75183 -1.46875,0.96875 -0.01,0.002 -0.0208,-0.002 -0.0312,0 -0.37276,0.0889 -0.81227,0.1528 -1.28125,0.1875 -3.01453,0.282075 -5.18009,-0.976039 -4,-4.15625 0.0408,-0.08856 0.0787,-0.1592 0.125,-0.25 0.0661,-0.12916 0.1103,-0.24139 0.1875,-0.375 0.25521,-0.4414 0.62268,-0.9191 1,-1.40625 0.16266,-0.21162 0.31428,-0.43694 0.5,-0.65625 0.25455,-0.30089 0.48306,-0.5597 0.78125,-0.875 1.36953,-1.44817 2.79669,-2.71178 4.21875,-3.71875 1.59633,-1.142923 3.36735,-1.988486 5.15625,-2.625 0.32519,-0.09525 0.65606,-0.15725 0.96875,-0.21875 0.31214,-0.06185 0.6087,-0.12895 0.90625,-0.15625 0.22316,-0.02045 0.43949,-0.03476 0.65625,-0.03125 z m 33.03125,1.4375 c 0.0652,-0.0049 0.14035,0.0444 0.21875,0.0625 0.0339,0.007 0.0884,-0.0119 0.125,0 0.0698,0.0229 0.13905,0.05545 0.21875,0.09375 0.38588,0.18546 0.87393,0.5573 1.53125,1.09375 0.3681,0.30043 0.74326,0.57964 1.0625,0.875 0.32,0.29481 0.56989,0.58569 0.8125,0.84375 0.2416,0.25877 0.45856,0.49681 0.59375,0.6875 0.13525,0.1907 0.21875,0.3464 0.21875,0.4375 0,0.0316 -0.0448,0.06355 -0.0625,0.09375 -0.0358,0.04304 -0.0883,0.11665 -0.15625,0.15625 -0.40555,0.22843 -1.36442,0.375 -2.46875,0.375 -0.36811,0 -0.71201,-0.07708 -1.03125,-0.21875 -0.16831,-0.07469 -0.32012,-0.1421 -0.46875,-0.25 -0.13472,-0.09702 -0.25912,-0.22302 -0.375,-0.34375 -0.12079,-0.12707 -0.2165,-0.25653 -0.3125,-0.40625 -0.009,-0.0134 -0.0232,-0.01735 -0.0312,-0.03125 -0.0876,-0.13764 -0.15445,-0.28433 -0.21875,-0.4375 -0.13525,-0.33743 -0.21875,-0.73345 -0.21875,-1.125 0,-0.29152 -0.0176,-0.55826 0,-0.78125 0.0172,-0.22299 0.0539,-0.43813 0.0937,-0.59375 0.0285,-0.10192 0.084,-0.1785 0.125,-0.25 0.0289,-0.0504 0.0576,-0.0899 0.0937,-0.125 0.0434,-0.0421 0.10205,-0.07345 0.15625,-0.09375 0.0333,-0.0123 0.0557,-0.0575 0.0937,-0.0625 z m -55,14.28125 c 0.13705,-0.0016 0.28317,0.02005 0.46875,0.0625 0.55675,0.12728 1.3112,0.45986 2.21875,0.9375 0.24013,0.12638 0.46861,0.25305 0.6875,0.40625 0.21888,0.1532 0.39721,0.35654 0.59375,0.53125 0.99298,0.779828 1.54512,1.857754 2.03125,2.96875 0.13705,0.40616 0.2307,0.77129 0.25,1.125 0.0387,0.71833 -0.18068,1.30021 -0.6875,1.53125 -0.12145,0.0601 -0.24929,0.07605 -0.40625,0.09375 -0.16512,0.0183 -0.32565,0.0346 -0.53125,0 -0.19358,-0.03017 -0.39371,-0.07285 -0.625,-0.15625 -0.1625,-0.05859 -0.322,-0.1028 -0.46875,-0.1875 -0.26878,-0.15511 -0.51742,-0.37257 -0.71875,-0.59375 -0.20023,-0.21997 -0.35391,-0.49208 -0.46875,-0.75 -0.005,-0.0107 0.005,-0.02055 0,-0.03125 -0.0531,-0.12332 -0.0945,-0.24787 -0.125,-0.375 -0.002,-0.0113 0.002,-0.01935 0,-0.03125 0.46748,-2.816076 -1.19993,-2.065524 -2.81245,-3.59375 -0.12658,-0.19326 -0.2031,-0.42034 -0.25,-0.65625 -0.0233,-0.11796 -0.0625,-0.21884 -0.0625,-0.34375 0,-0.30796 0.0731,-0.56844 0.21875,-0.71875 0.0728,-0.07575 0.14012,-0.11965 0.25,-0.15625 0.0104,-0.004 0.051,0.004 0.0625,0 0.10995,-0.03585 0.23795,-0.06085 0.375,-0.0625 z M 903.125,35.5 c 0.35644,0.29416 0.6164,0.75175 0.78125,1.40625 0.003,0.0117 -0.003,0.01915 0,0.03125 0.1068,0.43779 0.1875,0.96304 0.1875,1.5625 0,1.24478 -0.12784,2.16068 -0.46875,2.8125 -0.11364,0.21727 -0.27428,0.39989 -0.4375,0.5625 -0.65288,0.6504 -1.69453,0.875 -3.375,0.875 -0.47416,0 -0.85151,-0.0097 -1.21875,-0.03125 -0.0957,-0.005 -0.19245,0.007 -0.28125,0 -0.0862,-0.0063 -0.13885,-0.02325 -0.21875,-0.03125 -0.30658,-0.03225 -0.59613,-0.09455 -0.8125,-0.15625 -0.10759,-0.0307 -0.19505,-0.0234 -0.28125,-0.0625 -0.0266,-0.0117 -0.069,-0.0496 -0.0937,-0.0625 -0.0594,-0.0306 -0.0769,-0.05805 -0.125,-0.09375 -0.0512,-0.038 -0.11765,-0.0805 -0.15625,-0.125 -0.0117,-0.0134 -0.0208,-0.01695 -0.0312,-0.03125 -0.0344,-0.04542 -0.0399,-0.10415 -0.0625,-0.15625 -0.0375,-0.08515 -0.087,-0.17737 -0.0937,-0.28125 -0.0173,-0.2492 0.0697,-0.56643 0.21875,-0.9375 0.14904,-0.37108 0.3695,-0.78561 0.65625,-1.3125 0.90401,-1.66109 1.89441,-2.85189 2.84375,-3.5625 1.04461,-0.786014 1.85987,-0.982134 2.9686,-0.40625 z m 55.84375,5.59375 -4.4375,1.25 c -1.1166,0.54327 -2.0922,1.08858 -2.90625,1.65625 -3.11064,2.153799 -4.04738,5.155414 -4,8.6875 0.0634,0.50054 0.22468,0.9032 0.46875,1.25 0.73595,1.04636 2.41133,1.50906 5.75,2.125 l 6.65625,1.25 -5.96875,1.9375 c -0.96063,0.31218 -1.86552,0.71234 -2.6875,1.1875 -0.4112,0.2374 -0.81413,0.51093 -1.1875,0.78125 -1.48286,1.07541 -2.67028,2.38818 -3.46875,3.78125 -0.20018,0.35035 -0.37985,0.70506 -0.53125,1.0625 -0.7869,1.74985 -0.75931,3.506375 -0.25,5.21875 0.12525,0.31545 0.28161,0.61468 0.46875,0.90625 0.3766,0.59436 0.85501,1.12997 1.5,1.59375 0.67318,0.48404 1.56937,0.90871 2.53125,1.28125 0.64125,0.24836 1.32928,0.45731 2,0.625 0.67071,0.16769 1.31641,0.3129 1.9375,0.375 0.0113,0.001 0.0196,-0.001 0.0312,0 0.29727,0.0292 0.60302,0.03125 0.875,0.03125 0.28331,0 0.54489,0.0078 0.8125,0.03125 0.26836,0.023 0.53371,0.081 0.78125,0.125 0.0108,0.002 0.0199,-0.002 0.0312,0 0.97375,0.17735 1.76903,0.52547 2.1875,0.9375 0.20931,0.20979 0.34375,0.41492 0.34375,0.65625 0,0.18564 -0.0951,0.39338 -0.21875,0.5625 -0.0333,0.0434 -0.0839,0.05175 -0.125,0.09375 -0.10308,0.10542 -0.19764,0.24955 -0.34375,0.34375 -0.57759,0.37233 -1.50095,0.64661 -2.53125,0.75 -0.0113,0.001 -0.0199,-0.001 -0.0312,0 -0.26144,0.0252 -0.53641,0.02925 -0.8125,0.03125 -0.70656,0.0047 -1.36103,0.0591 -1.96875,0.125 -0.60772,0.06587 -1.13804,0.14703 -1.65625,0.28125 -0.76582,0.19834 -1.46682,0.47659 -2.0625,0.84375 -0.008,0.005 -0.0232,-0.006 -0.0312,0 -1.80682,1.12632 -2.88799,3.08617 -3.6875,6.21875 -0.79664,3.12129 -0.29874,5.7857 1.0625,7.5 0.66547,0.929477 1.6913,1.417218 2.65625,1.8125 0.80629,0.2406 1.6757,0.30929 2.65625,0.1875 0.32685,-0.0406 0.68806,-0.1028 1.03125,-0.1875 0.55533,-0.13706 1.11649,-0.2211 1.65625,-0.25 0.53975,-0.0289 1.03245,-0.0081 1.5,0.0625 0.67987,0.10261 1.27594,0.30292 1.65625,0.59375 0.013,0.0107 0.0186,0.02055 0.0312,0.03125 0.12654,0.10189 0.2359,0.22179 0.3125,0.34375 0.21522,0.34245 0.32885,0.66385 0.34375,0.9375 0.004,0.25938 -0.0791,0.49281 -0.3125,0.71875 -0.0818,0.07855 -0.16619,0.14215 -0.28125,0.21875 -0.34483,0.23125 -0.87761,0.48444 -1.5625,0.71875 -1.37069,0.46598 -3.4723,0.96154 -6.5625,1.625 -9.14683,1.96379 -7.92158,13.3125 1.4375,13.3125 0.78809,-0.003 1.52588,0.0481 2.28125,0.0937 2.12011,0.2515 2.45297,0.90115 1.4375,1.53125 -0.4352,0.27005 -1.12111,0.54404 -2.03125,0.78125 -1.2135,0.31628 -2.81786,0.55701 -4.75,0.6875 -4.01636,0.27125 -8.2063,0.69485 -9.28125,0.90625 -0.086,0.0169 -0.1631,0.0159 -0.25,0 -0.16123,-0.0295 -0.33695,-0.11591 -0.5,-0.25 -0.0108,-0.01 -0.0199,-0.0535 -0.0312,-0.0625 -0.088,-0.0765 -0.1621,-0.14565 -0.25,-0.25 -1.647,-2.35966 -2.3158,-5.55591 -2.84375,-8.15625 -0.24826,-1.2337 -0.45422,-2.51974 -0.625,-3.8125 -0.5511,-7.202641 -0.27259,-14.883196 -2.2813,-21.03125 -0.39897,-2.002672 -1.67982,-3.849628 -2.15625,-5.59375 -0.0504,-0.31052 -0.0729,-0.64364 -0.0625,-0.9375 0.68912,-1.962311 1.76579,-3.400978 2.21875,-5.40625 0.87837,-6.49713 0.079,-13.347546 -0.59375,-19.375 -0.68686,-6.10697 -0.88328,-8.8219 -0.21875,-10 0.0673,-0.11739 0.1653,-0.2242 0.25,-0.3125 3.51352,-1.50432 8.06798,-0.964726 11.31245,-2.21875 0.35682,-0.15197 0.72078,-0.33099 1.03125,-0.5 0.24541,-0.1336 0.67555,-0.27415 1.25,-0.40625 4.79282,-1.275704 8.04954,-0.731033 13.0001,0.68755 z m -212.90625,9.9375 c -7.47853,9.558445 -7.67215,37.100013 3.15625,66.5625 1.1286,1.72387 14.99923,2.77115 16.78125,2.84375 2.64926,0.7721 83.70955,-1.35674 87.24995,-9.9062 C 853.17061,105.37341 852.01876,99.445082 851,95.25 c -4.77473,-4.472517 -14.9489,1.278195 -21.7187,-2.3125 -0.3386,-0.736108 -0.62258,-2.870982 -0.3438,-3.5 10.45874,-1.493764 13.87258,2.008297 19.25,-3.25 -1.37967,-5.779335 0.20202,-7.92255 -0.59375,-9.65625 -6.42324,-3.343124 -13.6647,-1.203601 -19.90625,-1.21875 -0.41412,-0.70963 -0.29665,-5.14389 -0.21875,-6.03125 8.41881,-1.512051 12.43767,2.778369 19.65625,0.125 1.43008,-1.302425 -0.19001,-10.141889 -2.5,-14.3125 -10.49131,-4.768245 -57.06982,-3.489905 -79.75,-9.9375 -7.32258,-2.0972 -14.74159,-0.27781 -18.8125,5.875 z m 227.6874,-4.5 c 4.58839,6.01757 -8.45513,6.967533 -8.53125,1.46875 0.79945,-4.917673 7.66728,-5.46608 8.53125,-1.46875 z m -50.65615,-1.75 c 0.008,4.4e-4 0.0232,-4.3e-4 0.0312,0 0.97886,0.05332 1.57395,0.15708 1.78125,0.28125 0.052,0.0312 0.0879,0.05585 0.0937,0.09375 -0.003,0.0311 -0.0302,0.0891 -0.0625,0.125 -0.98981,0.607726 -1.96564,0.897774 -3,1.28125 -3.62107,1.394155 -7.46708,6.49725 -5.1875,8.71875 0.12526,0.11839 0.26433,0.24435 0.40625,0.34375 0.13418,0.09391 0.25841,0.14605 0.40625,0.21875 0.0144,0.0072 0.0168,0.02425 0.0312,0.03125 1.79669,0.523475 3.86762,0.537382 5.6875,0.6875 0.22606,0.01852 0.45964,0.07985 0.65625,0.15625 3.96964,5.428631 0.57771,12.472871 -3.625,15.6875 -0.92739,0.754955 -1.64439,1.787965 -2.21875,2.71875 -0.51978,0.97181 -0.82455,2.03105 -0.90625,3.03125 -0.0765,1.01038 0.0751,2.00387 0.4375,2.90625 1.51692,3.17279 4.26953,3.241582 6.71875,4.6875 3.50367,2.36624 4.02424,8.21436 1,11.1875 -0.50404,0.49552 -1.10873,0.91216 -1.8125,1.21875 -0.334,0.14551 -0.64726,0.31894 -0.9375,0.5 -0.009,0.006 -0.0222,-0.006 -0.0312,0 -0.28891,0.18202 -0.53577,0.38143 -0.78125,0.59375 -0.007,0.006 -0.0555,-0.006 -0.0625,0 -0.24493,0.21382 -0.42345,0.47975 -0.625,0.71875 -0.21244,0.25192 -0.42913,0.50722 -0.59375,0.78125 -0.64158,1.06801 -0.8839,2.25781 -0.8125,3.4375 0.67197,3.06982 1.97138,4.39193 4.53125,5.24995 1.71866,0.39897 2.82242,0.97208 3.5,1.90625 1.45337,2.83071 0.9375,6.35031 0.9375,9.53125 -26.85776,0.14585 -40.88265,-1.39972 -45.4062,-13.2813 13.03926,-7.11723 36.33045,-26.238287 2.4062,-51.96875 2.17652,-2.9143 8.93915,-6.18276 16.5625,-8.375 0.92769,-0.26724 1.86621,-0.51674 2.8125,-0.75 6.23988,-1.633414 11.69395,-2.042558 18.0626,-1.71865 z M 988.9375,43.9375 c -4.6291,3.985909 4.40957,9.036333 -2.06245,8 0.252,-0.176778 -10.01094,0.284943 -9.75,0.21875 0.61825,-1.0665 0.4751,-9.0585 1.0625,-9.125 3.13058,0.02835 7.51113,0.758239 10.74995,0.90625 z m -32.5,1.09375 c 0.18797,-0.0051 0.35307,0.0125 0.53125,0.03125 0.0858,0.0089 0.167,0.01605 0.25,0.03125 0.1345,0.0244 0.28026,0.05225 0.40625,0.09375 0.18227,0.05999 0.33917,0.12105 0.5,0.21875 0.4127,0.25083 0.73574,0.67154 1,1.1875 0.0877,0.1724 0.179,0.3384 0.25,0.53125 0.69879,1.84858 0.61699,4.52006 -0.28125,6.03125 -0.0348,0.06064 -0.0562,0.1307 -0.0937,0.1875 -0.01,0.0144 -0.0208,0.01705 -0.0312,0.03125 -0.10018,0.14629 -0.2261,0.25844 -0.34375,0.375 -0.11766,0.1165 -0.20856,0.2303 -0.34375,0.3125 -0.58504,0.3556 -1.31043,0.48 -2.09375,0.4375 -0.18002,-0.0085 -0.37791,-0.004 -0.5625,-0.03125 -0.0108,-10e-4 -0.0196,10e-4 -0.0312,0 -0.97794,-0.15505 -2.00757,-0.57479 -2.90625,-1.15625 -0.36353,-0.23521 -0.71925,-0.52438 -1.03125,-0.8125 -0.1495,-0.13806 -0.27235,-0.25769 -0.40625,-0.40625 -0.006,-0.0067 0.006,-0.02425 0,-0.03125 -0.13273,-0.14849 -0.29153,-0.27969 -0.40625,-0.4375 -0.006,-0.008 0.006,-0.0545 0,-0.0625 -1.85499,-2.580547 0.84282,-4.5745 2.90615,-5.8125 0.14042,-0.06836 0.29503,-0.1274 0.4375,-0.1875 0.0762,-0.032 0.14225,-0.06425 0.21875,-0.09375 0.15415,-0.05975 0.31423,-0.10735 0.46875,-0.15625 0.22647,-0.07108 0.46393,-0.1423 0.6875,-0.1875 0.0234,-0.005 0.0392,0.005 0.0625,0 0.0717,-0.0134 0.14765,-0.02055 0.21875,-0.03125 0.19493,-0.0294 0.40578,-0.05736 0.59375,-0.0625 z M 998.3125,45.5 c 1.7715,1.22056 1.08314,4.424755 -0.68755,6.875 -0.1984,0.12573 -0.4257,0.2319 -0.75,0.25 -0.025,0.002 -0.0679,-10e-4 -0.0937,0 -0.33682,0.0094 -0.75415,-0.03292 -1.21875,-0.15625 -0.24,-0.06366 -0.4762,-0.17785 -0.75,-0.28125 -2.34973,-1.098407 -2.1625,-3.996546 -2.65625,-6.25 -0.36816,-3.439436 2.85483,-0.835918 6.15625,-0.4375 z M 768.1562,50 c 11.12456,10.573301 5.65982,50.48709 -1.40625,65.25 -2.07128,4.40806 -12.89272,1.81252 -13.93745,1.09375 -9.10653,-12.48609 -13.34041,-50.341341 -5.03125,-62.3125 C 754.1772,44.090068 762.6892,47.794236 768.1562,50 z m 188.1563,-2 c -0.2454,0 -0.47242,0.06245 -0.6875,0.15625 -0.01,0.005 -0.0222,-0.005 -0.0312,0 -0.63094,0.28798 -1.0625,0.96289 -1.0625,1.71875 0,0.63891 0.30085,1.0151 0.78125,1.0625 0.18997,0.02021 0.42444,-0.0025 0.65625,-0.09375 0.11642,-0.04546 0.22106,-0.1129 0.34375,-0.1875 0.98164,-0.59659 1.78125,-1.44935 1.78125,-1.875 C 958.0933,48.35556 957.29414,48 956.3125,48 z m 51.1563,0.5 c 1.0797,0.25208 2.0556,0.58096 2.8437,0.96875 0.788,0.3878 1.3859,0.82183 1.6875,1.25 0.075,0.10716 0.1505,0.20661 0.1875,0.3125 0.1256,0.327 0.043,0.61844 -0.25,0.90625 -0.2387,0.23298 -0.5725,0.41939 -0.9687,0.5625 -0.7949,0.28525 -1.8641,0.38987 -2.9376,0.28125 -0.5362,-0.05434 -1.047,-0.15161 -1.5624,-0.3125 -3.4706,-0.873859 -6.92206,-5.830069 1,-3.96875 z m -235.37505,2.34375 c 18.77801,6.26904 53.12773,0.384331 69.375,6.78125 1.31884,2.475354 2.11388,5.512422 2.06245,8.28125 -5.37526,4.38889 -12.35595,-0.378337 -17.875,1.03125 -0.10095,0.787162 -2.71999,8.818779 0.34375,10.25 3.79122,2.297614 15.53127,-1.552605 18.375,1.375 -5e-4,0.50902 1.15919,6.447422 1.0938,6.90625 -7.13453,5.121129 -13.69666,-1.919202 -19.15625,1.71875 -1.2406,0.661539 -0.24869,6.315955 0.375,8.84375 6.24235,2.243435 15.57515,-0.612576 21.53125,0.84375 2.82907,2.7173 1.98067,10.18408 0.7813,13.2812 -5.32484,2.41998 -54.70945,9.80199 -79.84365,7.40625 4.7828,-4.18129 14.30283,-50.187948 2.93755,-66.71875 z m 100.9687,55.6875 c -4.61295,-0.65377 2.35417,-10.091382 -4.65625,-13.78125 -0.16482,-0.0536 -1.74147,-0.586 -1.9375,-0.625 -0.0103,-0.002 -0.0208,0.002 -0.0312,0 -3.57873,-0.472893 -7.06242,1.2926 -10.65625,0.375 -1.6091,-0.5518 -1.46801,-2.63766 0.0312,-3.4375 5.46247,-2.089823 8.49278,-3.551994 14.15625,-3.5625 1.12623,-3.781133 1.02651,-10.852455 -0.37495,-10.71875 -4.37145,-0.775534 -9.00572,0.72858 -12.6875,-0.28125 3.67099,-8.65521 0.81245,-5.03125 0.81245,-5.03125 3.36413,-0.565456 5.97927,0.965878 8,-0.03125 2.82576,-5.549559 -1.05209,-6.309191 3.43745,-9.125 6.69686,0.916966 9.29681,0.193744 13.37505,0.15625 31.92805,14.233386 15.37506,41.025 -9.46875,46.0625 z M 957.1875,62.6875 c 0.46771,0.17649 0.87909,0.43997 1.21875,0.75 0.27388,0.24999 0.4956,0.52756 0.6875,0.84375 0.0461,0.07592 0.11485,0.13965 0.15625,0.21875 0.005,0.009 -0.005,0.02225 0,0.03125 0.1003,0.19528 0.1779,0.41349 0.25,0.625 0.15167,0.44445 0.25215,0.94737 0.28125,1.4375 0.10181,1.71543 -0.53548,3.5687 -1.875,4.875 -0.38272,0.37323 -0.84829,0.708 -1.34375,0.96875 -0.48595,0.25576 -0.96957,0.44808 -1.4375,0.5625 -0.45565,0.1114 -0.88535,0.139 -1.3125,0.125 -0.012,-4.9e-4 -0.0505,6e-4 -0.0625,0 -0.21885,-0.0089 -0.38474,-0.0223 -0.59375,-0.0625 -0.83603,-0.16064 -1.6013,-0.57159 -2.21875,-1.1875 -0.14844,-0.14807 -0.33644,-0.29699 -0.46875,-0.46875 -0.006,-0.008 0.006,-0.02325 0,-0.03125 -0.26769,-0.35115 -0.49525,-0.74494 -0.6875,-1.1875 -0.005,-0.0096 0.005,-0.0535 0,-0.0625 -0.19472,-0.45464 -0.36534,-0.92779 -0.46875,-1.46875 -0.1034,-0.54096 -0.125,-1.13186 -0.125,-1.75 0,-1.13385 0.37285,-2.10178 1.03125,-2.875 0.13233,-0.15465 0.28457,-0.30037 0.4375,-0.4375 0.45663,-0.41138 0.98721,-0.73357 1.59375,-0.96875 0.01,-0.004 0.0208,0.004 0.0312,0 1.65363,-0.634528 3.26426,-0.43725 4.9063,0.0625 z m 7.59375,1.125 c 0.0997,-0.01619 0.20234,0 0.3125,0 0.5131,0 0.98894,0.02055 1.46875,0.09375 0.0113,10e-4 0.0199,-10e-4 0.0312,0 0.46723,0.07298 0.94794,0.20775 1.375,0.34375 0.87433,0.27687 1.65981,0.68724 2.3125,1.1875 1.30832,1.00557 2.09375,2.39569 2.09375,3.96875 0,0.31632 0.003,0.58126 -0.0312,0.84375 -0.10027,0.7869 -0.38745,1.34543 -0.84375,1.6875 -0.14451,0.10817 -0.31477,0.21315 -0.5,0.28125 -0.01,0.004 -0.0208,-0.004 -0.0312,0 -0.19853,0.06965 -0.40911,0.12935 -0.65625,0.15625 -0.49309,0.05434 -1.10599,0.0093 -1.8125,-0.09375 -0.234,-0.03411 -0.45933,-0.0993 -0.6875,-0.1875 -0.0827,-0.0317 -0.1683,-0.05555 -0.25,-0.09375 -0.1407,-0.06665 -0.26921,-0.13445 -0.40625,-0.21875 -0.0141,-0.0085 -0.0482,-0.0535 -0.0625,-0.0625 -0.0289,-0.0183 -0.0338,-0.0435 -0.0625,-0.0625 -0.17483,-0.11453 -0.33297,-0.23583 -0.5,-0.375 -1.5183,-2.116015 -4.59397,-5.503006 -2.03135,-7.375 0.0846,-0.02895 0.18151,-0.07756 0.28125,-0.09375 z m 11.0625,-0.9375 c 5.66541,0.03308 15.89403,-0.09031 16.1875,0.96875 1.16059,0.776668 0.64777,6.884304 -1.0313,10.1875 C 990.48159,75.480018 975.51417,74.446866 975.5,74 c 0,-2.76592 -0.80179,-10.09375 0.34375,-11.125 z m 18.875,3.375 c 3.38114,-4.533491 10.24225,0.363674 13.06165,2.53125 0.1581,0.15957 0.3147,0.30922 0.4376,0.5 0.6788,0.993729 1.2157,1.966097 1.4057,3.125 0,0.13205 -3e-4,0.26046 -0.031,0.375 -0.1346,0.49316 -0.6061,0.8522 -1.4063,1.0625 -0.011,0.002 -0.02,-0.002 -0.031,0 -0.4021,0.10264 -0.8841,0.17145 -1.4687,0.21875 -1.2081,0.0978 -2.809,0.0768 -4.875,0 -0.9075,-0.0335 -1.7222,-0.04885 -2.43755,-0.09375 -1.13963,-0.08911 -2.27076,-0.270321 -3.3125,-0.46875 -1.9914,-0.53246 -2.28125,-1.59162 -2.28125,-4.03125 0,-0.41844 0.0445,-0.82387 0.0625,-1.15625 0.0789,-1.433325 0.31824,-2.094999 0.875,-2.0625 z m 19.84375,0.6875 c 0.5699,-5.354327 11.7067,-1.421828 14.3125,0.15625 0.5411,-0.28141 0.5936,2.917 0.5938,4.34375 0,1.220154 -0.5235,1.751132 -1.532,2.28125 -1.0923,0.45151 -2.8259,0.65625 -5.5625,0.65625 -2.0072,0 -3.5214,-0.1004 -4.625,-0.34375 -0.3661,-0.07754 -0.6568,-0.20436 -0.9375,-0.3125 -0.5622,-0.21994 -0.9628,-0.48762 -1.2187,-0.84375 -0.7482,-2.199738 -0.8498,-3.988662 -1.0306,-5.9375 z m -60.03125,0.375 c -0.36811,0 -0.7181,0.14385 -1,0.34375 -0.095,0.06698 -0.20035,0.13455 -0.28125,0.21875 -0.15957,0.1677 -0.25475,0.37213 -0.34375,0.59375 -0.0452,0.11108 -0.1011,0.22304 -0.125,0.34375 -0.0232,0.12054 -0.0312,0.24722 -0.0312,0.375 0,0.63892 0.31141,1.0151 0.78125,1.0625 0.18998,0.01921 0.39319,-0.0338 0.625,-0.125 0.11543,-0.04546 0.25229,-0.1129 0.375,-0.1875 0.98163,-0.59659 1.78125,-1.41806 1.78125,-1.84375 0,-0.42569 -0.79962,-0.78125 -1.78125,-0.78125 z M 922.3749,78.25 c -0.74074,1.46861 -3.43221,1.233793 -3.5625,-0.28125 1.5082,-2.097741 3.65491,-2.437376 3.5625,0.28125 z M 754.875,81.09375 c -0.0433,1.76123 3.57121,2.39468 3.75,0.0625 -1.014,-2.149149 -2.5018,-1.329067 -3.75,-0.0625 z M 881,82.96875 c 0.005,0.0104 -0.005,0.02055 0,0.03125 2.13802,2.676164 6.11257,1.123758 5.5,-1.84375 -1.90695,-2.452017 -6.17386,-0.162126 -5.5,1.8125 z m 74.53125,0.09375 c 0.24073,-0.02356 0.46979,-0.0213 0.6875,0 0.65313,0.06378 1.20385,0.33189 1.65625,0.71875 0.14258,0.12443 0.28598,0.24967 0.40625,0.40625 0.64298,0.82044 0.9383,2.08793 0.875,3.78125 -0.0538,1.44243 -0.20256,2.4728 -0.59375,3.25 -0.26183,0.51529 -0.63902,0.91728 -1.125,1.21875 -0.48598,0.30147 -1.10607,0.53287 -1.875,0.6875 -0.38446,0.07735 -0.78377,0.10315 -1.25,0.15625 -0.47832,0.0545 -0.94083,0.0812 -1.375,0.0625 -0.43417,-0.01868 -0.83302,-0.07255 -1.21875,-0.15625 -0.38573,-0.08367 -0.76076,-0.20338 -1.09375,-0.34375 -0.0365,-0.0153 -0.0888,-0.01505 -0.125,-0.03125 -4.18692,-2.142522 -2.20439,-6.016134 0.78135,-8.125 0.008,-0.005 0.0232,0.005 0.0312,0 0.63417,-0.3978 1.23749,-0.7499 1.8125,-1 0.009,-0.005 0.0222,0.004 0.0312,0 0.0728,-0.0313 0.14705,-0.0335 0.21875,-0.0625 0.49132,-0.1987 0.96639,-0.3482 1.40625,-0.4375 0.25686,-0.05205 0.50927,-0.101438 0.75,-0.125 z M 976.125,84.875 c -0.65584,2.218315 -0.72594,8.046893 -0.21875,10.0625 -2.2252,-0.118284 -6.83084,-1.856651 -12.03125,-1.4375 0.0659,-3.290939 0.19884,-5.721314 0.34375,-9.40625 4.1816,-1.451273 9.65967,-2.02438 11.90625,0.78125 z m 6.21875,-0.34375 c 3.24506,2.622036 7.53899,-0.08343 10.40625,2.09375 2.70779,9.505468 1.69143,12.53497 -0.5,9.9375 0.36573,-2.76545 -11.82836,-0.428183 -10.00005,-2.46875 -1.65324,-6.631215 -0.59268,-5.679485 0.0938,-9.5625 z m -25.6875,2.09375 c -1.97642,0.296205 -3.36376,1.763944 -3.7812,3.65625 -0.002,0.11363 0.009,0.23999 0.0312,0.34375 0.0107,0.04972 0.0149,0.10905 0.0312,0.15625 0.0182,0.05112 0.037,0.10865 0.0625,0.15625 0.0484,0.0926 0.1111,0.1748 0.1875,0.25 0.22461,0.22088 0.68592,0.12501 1.25,-0.21875 0.94264,-0.632557 1.6429,-1.433095 2.3125,-2.28125 0.0505,-0.07042 0.11155,-0.15165 0.15625,-0.21875 0.13533,-0.20345 0.26175,-0.4216 0.34375,-0.59375 0.0977,-0.2053 0.1661,-0.37358 0.1875,-0.53125 0.0327,-0.24159 -0.0395,-0.41151 -0.1875,-0.53125 -0.0588,-0.05372 -0.12735,-0.12595 -0.21875,-0.15625 -0.009,-0.002 -0.0208,0.002 -0.0312,0 -0.1068,-0.0302 -0.19581,-0.03125 -0.34375,-0.03125 z m 43.99995,1.75 c 2.3556,0.02974 4.6378,0.627009 5.5,2.96875 0.2117,0.67381 0.099,1.19695 -0.031,1.84375 -1.878,4.461879 -6.66943,2.110298 -9.375,-0.03125 C 996.689,93.10263 996.6217,93.0542 996.5627,93 c -2.39085,-2.321871 -2.18002,-3.614094 0.53125,-4.375 0.79586,-0.08376 1.66633,-0.17915 2.5625,-0.21875 0.33607,-0.01485 0.66355,-0.0355 0.99995,-0.03125 z m 10.6563,0.0625 c 0.5815,0.0051 1.1537,0.08016 1.7187,0.1875 0.012,0.004 0.019,-0.004 0.031,0 1.2593,0.38596 2.5267,1.20266 3.3437,2.1875 l 0,0.03125 c 0.1569,0.19131 0.3175,0.39088 0.4376,0.59375 0.3419,0.57715 0.633,1.09845 0.875,1.5625 l 0,0.03125 c 0.2336,0.45005 0.4276,0.83852 0.5624,1.1875 l 0,0.03125 c 0.1297,0.34083 0.2193,0.65755 0.25,0.90625 0.048,0.38741 -0.017,0.66105 -0.2187,0.84375 -0.067,0.06095 -0.154,0.11645 -0.25,0.15625 -0.1939,0.0778 -0.4109,0.09463 -0.7187,0.09375 -0.01,-3e-5 -0.019,1.1e-4 -0.031,0 -0.617,0.0013 -1.4591,-0.13199 -2.5625,-0.40625 -0.4219,-0.10487 -0.8008,-0.23933 -1.1875,-0.375 -1.9525,-0.612647 -7.9795,-4.391604 -3.9988,-6.78125 0.5775,-0.190197 1.1685,-0.255088 1.75,-0.25 z m -16.09375,14.625 c 1.3789,3.935 -0.78864,7.82785 -0.3437,11.625 -0.97715,2.21326 -3.53888,0.90675 -5.2812,-0.18755 -0.006,-0.006 -0.0213,0.006 -0.0312,0 -3.0295,-3.71322 0.0722,-6.67866 0.75005,-10.625 2.29879,-0.0427 3.20009,0.7246 4.90625,0.6875 z m -8.6875,0.6875 c 0.1517,3.65954 -0.64954,6.99231 -1.1562,10.24995 -1.69938,1.67952 -10.09281,1.82025 -11.40625,0.59375 -0.95634,-2.23989 -1.73624,-5.50781 -2.25,-7.84375 1.83402,-4.48775 10.97701,-1.43643 14.81245,-2.99995 z m -28.4376,6 c -2.12405,5.64671 -13.23275,3.04586 -10.4063,-2.625 2.17641,-7.16794 12.80954,-5.43201 10.4063,2.625 z M 968.5,106.9375 c 0.18143,0.1944 0.3125,0.40342 0.3125,0.625 0,0.88638 1.12568,4.27907 1.6875,5.71875 0.80631,3.08439 -3.12969,2.11844 -5.2812,2.99995 -0.25796,0.11902 -0.48848,0.22659 -0.6875,0.34375 -5.72481,4.65256 -3.22307,-3.3724 -3.0625,-6.71875 0.0326,-0.67917 0.11533,-1.28219 0.28125,-1.78125 0.16592,-0.49905 0.44276,-0.89294 0.75,-1.21875 1.70157,-1.38082 4.27119,-1.2457 6,0.0312 z m 38.5938,-0.21875 c 0.2346,0.0605 0.4463,0.13114 0.6874,0.25 0.2697,0.0966 0.5389,0.30721 0.7497,0.4375 2.6815,1.51604 -0.3926,6.24117 -2.4683,6.71875 -2.4976,-0.0483 -5.1313,-0.19134 -6.8118,-2.09375 -0.066,-0.14828 -0.125,-0.27574 -0.125,-0.4375 0,-0.0893 0.0439,-0.1976 0.0937,-0.3125 0.3678,-0.81053 1.8582,-2.19592 3.6251,-3.28125 1.4767,-0.99746 2.6409,-1.39233 4.25,-1.28125 z m -74.37505,0.46875 c 0.56355,0.85312 0.73041,1.8428 0.90625,2.75 0.34882,2.87788 0.33999,5.30766 -0.31245,7.9375 -0.0696,0.22696 -0.13665,0.43292 -0.21875,0.625 -0.16414,0.38412 -0.34891,0.66497 -0.5625,0.875 -0.0724,0.0701 -0.15055,0.1061 -0.21875,0.0937 -0.006,-0.002 -0.0555,0.002 -0.0625,0 -1.1823,-3.01255 -0.96103,-6.16929 -0.7813,-9.5 0.037,-1.67322 0.69722,-2.52921 1.25,-2.7812 z"
         transform="translate(0,842.36218)"
         id="path3000"
         inkscape:connector-curvature="0"
         sodipodi:nodetypes="scccsccsccccccsccccccccccccccccccccccccsccccccccccsccccccccccccccccccccccccccccccccsccscccssccccccccscccccccccccccccccccccccccscccccccccccccccccccccccsccccccccscscccccccccccccccccscccsscccccccccccccccccccccccscccccsccsscccccsccscccccscccccccccscccccccccccscccccsccccccscccccscccsccccccccccscccccsccccsccccccccccsccscsccccccccsscccscccccsccsccccccccccccccccccccccccccccccccccccccccsccccccccscccccccccccccccccccccccccccssccccccccscccccccscccccccccccccccccccccccccccccccccccccccccccccccccccccccccccccccccccccsccccsccsccccsccccccccccccccsccscccccsccsccccccccccccccscccscccccsccscccsccsscccssccccccccccccccccccccccccccccccccccccccccccccccccccccssccccccccccccccccccscccccsccccccccccccccccccccccccccccccccccccsccccccccccccc" />
    </g>
  </g>
</svg>
